<svg width="183" height="213" viewBox="0 0 183 213" fill="none" xmlns="http://www.w3.org/2000/svg">
<g filter="url(#filter0_d_1399_4782)">
<mask id="path-1-outside-1_1399_4782" maskUnits="userSpaceOnUse" x="-1.94991" y="-1.93992" width="186.654" height="216.487" fill="black">
<rect fill="white" x="-1.94991" y="-1.93992" width="186.654" height="216.487"/>
<path d="M120.757 27.0328C136.824 26.2344 150.699 38.4048 151.911 54.5387C152.718 65.2658 147.726 75.0956 139.586 80.954C148.51 85.5304 154.914 94.5051 155.721 105.232C156.952 121.622 144.653 135.92 128.263 137.153C120.063 137.769 112.386 134.998 106.607 130.023L107.262 138.731L107.261 138.731L108.84 159.734C110.071 176.123 97.7721 190.422 81.3825 191.655C64.9924 192.887 50.692 180.588 49.4596 164.198C48.6533 153.471 53.6431 143.64 61.7821 137.78C52.8596 133.204 46.4563 124.232 45.6498 113.506C44.8435 102.779 49.8333 92.948 57.9724 87.0889C49.0495 82.5127 42.6459 73.5392 41.8394 62.8132C40.6075 46.4229 52.9091 32.1223 69.2995 30.8903L90.2992 29.3114L119.99 27.0793L120.757 27.0328ZM103.451 88.0372L103.451 88.0384L103.452 88.0604C103.46 88.0518 103.467 88.0432 103.474 88.0347L103.451 88.0372Z"/>
</mask>
<path d="M120.757 27.0328C136.824 26.2344 150.699 38.4048 151.911 54.5387C152.718 65.2658 147.726 75.0956 139.586 80.954C148.51 85.5304 154.914 94.5051 155.721 105.232C156.952 121.622 144.653 135.92 128.263 137.153C120.063 137.769 112.386 134.998 106.607 130.023L107.262 138.731L107.261 138.731L108.84 159.734C110.071 176.123 97.7721 190.422 81.3825 191.655C64.9924 192.887 50.692 180.588 49.4596 164.198C48.6533 153.471 53.6431 143.64 61.7821 137.78C52.8596 133.204 46.4563 124.232 45.6498 113.506C44.8435 102.779 49.8333 92.948 57.9724 87.0889C49.0495 82.5127 42.6459 73.5392 41.8394 62.8132C40.6075 46.4229 52.9091 32.1223 69.2995 30.8903L90.2992 29.3114L119.99 27.0793L120.757 27.0328ZM103.451 88.0372L103.451 88.0384L103.452 88.0604C103.46 88.0518 103.467 88.0432 103.474 88.0347L103.451 88.0372Z" fill="white"/>
<path d="M120.757 27.0328L120.541 22.681L120.517 22.6822L120.493 22.6836L120.757 27.0328ZM151.911 54.5387L156.256 54.2122L156.256 54.2121L151.911 54.5387ZM139.586 80.954L137.041 77.4176L131.258 81.5798L137.598 84.8311L139.586 80.954ZM155.721 105.232L160.066 104.906L160.066 104.905L155.721 105.232ZM128.263 137.153L128.59 141.498L128.59 141.498L128.263 137.153ZM106.607 130.023L109.45 126.721L101.473 119.853L102.262 130.349L106.607 130.023ZM107.262 138.731L105.891 142.867L112.097 144.923L111.607 138.405L107.262 138.731ZM107.261 138.731L108.631 134.595L102.426 132.539L102.916 139.058L107.261 138.731ZM108.84 159.734L113.185 159.407L113.185 159.407L108.84 159.734ZM81.3825 191.655L81.7091 195.999L81.7093 195.999L81.3825 191.655ZM49.4596 164.198L45.1147 164.524L45.1147 164.524L49.4596 164.198ZM61.7821 137.78L64.3278 141.317L70.1094 137.155L63.7706 133.903L61.7821 137.78ZM45.6498 113.506L41.3049 113.833L41.3049 113.833L45.6498 113.506ZM57.9724 87.0889L60.518 90.6251L66.2998 86.4629L59.9608 83.2118L57.9724 87.0889ZM41.8394 62.8132L37.4945 63.1398L37.4945 63.1399L41.8394 62.8132ZM69.2995 30.8903L69.6261 35.2353L69.6261 35.2353L69.2995 30.8903ZM90.2992 29.3114L89.9726 24.9664L89.9725 24.9664L90.2992 29.3114ZM119.99 27.0793L119.727 22.7301L119.695 22.732L119.664 22.7344L119.99 27.0793ZM103.451 88.0372L102.987 83.7048L96.7351 84.3743L99.5571 89.9928L103.451 88.0372ZM103.451 88.0384L107.804 87.8466L107.763 86.9156L107.345 86.0828L103.451 88.0384ZM103.452 88.0604L99.0993 88.2522L99.5838 99.2471L106.757 90.9002L103.452 88.0604ZM103.474 88.0347L106.776 90.8783L113.967 82.5289L103.01 83.7023L103.474 88.0347ZM120.757 27.0328L120.973 31.3847C134.686 30.7032 146.531 41.0943 147.567 54.8654L151.911 54.5387L156.256 54.2121C154.866 35.7152 138.962 21.7656 120.541 22.681L120.757 27.0328ZM151.911 54.5387L147.566 54.8652C148.254 64.015 144.002 72.4074 137.041 77.4176L139.586 80.954L142.132 84.4904C151.45 77.7838 157.181 66.5165 156.256 54.2122L151.911 54.5387ZM139.586 80.954L137.598 84.8311C145.23 88.7447 150.688 96.4085 151.376 105.559L155.721 105.232L160.066 104.905C159.141 92.6017 151.791 82.316 141.575 77.0769L139.586 80.954ZM155.721 105.232L151.376 105.559C152.427 119.549 141.927 131.756 127.937 132.808L128.263 137.153L128.59 141.498C147.379 140.085 161.477 123.695 160.066 104.906L155.721 105.232ZM128.263 137.153L127.937 132.808C120.937 133.334 114.39 130.974 109.45 126.721L106.607 130.023L103.764 133.325C110.383 139.023 119.189 142.204 128.59 141.498L128.263 137.153ZM106.607 130.023L102.262 130.349L102.917 139.058L107.262 138.731L111.607 138.405L110.952 129.696L106.607 130.023ZM107.262 138.731L108.632 134.595L108.631 134.595L107.261 138.731L105.89 142.867L105.891 142.867L107.262 138.731ZM107.261 138.731L102.916 139.058L104.495 160.06L108.84 159.734L113.185 159.407L111.606 138.404L107.261 138.731ZM108.84 159.734L104.495 160.06C105.546 174.05 95.0458 186.257 81.0558 187.31L81.3825 191.655L81.7093 195.999C100.498 194.586 114.597 178.197 113.185 159.407L108.84 159.734ZM81.3825 191.655L81.0559 187.31C67.0651 188.361 54.8565 177.861 53.8046 163.871L49.4596 164.198L45.1147 164.524C46.5276 183.314 62.9198 197.412 81.7091 195.999L81.3825 191.655ZM49.4596 164.198L53.8046 163.871C53.1168 154.721 57.3675 146.327 64.3278 141.317L61.7821 137.78L59.2365 134.244C49.9186 140.952 44.1899 152.221 45.1147 164.524L49.4596 164.198ZM61.7821 137.78L63.7706 133.903C56.14 129.99 50.6827 122.328 49.9948 113.179L45.6498 113.506L41.3049 113.833C42.23 126.135 49.5792 136.419 59.7937 141.657L61.7821 137.78ZM45.6498 113.506L49.9948 113.179C49.307 104.029 53.5578 95.6357 60.518 90.6251L57.9724 87.0889L55.4267 83.5527C46.1089 90.2604 40.3801 101.529 41.3049 113.833L45.6498 113.506ZM57.9724 87.0889L59.9608 83.2118C52.33 79.2983 46.8723 71.6357 46.1844 62.4866L41.8394 62.8132L37.4945 63.1399C38.4196 75.4428 45.769 85.727 55.984 90.9659L57.9724 87.0889ZM41.8394 62.8132L46.1844 62.4867C45.1328 48.4961 55.6353 36.2869 69.6261 35.2353L69.2995 30.8903L68.9729 26.5454C50.183 27.9578 36.0822 44.3498 37.4945 63.1398L41.8394 62.8132ZM69.2995 30.8903L69.6261 35.2353L90.6259 33.6563L90.2992 29.3114L89.9725 24.9664L68.9728 26.5454L69.2995 30.8903ZM90.2992 29.3114L90.6259 33.6563L120.317 31.4243L119.99 27.0793L119.664 22.7344L89.9726 24.9664L90.2992 29.3114ZM119.99 27.0793L120.254 31.4285L121.021 31.3821L120.757 27.0328L120.493 22.6836L119.727 22.7301L119.99 27.0793ZM103.451 88.0372L99.5571 89.9928L99.5577 89.9941L103.451 88.0384L107.345 86.0828L107.344 86.0816L103.451 88.0372ZM103.451 88.0384L99.0984 88.2302L99.0993 88.2522L103.452 88.0604L107.805 87.8685L107.804 87.8466L103.451 88.0384ZM103.452 88.0604L106.757 90.9002C106.765 90.8909 106.772 90.8829 106.776 90.8774C106.781 90.8723 106.785 90.8674 106.786 90.8662C106.788 90.8639 106.787 90.8648 106.786 90.8665C106.784 90.8683 106.78 90.8726 106.776 90.8783L103.474 88.0347L100.173 85.1911C100.164 85.2011 100.157 85.2096 100.152 85.2157C100.147 85.2216 100.142 85.2268 100.141 85.2289C100.138 85.2319 100.138 85.2313 100.139 85.2305C100.14 85.2292 100.143 85.2256 100.148 85.2205L103.452 88.0604ZM103.474 88.0347L103.01 83.7023L102.987 83.7048L103.451 88.0372L103.915 92.3696L103.938 92.3671L103.474 88.0347Z" fill="black" mask="url(#path-1-outside-1_1399_4782)"/>
<path d="M49.9862 113.173C48.9346 99.1819 59.4359 86.9736 73.4266 85.922L98.7721 84.0168L102.582 134.708L77.2369 136.613C63.2462 137.665 51.0379 127.163 49.9862 113.173Z" fill="#A259FF"/>
<path d="M46.176 62.4812C45.1243 48.4905 55.6256 36.2822 69.6163 35.2306L94.9618 33.3254L98.7721 84.0164L73.4266 85.9216C59.4359 86.9732 47.2276 76.4719 46.176 62.4812Z" fill="#F24E1E"/>
<path d="M94.962 33.3242L120.308 31.4191C134.298 30.3674 146.507 40.8687 147.558 54.8594C148.61 68.8501 138.109 81.0584 124.118 82.1101L98.7723 84.0152L94.962 33.3242Z" fill="#FF7262"/>
<path d="M151.369 105.551C152.42 119.542 141.919 131.75 127.928 132.801C113.938 133.853 101.729 123.352 100.678 109.361C99.6261 95.3704 110.127 83.1621 124.118 82.1105C138.109 81.0588 150.317 91.5601 151.369 105.551Z" fill="#1ABCFE"/>
<path d="M81.0472 187.302C95.0379 186.251 105.539 174.043 104.488 160.052L102.582 134.706L77.2369 136.611C63.2462 137.663 52.7449 149.871 53.7966 163.862C54.8482 177.853 67.0565 188.354 81.0472 187.302Z" fill="#0ACF83"/>
</g>
<defs>
<filter id="filter0_d_1399_4782" x="37.397" y="22.6387" width="125.766" height="176.458" filterUnits="userSpaceOnUse" color-interpolation-filters="sRGB">
<feFlood flood-opacity="0" result="BackgroundImageFix"/>
<feColorMatrix in="SourceAlpha" type="matrix" values="0 0 0 0 0 0 0 0 0 0 0 0 0 0 0 0 0 0 127 0" result="hardAlpha"/>
<feOffset dx="3" dy="3"/>
<feColorMatrix type="matrix" values="0 0 0 0 0 0 0 0 0 0 0 0 0 0 0 0 0 0 1 0"/>
<feBlend mode="normal" in2="BackgroundImageFix" result="effect1_dropShadow_1399_4782"/>
<feBlend mode="normal" in="SourceGraphic" in2="effect1_dropShadow_1399_4782" result="shape"/>
</filter>
</defs>
</svg>
