<svg width="78" height="78" viewBox="0 0 78 78" fill="none" xmlns="http://www.w3.org/2000/svg">
<g filter="url(#filter0_d_416_542)">
<path d="M26.4339 13.5147C27.4429 12.4716 28.6774 11.6701 30.1883 11.2769L30.1918 11.2762C30.1998 11.274 30.2044 11.2717 30.2151 11.2689L30.2158 11.2696C30.2217 11.2681 30.2272 11.2663 30.2344 11.2644L30.2371 11.2644C32.7701 10.6028 35.2448 11.2905 37.3518 12.5463C39.421 13.7796 41.3731 15.6865 43.1741 18.0155L43.3823 18.2849L43.6943 18.1519C48.6721 16.0353 54.1724 15.3912 57.879 18.9768C61.5853 22.5625 61.1235 28.0805 59.1731 33.1257L59.0506 33.4433L59.3266 33.6411C61.702 35.3517 63.664 37.2324 64.9642 39.2577C66.2137 41.2044 66.967 43.4849 66.5932 45.8732L66.5031 46.3526C66.1652 47.8956 65.3995 49.1705 64.3808 50.2236C62.8461 51.8099 60.7357 52.7624 58.5793 53.3344C57.4365 53.6375 56.2021 53.8547 54.9009 53.9934L54.5348 54.032L54.5084 54.3991C54.4165 55.6998 54.2428 56.9389 53.9778 58.0911C53.4752 60.2758 52.5836 62.4186 51.0407 64.0136C50.0314 65.0568 48.7961 65.8584 47.2849 66.2513L47.2828 66.2521L47.2525 66.2595L47.2519 66.2602C47.2481 66.2612 47.2447 66.2619 47.2429 66.2624C47.2408 66.263 47.2395 66.2631 47.2395 66.2631L47.2374 66.2639L46.7627 66.3726C44.3964 66.8371 42.0984 66.1583 40.1234 64.9812C38.0537 63.7477 36.1011 61.8403 34.2998 59.5107L34.0923 59.2434L33.7802 59.3749C28.8468 61.4586 23.3104 62.1434 19.5962 58.5507C15.8898 54.9651 16.3505 49.4469 18.3008 44.4019L18.4233 44.0856L18.1472 43.8865C15.772 42.1759 13.8105 40.2946 12.5104 38.2691C11.2204 36.2592 10.4598 33.8941 10.9217 31.4223L10.9707 31.175L10.9721 31.1749C11.3101 29.6322 12.0752 28.3577 13.0938 27.3047C14.6285 25.7182 16.7395 24.7652 18.8959 24.1932C20.0425 23.8891 21.2814 23.6719 22.5875 23.5332L22.9528 23.494L22.9799 23.1275C23.0752 21.8175 23.2512 20.5723 23.5171 19.4161C24.0173 17.2419 24.8992 15.1011 26.4339 13.5147Z" fill="#FF5C57" stroke="black" stroke-width="0.880222"/>
<path d="M42.1064 42.0231C43.793 40.2797 43.6517 37.4072 41.791 35.6071C39.9302 33.8071 37.0546 33.7611 35.3681 35.5045C33.6815 37.248 33.8228 40.1205 35.6835 41.9205C37.5443 43.7206 40.4199 43.7665 42.1064 42.0231Z" fill="white"/>
<path d="M44.7799 21.3989C43.9541 21.7794 43.1016 22.1876 42.2518 22.652C41.7032 21.7997 41.1279 20.9751 40.5553 20.2067C37.2166 15.8514 33.852 13.8294 31.0737 14.5723C30.2396 14.7839 29.5293 15.2225 28.8864 15.8871C27.0113 17.8254 26.1641 21.7765 26.3245 26.756C21.3424 26.7608 17.4216 27.7386 15.5465 29.6769C14.9036 30.3415 14.4888 31.0659 14.305 31.9065C13.6841 34.7366 15.8165 38.0323 20.2507 41.1961C21.0376 41.7429 21.8808 42.2906 22.7508 42.8106C22.3148 43.6754 21.9056 44.5124 21.5823 45.3789C19.6525 50.2125 19.7816 53.9824 21.9686 56.098C24.1556 58.2137 27.9545 58.19 32.6947 56.1287C33.5204 55.7482 34.373 55.3401 35.2227 54.8756C35.7713 55.7279 36.3467 56.5526 36.9193 57.3209C40.2579 61.6763 43.6226 63.6983 46.4009 62.9553C47.2349 62.7437 47.9452 62.3051 48.5881 61.6406C50.49 59.6745 51.3372 55.7234 51.1501 50.7716C56.1321 50.7668 60.053 49.7891 61.9281 47.8507C62.571 47.1861 62.9857 46.4617 63.1696 45.6211C63.7904 42.7911 61.658 39.4953 57.2239 36.3315C56.437 35.7847 55.5937 35.237 54.7237 34.717C55.1597 33.8523 55.5689 33.0153 55.8923 32.1488C57.822 27.3151 57.693 23.5452 55.506 21.4296C53.319 19.3139 49.5469 19.3099 44.7799 21.3989ZM31.8013 16.7771C33.6089 16.328 36.1709 18.056 38.8188 21.5287C39.359 22.2121 39.8753 22.9796 40.3943 23.8033C38.6467 24.9001 36.937 26.1944 35.2356 27.6575C32.9062 27.2266 30.6979 26.9664 28.6077 26.8206C28.4325 22.6844 28.9638 19.1781 30.5978 17.489C30.946 17.129 31.3561 16.8825 31.8013 16.7771ZM46.3269 36.8324C46.7904 38.2457 47.1736 39.7421 47.5301 41.2661C46.6276 42.3764 45.666 43.4296 44.6481 44.4818C43.6034 45.5618 42.5828 46.5577 41.5298 47.4688C39.9947 47.1631 38.5132 46.802 37.0853 46.3856C35.6011 45.9682 34.1141 45.4946 32.7102 44.9942C32.1635 43.6077 31.6408 42.1372 31.1745 40.6676C30.7109 39.2543 30.3277 37.7579 29.9713 36.2338C30.8737 35.1235 31.8353 34.0704 32.8532 33.0181C33.8979 31.9382 34.9186 30.9422 35.9716 30.0311C37.5066 30.3368 38.9881 30.6979 40.416 31.1144C41.9003 31.5317 43.3873 32.0053 44.7911 32.5058C45.3111 33.92 45.831 35.3342 46.3269 36.8324ZM47.5749 33.5906C49.0111 34.1759 50.3374 34.8157 51.6369 35.4831C50.9626 36.6533 50.1756 37.8217 49.3054 39.0169C49.0653 38.1414 48.8225 37.2096 48.4965 36.3046C48.1973 35.372 47.8713 34.467 47.5749 33.5906ZM48.7266 48.4272C47.3153 48.3485 45.8717 48.1848 44.4253 47.9649C45.071 47.3566 45.7166 46.7483 46.3327 46.1115C46.9488 45.4746 47.5354 44.8091 48.1219 44.1436C48.3897 45.5819 48.6011 47.0193 48.7266 48.4272ZM39.3111 49.2892C38.1454 50.1985 37.0037 51.0238 35.8566 51.7365C35.1759 50.4885 34.463 49.1555 33.8304 47.7395C34.7161 48.0067 35.6314 48.3025 36.5439 48.542C37.5156 48.8387 38.3986 49.0497 39.3111 49.2892ZM29.8997 43.937C28.4635 43.3517 27.1372 42.712 25.8377 42.0445C26.512 40.8743 27.299 39.7059 28.1691 38.5107C28.4092 39.3862 28.6521 40.318 28.9781 41.223C29.2772 42.1557 29.6032 43.0606 29.8997 43.937ZM28.7479 29.1004C30.1592 29.1792 31.6029 29.3428 33.0492 29.5627C32.4036 30.171 31.7579 30.7793 31.1418 31.4162C30.5257 32.0531 29.9392 32.7185 29.3526 33.384C29.0849 31.9457 28.8735 30.5083 28.7479 29.1004ZM40.9011 28.957L38.1635 28.2385C39.3291 27.3292 40.4708 26.5039 41.618 25.7911C42.2986 27.0392 43.0116 28.3721 43.6442 29.7881C42.7289 29.4923 41.8136 29.1965 40.9011 28.957ZM21.5143 39.4167C17.9557 36.8855 16.1438 34.3822 16.5327 32.5607C16.6233 32.1123 16.856 31.6942 17.2043 31.3342C18.8115 29.6728 22.2687 28.9969 26.4647 29.0358C26.6502 31.0914 27.0131 33.3185 27.5209 35.6323C26.1151 37.3813 24.9078 39.1616 23.8399 40.916C22.9995 40.4246 22.2421 39.9064 21.5143 39.4167ZM23.4687 54.5474C22.0796 53.2037 22.1288 50.1958 23.714 46.3689C24.0133 45.5864 24.3957 44.7771 24.8077 43.9963C26.714 44.9828 28.8161 45.9443 31.0254 46.795C31.9489 48.9748 32.9232 51.043 33.9991 52.8878C29.1203 55.5655 25.1237 56.1484 23.4687 54.5474ZM45.6732 60.7505C43.8656 61.1996 41.3036 59.4716 38.6558 55.9989C38.1155 55.3155 37.5993 54.548 37.0802 53.7243C38.8278 52.6275 40.5375 51.3333 42.2389 49.8702C44.5683 50.301 46.7767 50.5612 48.8669 50.7071C49.0421 54.8432 48.5108 58.3495 46.8767 60.0386C46.5285 60.3986 46.1184 60.6451 45.6732 60.7505ZM55.9602 38.1109C59.5188 40.6421 61.3308 43.1455 60.9418 44.9669C60.8513 45.4154 60.6185 45.8334 60.2703 46.1934C58.663 47.8548 55.2059 48.5307 51.0098 48.4918C50.8243 46.4362 50.4615 44.2091 49.9536 41.8953C51.3595 40.1463 52.5668 38.366 53.6346 36.6116C54.4751 37.1031 55.2324 37.6213 55.9602 38.1109ZM53.7606 31.1587C53.4613 31.9412 53.0789 32.7506 52.6669 33.5313C50.7606 32.5448 48.6584 31.5834 46.4492 30.7327C45.5257 28.5528 44.5514 26.4847 43.4755 24.6398C48.3543 21.9621 52.3509 21.3792 54.0059 22.9803C55.3949 24.324 55.319 27.3595 53.7606 31.1587Z" fill="white"/>
</g>
<defs>
<filter id="filter0_d_416_542" x="10.3452" y="10.5676" width="59.7841" height="59.3925" filterUnits="userSpaceOnUse" color-interpolation-filters="sRGB">
<feFlood flood-opacity="0" result="BackgroundImageFix"/>
<feColorMatrix in="SourceAlpha" type="matrix" values="0 0 0 0 0 0 0 0 0 0 0 0 0 0 0 0 0 0 127 0" result="hardAlpha"/>
<feOffset dx="3" dy="3"/>
<feColorMatrix type="matrix" values="0 0 0 0 0 0 0 0 0 0 0 0 0 0 0 0 0 0 1 0"/>
<feBlend mode="normal" in2="BackgroundImageFix" result="effect1_dropShadow_416_542"/>
<feBlend mode="normal" in="SourceGraphic" in2="effect1_dropShadow_416_542" result="shape"/>
</filter>
</defs>
</svg>
