<svg width="74" height="58" viewBox="0 0 74 58" fill="none" xmlns="http://www.w3.org/2000/svg">
<g filter="url(#filter0_d_416_539)">
<path d="M30.7797 10.1018C34.637 8.87713 37.861 8.83385 40.6762 9.4269C42.7775 9.86963 44.5823 10.6584 46.1048 11.4124L46.7401 11.7322L47.4247 12.0845L47.4345 12.0895L47.449 12.0962C49.4943 13.1644 50.7547 13.7452 51.9584 13.8069L52.1989 13.8125L52.21 13.8121L52.443 13.8037L52.4541 13.8032L52.4724 13.8026C53.9196 13.7136 55.0444 13.2534 55.9631 12.476C56.9101 11.6745 57.7916 10.403 58.4867 8.46467C58.9217 7.25164 60.1503 6.51209 61.426 6.69535C62.7015 6.87881 63.6723 7.93399 63.7482 9.22037C64.0039 13.5547 63.1853 17.4189 61.0404 20.5803C59.1615 23.3492 56.4172 25.3539 53.0032 26.6885L51.9158 27.1137L53.0415 27.4223C54.1491 27.7265 54.9611 28.7066 55.0302 29.878C55.2859 34.2122 54.4673 38.0765 52.3224 41.2378C50.1743 44.4035 46.8941 46.571 42.7741 47.8791C38.9123 49.1053 35.6862 49.1502 32.8695 48.5577C30.1213 47.9795 27.8847 46.8117 26.1194 45.9016L26.1203 45.9013L25.2693 45.4605C23.4585 44.5412 22.2945 44.1001 21.0876 44.1816C21.0831 44.1819 21.0789 44.1821 21.0715 44.1826C19.6213 44.2718 18.4948 44.7307 17.5768 45.5063C16.6311 46.3055 15.751 47.5748 15.0576 49.5152C14.6237 50.7291 13.3953 51.4697 12.1191 51.2874C10.8432 51.1048 9.87141 50.0498 9.79506 48.7629C9.53795 44.4245 10.3556 40.5599 12.5036 37.3987C14.383 34.6328 17.1274 32.6316 20.5397 31.297L21.6258 30.8712L20.5011 30.5623C19.394 30.2579 18.5828 29.2782 18.5136 28.1072C18.2579 23.7728 19.0766 19.9088 21.2233 16.7467C23.373 13.5804 26.6551 11.4114 30.7797 10.1018ZM29.7895 23.525C28.3425 23.614 27.2172 24.0732 26.2984 24.8507C25.3513 25.6522 24.4702 26.9246 23.7751 28.8629C23.6663 29.1662 23.5076 29.4402 23.3113 29.6772L22.5655 30.5779L23.7018 30.3002C26.862 29.5293 29.5775 29.5617 31.9911 30.0689C34.7397 30.6465 36.9607 31.8177 38.7166 32.7471L38.7187 32.7475C40.7631 33.8154 42.0271 34.394 43.2362 34.4546L43.4767 34.4602L43.4897 34.4591L43.7236 34.4504L43.7267 34.4505L43.7539 34.449L43.7579 34.4488C45.2048 34.3636 46.329 33.9064 47.2464 33.1311C48.1333 32.3815 48.9628 31.2176 49.6357 29.478L49.7687 29.1222C49.878 28.8175 50.0358 28.5427 50.2319 28.3061L50.9771 27.4066L49.8421 27.6819C46.6989 28.4444 43.9948 28.4065 41.5875 27.9001C38.8392 27.3219 36.6023 26.1532 34.8371 25.2431L33.9872 24.8029C32.1765 23.8836 31.0124 23.4425 29.8055 23.524C29.801 23.5243 29.797 23.5245 29.7895 23.525Z" fill="white" stroke="black" stroke-width="0.775072"/>
<path d="M31.7005 13.002C24.3101 15.3485 20.8612 20.4566 21.3217 28.2619C22.941 23.746 25.7649 21.3756 29.723 21.1323C31.9806 20.9798 33.9767 21.9868 36.1806 23.1469C39.7678 24.9963 43.9047 27.1316 50.7714 24.9514C58.1513 22.6082 61.6002 17.5001 61.1397 9.69477C59.5204 14.2106 56.6965 16.5811 52.7384 16.8244C50.4808 16.9769 48.4951 15.9665 46.2808 14.8098C42.6936 12.9604 38.5567 10.8251 31.7005 13.002ZM22.9824 33.6594C15.592 36.0059 12.1398 41.1037 12.603 48.9173C14.2196 44.3932 17.0468 42.033 21.0049 41.7897C23.2625 41.6372 25.2586 42.6443 27.4625 43.8043C31.0497 45.6537 35.1866 47.789 42.0533 45.6088C49.4332 43.2657 52.8821 38.1576 52.4216 30.3522C50.8023 34.8681 47.9784 37.2385 44.017 37.4716C41.7595 37.6241 39.7771 36.6239 37.5627 35.4672C34.0204 33.5923 29.8868 31.4672 22.9824 33.6594Z" fill="#01ABFF"/>
</g>
<defs>
<filter id="filter0_d_416_539" x="9.36226" y="6.27987" width="57.8183" height="48.4231" filterUnits="userSpaceOnUse" color-interpolation-filters="sRGB">
<feFlood flood-opacity="0" result="BackgroundImageFix"/>
<feColorMatrix in="SourceAlpha" type="matrix" values="0 0 0 0 0 0 0 0 0 0 0 0 0 0 0 0 0 0 127 0" result="hardAlpha"/>
<feOffset dx="3" dy="3"/>
<feColorMatrix type="matrix" values="0 0 0 0 0 0 0 0 0 0 0 0 0 0 0 0 0 0 1 0"/>
<feBlend mode="normal" in2="BackgroundImageFix" result="effect1_dropShadow_416_539"/>
<feBlend mode="normal" in="SourceGraphic" in2="effect1_dropShadow_416_539" result="shape"/>
</filter>
</defs>
</svg>
