<svg width="318" height="174" viewBox="0 0 318 174" fill="none" xmlns="http://www.w3.org/2000/svg">
<mask id="path-1-inside-1_1577_4763" fill="white">
<path d="M83.5195 25.3691H234.48V81.7809H83.5195V25.3691Z"/>
</mask>
<path d="M83.5195 25.3691H234.48V81.7809H83.5195V25.3691Z" fill="#FFDB33"/>
<path d="M83.5195 25.3691V23.7801H81.9305V25.3691H83.5195ZM234.48 25.3691H236.07V23.7801H234.48V25.3691ZM234.48 81.7809V83.3699H236.07V81.7809H234.48ZM83.5195 81.7809H81.9305V83.3699H83.5195V81.7809ZM83.5195 25.3691V26.9582H234.48V25.3691V23.7801H83.5195V25.3691ZM234.48 25.3691H232.891V81.7809H234.48H236.07V25.3691H234.48ZM234.48 81.7809V80.1918H83.5195V81.7809V83.3699H234.48V81.7809ZM83.5195 81.7809H85.1086V25.3691H83.5195H81.9305V81.7809H83.5195Z" fill="black" mask="url(#path-1-inside-1_1577_4763)"/>
<mask id="path-3-inside-2_1577_4763" fill="white">
<path d="M85.1084 26.958H232.891V50.7939H85.1084V26.958Z"/>
</mask>
<path d="M232.891 50.7939V49.2049H85.1084V50.7939V52.383H232.891V50.7939Z" fill="black" mask="url(#path-3-inside-2_1577_4763)"/>
<rect width="8" height="8" transform="translate(91.4648 34.0815)" fill="black"/>
<rect width="44.4391" height="5" transform="translate(105.821 35.5815)" fill="black"/>
<path d="M219.384 39.2732L221.768 36.8896L224.151 39.2732" stroke="black" stroke-width="1.58906" stroke-linecap="square"/>
<rect width="147.783" height="29.3977" transform="translate(85.1084 50.7939)" fill="white"/>
<rect width="128" height="3" transform="translate(91.4646 57.1504)" fill="black"/>
<rect width="103" height="3" transform="translate(91.4646 63.3281)" fill="black"/>
<rect width="77" height="3" transform="translate(91.4646 69.5063)" fill="black"/>
<mask id="path-6-inside-3_1577_4763" fill="white">
<path d="M83.5195 89.7808H234.48V115.206H83.5195V89.7808Z"/>
</mask>
<path d="M83.5195 89.7808H234.48V115.206H83.5195V89.7808Z" fill="white"/>
<path d="M83.5195 89.7808V88.1917H81.9305V89.7808H83.5195ZM234.48 89.7808H236.07V88.1917H234.48V89.7808ZM234.48 115.206V116.795H236.07V115.206H234.48ZM83.5195 115.206H81.9305V116.795H83.5195V115.206ZM83.5195 89.7808V91.3698H234.48V89.7808V88.1917H83.5195V89.7808ZM234.48 89.7808H232.891V115.206H234.48H236.07V89.7808H234.48ZM234.48 115.206V113.617H83.5195V115.206V116.795H234.48V115.206ZM83.5195 115.206H85.1086V89.7808H83.5195H81.9305V115.206H83.5195Z" fill="black" mask="url(#path-6-inside-3_1577_4763)"/>
<mask id="path-8-inside-4_1577_4763" fill="white">
<path d="M91.4648 98.4932H99.4648V106.493H91.4648V98.4932Z"/>
</mask>
<path d="M91.4648 98.4932H99.4648V106.493H91.4648V98.4932Z" fill="#FFDB33"/>
<path d="M91.4648 98.4932V97.6986H90.6703V98.4932H91.4648ZM99.4648 98.4932H100.259V97.6986H99.4648V98.4932ZM99.4648 106.493V107.288H100.259V106.493H99.4648ZM91.4648 106.493H90.6703V107.288H91.4648V106.493ZM91.4648 98.4932V99.2877H99.4648V98.4932V97.6986H91.4648V98.4932ZM99.4648 98.4932H98.6703V106.493H99.4648H100.259V98.4932H99.4648ZM99.4648 106.493V105.699H91.4648V106.493V107.288H99.4648V106.493ZM91.4648 106.493H92.2594V98.4932H91.4648H90.6703V106.493H91.4648Z" fill="black" mask="url(#path-8-inside-4_1577_4763)"/>
<rect width="38.0828" height="5" transform="translate(105.821 99.9932)" fill="black"/>
<path d="M219.384 101.302L221.768 103.685L224.151 101.302" stroke="black" stroke-width="1.58906" stroke-linecap="square"/>
<mask id="path-11-inside-5_1577_4763" fill="white">
<path d="M83.5195 123.206H234.48V148.631H83.5195V123.206Z"/>
</mask>
<path d="M83.5195 123.206H234.48V148.631H83.5195V123.206Z" fill="white"/>
<path d="M83.5195 123.206V121.617H81.9305V123.206H83.5195ZM234.48 123.206H236.07V121.617H234.48V123.206ZM234.48 148.631V150.22H236.07V148.631H234.48ZM83.5195 148.631H81.9305V150.22H83.5195V148.631ZM83.5195 123.206V124.795H234.48V123.206V121.617H83.5195V123.206ZM234.48 123.206H232.891V148.631H234.48H236.07V123.206H234.48ZM234.48 148.631V147.042H83.5195V148.631V150.22H234.48V148.631ZM83.5195 148.631H85.1086V123.206H83.5195H81.9305V148.631H83.5195Z" fill="black" mask="url(#path-11-inside-5_1577_4763)"/>
<mask id="path-13-inside-6_1577_4763" fill="white">
<path d="M91.4648 131.918H99.4648V139.918H91.4648V131.918Z"/>
</mask>
<path d="M91.4648 131.918H99.4648V139.918H91.4648V131.918Z" fill="#FFDB33"/>
<path d="M91.4648 131.918V131.124H90.6703V131.918H91.4648ZM99.4648 131.918H100.259V131.124H99.4648V131.918ZM99.4648 139.918V140.713H100.259V139.918H99.4648ZM91.4648 139.918H90.6703V140.713H91.4648V139.918ZM91.4648 131.918V132.713H99.4648V131.918V131.124H91.4648V131.918ZM99.4648 131.918H98.6703V139.918H99.4648H100.259V131.918H99.4648ZM99.4648 139.918V139.124H91.4648V139.918V140.713H99.4648V139.918ZM91.4648 139.918H92.2594V131.918H91.4648H90.6703V139.918H91.4648Z" fill="black" mask="url(#path-13-inside-6_1577_4763)"/>
<rect width="50.7953" height="5" transform="translate(105.821 133.418)" fill="black"/>
<path d="M219.384 134.727L221.768 137.11L224.151 134.727" stroke="black" stroke-width="1.58906" stroke-linecap="square"/>
</svg>
