<svg width="318" height="174" viewBox="0 0 318 174" fill="none" xmlns="http://www.w3.org/2000/svg">
<mask id="path-1-inside-1_1577_4794" fill="white">
<path d="M83.5134 44.8623H234.474V82.9998H83.5134V44.8623Z"/>
</mask>
<path d="M83.5134 44.8623H234.474V82.9998H83.5134V44.8623Z" fill="#FFDB33"/>
<path d="M83.5134 44.8623V43.2732H81.9244V44.8623H83.5134ZM234.474 44.8623H236.063V43.2732H234.474V44.8623ZM234.474 82.9998V84.5889H236.063V82.9998H234.474ZM83.5134 82.9998H81.9244V84.5889H83.5134V82.9998ZM83.5134 44.8623V46.4514H234.474V44.8623V43.2732H83.5134V44.8623ZM234.474 44.8623H232.885V82.9998H234.474H236.063V44.8623H234.474ZM234.474 82.9998V81.4107H83.5134V82.9998V84.5889H234.474V82.9998ZM83.5134 82.9998H85.1025V44.8623H83.5134H81.9244V82.9998H83.5134Z" fill="black" mask="url(#path-1-inside-1_1577_4794)"/>
<rect width="19.0687" height="19.0687" transform="translate(93.0476 54.3965)" fill="black"/>
<g clip-path="url(#clip0_1577_4794)">
<path d="M102.582 62.3416V63.9307M102.582 65.5197H102.586M99.3443 62.588C99.2863 62.3268 99.2952 62.0552 99.3702 61.7983C99.4451 61.5415 99.5837 61.3077 99.7731 61.1188C99.9625 60.9298 100.197 60.7917 100.454 60.7172C100.711 60.6428 100.982 60.6345 101.243 60.693C101.387 60.4683 101.585 60.2833 101.819 60.1552C102.053 60.0271 102.315 59.96 102.582 59.96C102.849 59.96 103.111 60.0271 103.345 60.1552C103.579 60.2833 103.777 60.4683 103.921 60.693C104.182 60.6342 104.454 60.6425 104.712 60.7171C104.969 60.7917 105.203 60.9302 105.393 61.1197C105.582 61.3092 105.721 61.5436 105.796 61.801C105.87 62.0584 105.878 62.3305 105.82 62.5919C106.044 62.7356 106.229 62.9336 106.357 63.1675C106.486 63.4015 106.553 63.664 106.553 63.9307C106.553 64.1975 106.486 64.4599 106.357 64.6939C106.229 64.9279 106.044 65.1258 105.82 65.2695C105.878 65.5306 105.87 65.8022 105.795 66.0592C105.721 66.3162 105.583 66.5502 105.394 66.7396C105.205 66.929 104.971 67.0676 104.714 67.1425C104.458 67.2175 104.186 67.2264 103.925 67.1684C103.781 67.394 103.583 67.5798 103.349 67.7084C103.114 67.8371 102.851 67.9046 102.584 67.9046C102.317 67.9046 102.054 67.8371 101.819 67.7084C101.585 67.5798 101.387 67.394 101.243 67.1684C100.982 67.227 100.711 67.2186 100.454 67.1442C100.197 67.0698 99.9625 66.9317 99.7731 66.7427C99.5837 66.5537 99.4451 66.3199 99.3702 66.0631C99.2952 65.8063 99.2863 65.5347 99.3443 65.2735C99.1178 65.1302 98.9313 64.9319 98.802 64.6971C98.6728 64.4624 98.605 64.1987 98.605 63.9307C98.605 63.6627 98.6728 63.3991 98.802 63.1643C98.9313 62.9295 99.1178 62.7313 99.3443 62.588Z" stroke="#FFDB33" stroke-width="0.794531" stroke-linecap="round" stroke-linejoin="round"/>
</g>
<rect width="51" height="5" transform="translate(124.829 54.3965)" fill="black"/>
<rect width="77" height="3" transform="translate(124.829 64.1636)" fill="black"/>
<rect width="51" height="3" transform="translate(124.829 70.3418)" fill="black"/>
<g clip-path="url(#clip1_1577_4794)">
<path d="M215.406 55.9854L220.173 60.7525M220.173 55.9854L215.406 60.7525" stroke="black" stroke-width="1.1918" stroke-linecap="square"/>
</g>
<mask id="path-5-inside-2_1577_4794" fill="white">
<path d="M83.5134 91H234.474V129.137H83.5134V91Z"/>
</mask>
<path d="M83.5134 91H234.474V129.137H83.5134V91Z" fill="white"/>
<path d="M83.5134 91V89.4109H81.9244V91H83.5134ZM234.474 91H236.063V89.4109H234.474V91ZM234.474 129.137V130.727H236.063V129.137H234.474ZM83.5134 129.137H81.9244V130.727H83.5134V129.137ZM83.5134 91V92.5891H234.474V91V89.4109H83.5134V91ZM234.474 91H232.885V129.137H234.474H236.063V91H234.474ZM234.474 129.137V127.548H83.5134V129.137V130.727H234.474V129.137ZM83.5134 129.137H85.1025V91H83.5134H81.9244V129.137H83.5134Z" fill="black" mask="url(#path-5-inside-2_1577_4794)"/>
<rect x="93.6435" y="101.13" width="17.877" height="17.877" fill="#FFDB33"/>
<rect x="93.6435" y="101.13" width="17.877" height="17.877" stroke="black" stroke-width="1.1918"/>
<g clip-path="url(#clip2_1577_4794)">
<path d="M102.582 108.479V110.068M102.582 111.657H102.586M99.3443 108.726C99.2863 108.464 99.2952 108.193 99.3702 107.936C99.4451 107.679 99.5837 107.445 99.7731 107.256C99.9625 107.067 100.197 106.929 100.454 106.855C100.711 106.78 100.982 106.772 101.243 106.831C101.387 106.606 101.585 106.421 101.819 106.293C102.053 106.165 102.315 106.098 102.582 106.098C102.849 106.098 103.111 106.165 103.345 106.293C103.579 106.421 103.777 106.606 103.921 106.831C104.182 106.772 104.454 106.78 104.712 106.855C104.969 106.929 105.203 107.068 105.393 107.257C105.582 107.447 105.721 107.681 105.796 107.939C105.87 108.196 105.878 108.468 105.82 108.73C106.044 108.873 106.229 109.071 106.357 109.305C106.486 109.539 106.553 109.802 106.553 110.068C106.553 110.335 106.486 110.598 106.357 110.832C106.229 111.066 106.044 111.264 105.82 111.407C105.878 111.668 105.87 111.94 105.795 112.197C105.721 112.454 105.583 112.688 105.394 112.877C105.205 113.067 104.971 113.205 104.714 113.28C104.458 113.355 104.186 113.364 103.925 113.306C103.781 113.532 103.583 113.717 103.349 113.846C103.114 113.975 102.851 114.042 102.584 114.042C102.317 114.042 102.054 113.975 101.819 113.846C101.585 113.717 101.387 113.532 101.243 113.306C100.982 113.365 100.711 113.356 100.454 113.282C100.197 113.207 99.9625 113.069 99.7731 112.88C99.5837 112.691 99.4451 112.458 99.3702 112.201C99.2952 111.944 99.2863 111.672 99.3443 111.411C99.1178 111.268 98.9313 111.07 98.802 110.835C98.6728 110.6 98.605 110.336 98.605 110.068C98.605 109.8 98.6728 109.537 98.802 109.302C98.9313 109.067 99.1178 108.869 99.3443 108.726Z" stroke="black" stroke-width="0.794531" stroke-linecap="round" stroke-linejoin="round"/>
</g>
<rect width="51" height="5" transform="translate(124.829 100.534)" fill="black"/>
<rect width="77" height="3" transform="translate(124.829 110.301)" fill="black"/>
<rect width="51" height="3" transform="translate(124.829 116.479)" fill="black"/>
<g clip-path="url(#clip3_1577_4794)">
<path d="M215.406 102.124L220.173 106.891M220.173 102.124L215.406 106.891" stroke="black" stroke-width="1.1918" stroke-linecap="square"/>
</g>
<defs>
<clipPath id="clip0_1577_4794">
<rect width="9.53437" height="9.53437" fill="white" transform="translate(97.8147 59.1636)"/>
</clipPath>
<clipPath id="clip1_1577_4794">
<rect width="7.94531" height="7.94531" fill="white" transform="translate(213.816 54.3965)"/>
</clipPath>
<clipPath id="clip2_1577_4794">
<rect width="9.53437" height="9.53437" fill="white" transform="translate(97.8147 105.301)"/>
</clipPath>
<clipPath id="clip3_1577_4794">
<rect width="7.94531" height="7.94531" fill="white" transform="translate(213.816 100.534)"/>
</clipPath>
</defs>
</svg>
