<svg width="318" height="174" viewBox="0 0 318 174" fill="none" xmlns="http://www.w3.org/2000/svg">
<path d="M126.159 75.48C135.923 75.48 143.838 83.3943 143.838 93.1577C143.838 102.921 135.923 110.836 126.159 110.836C116.396 110.836 108.481 102.921 108.481 93.1577C108.482 83.3944 116.396 75.4801 126.159 75.48Z" fill="#FFDB33"/>
<path d="M126.159 75.48C135.923 75.48 143.838 83.3943 143.838 93.1577C143.838 102.921 135.923 110.836 126.159 110.836C116.396 110.836 108.481 102.921 108.481 93.1577C108.482 83.3944 116.396 75.4801 126.159 75.48Z" stroke="black" stroke-width="1.58906"/>
<path d="M131.074 98.6961V97.4653C131.074 96.8125 130.815 96.1865 130.353 95.7248C129.892 95.2632 129.266 95.0039 128.613 95.0039H123.69C123.037 95.0039 122.411 95.2632 121.949 95.7248C121.488 96.1865 121.229 96.8125 121.229 97.4653V98.6961" stroke="black" stroke-width="1.5384" stroke-linecap="round"/>
<path d="M126.151 92.5425C127.511 92.5425 128.613 91.4405 128.613 90.0811C128.613 88.7217 127.511 87.6196 126.151 87.6196C124.792 87.6196 123.69 88.7217 123.69 90.0811C123.69 91.4405 124.792 92.5425 126.151 92.5425Z" stroke="black" stroke-width="1.5384" stroke-linecap="round"/>
<path d="M191.841 75.48C201.604 75.48 209.519 83.3943 209.519 93.1577C209.519 102.921 201.604 110.836 191.841 110.836C182.077 110.836 174.163 102.921 174.163 93.1577C174.163 83.3944 182.077 75.4801 191.841 75.48Z" fill="#FFDB33"/>
<path d="M191.841 75.48C201.604 75.48 209.519 83.3943 209.519 93.1577C209.519 102.921 201.604 110.836 191.841 110.836C182.077 110.836 174.163 102.921 174.163 93.1577C174.163 83.3944 182.077 75.4801 191.841 75.48Z" stroke="black" stroke-width="1.58906"/>
<path d="M196.756 98.6961V97.4653C196.756 96.8125 196.496 96.1865 196.035 95.7248C195.573 95.2632 194.947 95.0039 194.294 95.0039H189.371C188.719 95.0039 188.092 95.2632 187.631 95.7248C187.169 96.1865 186.91 96.8125 186.91 97.4653V98.6961" stroke="black" stroke-width="1.5384" stroke-linecap="round"/>
<path d="M191.833 92.5425C193.192 92.5425 194.294 91.4405 194.294 90.0811C194.294 88.7217 193.192 87.6196 191.833 87.6196C190.474 87.6196 189.372 88.7217 189.372 90.0811C189.372 91.4405 190.474 92.5425 191.833 92.5425Z" stroke="black" stroke-width="1.5384" stroke-linecap="round"/>
<path d="M159 63.561C171.945 63.5612 182.439 74.0558 182.439 87.0005C182.439 99.945 171.945 110.439 159 110.439C146.056 110.439 135.561 99.9451 135.561 87.0005C135.561 74.0557 146.055 63.561 159 63.561Z" fill="#FFDB33"/>
<path d="M159 63.561C171.945 63.5612 182.439 74.0558 182.439 87.0005C182.439 99.945 171.945 110.439 159 110.439C146.056 110.439 135.561 99.9451 135.561 87.0005C135.561 74.0557 146.055 63.561 159 63.561Z" stroke="black" stroke-width="2.38359"/>
<path d="M165.564 94.3843V92.7434C165.564 91.8729 165.218 91.0382 164.602 90.4227C163.987 89.8072 163.152 89.4614 162.282 89.4614H155.718C154.848 89.4614 154.013 89.8072 153.397 90.4227C152.782 91.0382 152.436 91.8729 152.436 92.7434V94.3843" stroke="black" stroke-width="2.0512" stroke-linecap="round"/>
<path d="M159 86.1796C160.812 86.1796 162.282 84.7102 162.282 82.8976C162.282 81.0851 160.812 79.6157 159 79.6157C157.187 79.6157 155.718 81.0851 155.718 82.8976C155.718 84.7102 157.187 86.1796 159 86.1796Z" stroke="black" stroke-width="2.0512" stroke-linecap="round"/>
</svg>
