<svg width="318" height="174" viewBox="0 0 318 174" fill="none" xmlns="http://www.w3.org/2000/svg">
<mask id="path-1-inside-1_1577_4911" fill="white">
<path d="M99.4041 42.5063H218.584V131.494H99.4041V42.5063Z"/>
</mask>
<path d="M99.4041 42.5063H218.584V131.494H99.4041V42.5063Z" fill="white"/>
<path d="M99.4041 42.5063V40.9173H97.815V42.5063H99.4041ZM218.584 42.5063H220.173V40.9173H218.584V42.5063ZM218.584 131.494V133.083H220.173V131.494H218.584ZM99.4041 131.494H97.815V133.083H99.4041V131.494ZM99.4041 42.5063V44.0954H218.584V42.5063V40.9173H99.4041V42.5063ZM218.584 42.5063H216.995V131.494H218.584H220.173V42.5063H218.584ZM218.584 131.494V129.905H99.4041V131.494V133.083H218.584V131.494ZM99.4041 131.494H100.993V42.5063H99.4041H97.815V131.494H99.4041Z" fill="black" mask="url(#path-1-inside-1_1577_4911)"/>
<mask id="path-3-inside-2_1577_4911" fill="white">
<path d="M100.993 44.0952H216.994V66.3421H100.993V44.0952Z"/>
</mask>
<path d="M100.993 44.0952H216.994V66.3421H100.993V44.0952Z" fill="#FFDB33"/>
<path d="M216.994 66.3421V64.753H100.993V66.3421V67.9312H216.994V66.3421Z" fill="black" mask="url(#path-3-inside-2_1577_4911)"/>
<path d="M116.486 56.8077L114.103 54.4241L116.486 52.0405" stroke="black" stroke-width="0.794531" stroke-linecap="round" stroke-linejoin="round"/>
<rect width="38.1375" height="3.17812" transform="translate(139.925 52.835)" fill="black"/>
<path d="M201.501 56.8077L203.885 54.4241L201.501 52.0405" stroke="black" stroke-width="0.794531" stroke-linecap="round" stroke-linejoin="round"/>
<mask id="path-7-inside-3_1577_4911" fill="white">
<path d="M105.76 71.1094H116.883V82.2328H105.76V71.1094Z"/>
</mask>
<path d="M105.76 71.1094H116.883V82.2328H105.76V71.1094Z" fill="white"/>
<path d="M105.76 71.1094V70.3148H104.965V71.1094H105.76ZM116.883 71.1094H117.678V70.3148H116.883V71.1094ZM116.883 82.2328V83.0273H117.678V82.2328H116.883ZM105.76 82.2328H104.965V83.0273H105.76V82.2328ZM105.76 71.1094V71.9039H116.883V71.1094V70.3148H105.76V71.1094ZM116.883 71.1094H116.089V82.2328H116.883H117.678V71.1094H116.883ZM116.883 82.2328V81.4383H105.76V82.2328V83.0273H116.883V82.2328ZM105.76 82.2328H106.555V71.1094H105.76H104.965V82.2328H105.76Z" fill="black" fill-opacity="0.2" mask="url(#path-7-inside-3_1577_4911)"/>
<mask id="path-9-inside-4_1577_4911" fill="white">
<path d="M121.415 71.1094H132.538V82.2328H121.415V71.1094Z"/>
</mask>
<path d="M121.415 71.1094H132.538V82.2328H121.415V71.1094Z" fill="white"/>
<path d="M121.415 71.1094V70.3148H120.62V71.1094H121.415ZM132.538 71.1094H133.333V70.3148H132.538V71.1094ZM132.538 82.2328V83.0273H133.333V82.2328H132.538ZM121.415 82.2328H120.62V83.0273H121.415V82.2328ZM121.415 71.1094V71.9039H132.538V71.1094V70.3148H121.415V71.1094ZM132.538 71.1094H131.744V82.2328H132.538H133.333V71.1094H132.538ZM132.538 82.2328V81.4383H121.415V82.2328V83.0273H132.538V82.2328ZM121.415 82.2328H122.209V71.1094H121.415H120.62V82.2328H121.415Z" fill="black" fill-opacity="0.2" mask="url(#path-9-inside-4_1577_4911)"/>
<mask id="path-11-inside-5_1577_4911" fill="white">
<path d="M137.082 71.1094H148.205V82.2328H137.082V71.1094Z"/>
</mask>
<path d="M137.082 71.1094H148.205V82.2328H137.082V71.1094Z" fill="white"/>
<path d="M137.082 71.1094V70.3148H136.288V71.1094H137.082ZM148.205 71.1094H149V70.3148H148.205V71.1094ZM148.205 82.2328V83.0273H149V82.2328H148.205ZM137.082 82.2328H136.288V83.0273H137.082V82.2328ZM137.082 71.1094V71.9039H148.205V71.1094V70.3148H137.082V71.1094ZM148.205 71.1094H147.411V82.2328H148.205H149V71.1094H148.205ZM148.205 82.2328V81.4383H137.082V82.2328V83.0273H148.205V82.2328ZM137.082 82.2328H137.877V71.1094H137.082H136.288V82.2328H137.082Z" fill="black" fill-opacity="0.2" mask="url(#path-11-inside-5_1577_4911)"/>
<mask id="path-13-inside-6_1577_4911" fill="white">
<path d="M152.749 71.1094H163.872V82.2328H152.749V71.1094Z"/>
</mask>
<path d="M152.749 71.1094H163.872V82.2328H152.749V71.1094Z" fill="white"/>
<path d="M152.749 71.1094V70.3148H151.954V71.1094H152.749ZM163.872 71.1094H164.667V70.3148H163.872V71.1094ZM163.872 82.2328V83.0273H164.667V82.2328H163.872ZM152.749 82.2328H151.954V83.0273H152.749V82.2328ZM152.749 71.1094V71.9039H163.872V71.1094V70.3148H152.749V71.1094ZM163.872 71.1094H163.078V82.2328H163.872H164.667V71.1094H163.872ZM163.872 82.2328V81.4383H152.749V82.2328V83.0273H163.872V82.2328ZM152.749 82.2328H153.544V71.1094H152.749H151.954V82.2328H152.749Z" fill="black" fill-opacity="0.2" mask="url(#path-13-inside-6_1577_4911)"/>
<mask id="path-15-inside-7_1577_4911" fill="white">
<path d="M168.404 71.1094H179.527V82.2328H168.404V71.1094Z"/>
</mask>
<path d="M168.404 71.1094H179.527V82.2328H168.404V71.1094Z" fill="white"/>
<path d="M168.404 71.1094V70.3148H167.609V71.1094H168.404ZM179.527 71.1094H180.322V70.3148H179.527V71.1094ZM179.527 82.2328V83.0273H180.322V82.2328H179.527ZM168.404 82.2328H167.609V83.0273H168.404V82.2328ZM168.404 71.1094V71.9039H179.527V71.1094V70.3148H168.404V71.1094ZM179.527 71.1094H178.733V82.2328H179.527H180.322V71.1094H179.527ZM179.527 82.2328V81.4383H168.404V82.2328V83.0273H179.527V82.2328ZM168.404 82.2328H169.198V71.1094H168.404H167.609V82.2328H168.404Z" fill="black" fill-opacity="0.2" mask="url(#path-15-inside-7_1577_4911)"/>
<mask id="path-17-inside-8_1577_4911" fill="white">
<path d="M184.071 71.1094H195.195V82.2328H184.071V71.1094Z"/>
</mask>
<path d="M184.071 71.1094H195.195V82.2328H184.071V71.1094Z" fill="white"/>
<path d="M184.071 71.1094V70.3148H183.277V71.1094H184.071ZM195.195 71.1094H195.989V70.3148H195.195V71.1094ZM195.195 82.2328V83.0273H195.989V82.2328H195.195ZM184.071 82.2328H183.277V83.0273H184.071V82.2328ZM184.071 71.1094V71.9039H195.195V71.1094V70.3148H184.071V71.1094ZM195.195 71.1094H194.4V82.2328H195.195H195.989V71.1094H195.195ZM195.195 82.2328V81.4383H184.071V82.2328V83.0273H195.195V82.2328ZM184.071 82.2328H184.866V71.1094H184.071H183.277V82.2328H184.071Z" fill="black" fill-opacity="0.2" mask="url(#path-17-inside-8_1577_4911)"/>
<mask id="path-19-inside-9_1577_4911" fill="white">
<path d="M199.738 71.1094H210.862V82.2328H199.738V71.1094Z"/>
</mask>
<path d="M199.738 71.1094H210.862V82.2328H199.738V71.1094Z" fill="white"/>
<path d="M199.738 71.1094V70.3148H198.944V71.1094H199.738ZM210.862 71.1094H211.656V70.3148H210.862V71.1094ZM210.862 82.2328V83.0273H211.656V82.2328H210.862ZM199.738 82.2328H198.944V83.0273H199.738V82.2328ZM199.738 71.1094V71.9039H210.862V71.1094V70.3148H199.738V71.1094ZM210.862 71.1094H210.067V82.2328H210.862H211.656V71.1094H210.862ZM210.862 82.2328V81.4383H199.738V82.2328V83.0273H210.862V82.2328ZM199.738 82.2328H200.533V71.1094H199.738H198.944V82.2328H199.738Z" fill="black" fill-opacity="0.2" mask="url(#path-19-inside-9_1577_4911)"/>
<mask id="path-21-inside-10_1577_4911" fill="white">
<path d="M105.76 85.4111H116.883V96.5346H105.76V85.4111Z"/>
</mask>
<path d="M105.76 85.4111H116.883V96.5346H105.76V85.4111Z" fill="white"/>
<path d="M105.76 85.4111V84.6166H104.965V85.4111H105.76ZM116.883 85.4111H117.678V84.6166H116.883V85.4111ZM116.883 96.5346V97.3291H117.678V96.5346H116.883ZM105.76 96.5346H104.965V97.3291H105.76V96.5346ZM105.76 85.4111V86.2057H116.883V85.4111V84.6166H105.76V85.4111ZM116.883 85.4111H116.089V96.5346H116.883H117.678V85.4111H116.883ZM116.883 96.5346V95.74H105.76V96.5346V97.3291H116.883V96.5346ZM105.76 96.5346H106.555V85.4111H105.76H104.965V96.5346H105.76Z" fill="black" fill-opacity="0.2" mask="url(#path-21-inside-10_1577_4911)"/>
<mask id="path-23-inside-11_1577_4911" fill="white">
<path d="M121.415 85.4111H132.538V96.5346H121.415V85.4111Z"/>
</mask>
<path d="M121.415 85.4111H132.538V96.5346H121.415V85.4111Z" fill="white"/>
<path d="M121.415 85.4111V84.6166H120.62V85.4111H121.415ZM132.538 85.4111H133.333V84.6166H132.538V85.4111ZM132.538 96.5346V97.3291H133.333V96.5346H132.538ZM121.415 96.5346H120.62V97.3291H121.415V96.5346ZM121.415 85.4111V86.2057H132.538V85.4111V84.6166H121.415V85.4111ZM132.538 85.4111H131.744V96.5346H132.538H133.333V85.4111H132.538ZM132.538 96.5346V95.74H121.415V96.5346V97.3291H132.538V96.5346ZM121.415 96.5346H122.209V85.4111H121.415H120.62V96.5346H121.415Z" fill="black" fill-opacity="0.2" mask="url(#path-23-inside-11_1577_4911)"/>
<mask id="path-25-inside-12_1577_4911" fill="white">
<path d="M137.082 85.4111H148.205V96.5346H137.082V85.4111Z"/>
</mask>
<path d="M137.082 85.4111H148.205V96.5346H137.082V85.4111Z" fill="white"/>
<path d="M137.082 85.4111V84.6166H136.288V85.4111H137.082ZM148.205 85.4111H149V84.6166H148.205V85.4111ZM148.205 96.5346V97.3291H149V96.5346H148.205ZM137.082 96.5346H136.288V97.3291H137.082V96.5346ZM137.082 85.4111V86.2057H148.205V85.4111V84.6166H137.082V85.4111ZM148.205 85.4111H147.411V96.5346H148.205H149V85.4111H148.205ZM148.205 96.5346V95.74H137.082V96.5346V97.3291H148.205V96.5346ZM137.082 96.5346H137.877V85.4111H137.082H136.288V96.5346H137.082Z" fill="black" fill-opacity="0.2" mask="url(#path-25-inside-12_1577_4911)"/>
<mask id="path-27-inside-13_1577_4911" fill="white">
<path d="M152.749 85.4111H163.872V96.5346H152.749V85.4111Z"/>
</mask>
<path d="M152.749 85.4111H163.872V96.5346H152.749V85.4111Z" fill="white"/>
<path d="M152.749 85.4111V84.6166H151.954V85.4111H152.749ZM163.872 85.4111H164.667V84.6166H163.872V85.4111ZM163.872 96.5346V97.3291H164.667V96.5346H163.872ZM152.749 96.5346H151.954V97.3291H152.749V96.5346ZM152.749 85.4111V86.2057H163.872V85.4111V84.6166H152.749V85.4111ZM163.872 85.4111H163.078V96.5346H163.872H164.667V85.4111H163.872ZM163.872 96.5346V95.74H152.749V96.5346V97.3291H163.872V96.5346ZM152.749 96.5346H153.544V85.4111H152.749H151.954V96.5346H152.749Z" fill="black" fill-opacity="0.2" mask="url(#path-27-inside-13_1577_4911)"/>
<mask id="path-29-inside-14_1577_4911" fill="white">
<path d="M168.404 85.4111H179.527V96.5346H168.404V85.4111Z"/>
</mask>
<path d="M168.404 85.4111H179.527V96.5346H168.404V85.4111Z" fill="white"/>
<path d="M168.404 85.4111V84.6166H167.609V85.4111H168.404ZM179.527 85.4111H180.322V84.6166H179.527V85.4111ZM179.527 96.5346V97.3291H180.322V96.5346H179.527ZM168.404 96.5346H167.609V97.3291H168.404V96.5346ZM168.404 85.4111V86.2057H179.527V85.4111V84.6166H168.404V85.4111ZM179.527 85.4111H178.733V96.5346H179.527H180.322V85.4111H179.527ZM179.527 96.5346V95.74H168.404V96.5346V97.3291H179.527V96.5346ZM168.404 96.5346H169.198V85.4111H168.404H167.609V96.5346H168.404Z" fill="black" fill-opacity="0.2" mask="url(#path-29-inside-14_1577_4911)"/>
<mask id="path-31-inside-15_1577_4911" fill="white">
<path d="M184.071 85.4111H195.195V96.5346H184.071V85.4111Z"/>
</mask>
<path d="M184.071 85.4111H195.195V96.5346H184.071V85.4111Z" fill="white"/>
<path d="M184.071 85.4111V84.6166H183.277V85.4111H184.071ZM195.195 85.4111H195.989V84.6166H195.195V85.4111ZM195.195 96.5346V97.3291H195.989V96.5346H195.195ZM184.071 96.5346H183.277V97.3291H184.071V96.5346ZM184.071 85.4111V86.2057H195.195V85.4111V84.6166H184.071V85.4111ZM195.195 85.4111H194.4V96.5346H195.195H195.989V85.4111H195.195ZM195.195 96.5346V95.74H184.071V96.5346V97.3291H195.195V96.5346ZM184.071 96.5346H184.866V85.4111H184.071H183.277V96.5346H184.071Z" fill="black" fill-opacity="0.2" mask="url(#path-31-inside-15_1577_4911)"/>
<mask id="path-33-inside-16_1577_4911" fill="white">
<path d="M199.738 85.4111H210.862V96.5346H199.738V85.4111Z"/>
</mask>
<path d="M199.738 85.4111H210.862V96.5346H199.738V85.4111Z" fill="white"/>
<path d="M199.738 85.4111V84.6166H198.944V85.4111H199.738ZM210.862 85.4111H211.656V84.6166H210.862V85.4111ZM210.862 96.5346V97.3291H211.656V96.5346H210.862ZM199.738 96.5346H198.944V97.3291H199.738V96.5346ZM199.738 85.4111V86.2057H210.862V85.4111V84.6166H199.738V85.4111ZM210.862 85.4111H210.067V96.5346H210.862H211.656V85.4111H210.862ZM210.862 96.5346V95.74H199.738V96.5346V97.3291H210.862V96.5346ZM199.738 96.5346H200.533V85.4111H199.738H198.944V96.5346H199.738Z" fill="black" fill-opacity="0.2" mask="url(#path-33-inside-16_1577_4911)"/>
<mask id="path-35-inside-17_1577_4911" fill="white">
<path d="M105.76 99.7124H116.883V110.836H105.76V99.7124Z"/>
</mask>
<path d="M105.76 99.7124H116.883V110.836H105.76V99.7124Z" fill="#FFDB33" fill-opacity="0.3"/>
<path d="M105.76 99.7124V98.9179H104.965V99.7124H105.76ZM116.883 99.7124H117.678V98.9179H116.883V99.7124ZM116.883 110.836V111.63H117.678V110.836H116.883ZM105.76 110.836H104.965V111.63H105.76V110.836ZM105.76 99.7124V100.507H116.883V99.7124V98.9179H105.76V99.7124ZM116.883 99.7124H116.089V110.836H116.883H117.678V99.7124H116.883ZM116.883 110.836V110.041H105.76V110.836V111.63H116.883V110.836ZM105.76 110.836H106.555V99.7124H105.76H104.965V110.836H105.76Z" fill="black" fill-opacity="0.3" mask="url(#path-35-inside-17_1577_4911)"/>
<mask id="path-37-inside-18_1577_4911" fill="white">
<path d="M121.415 99.7124H132.538V110.836H121.415V99.7124Z"/>
</mask>
<path d="M121.415 99.7124H132.538V110.836H121.415V99.7124Z" fill="#FFDB33"/>
<path d="M121.415 99.7124V98.1233H119.826V99.7124H121.415ZM132.538 99.7124H134.127V98.1233H132.538V99.7124ZM132.538 110.836V112.425H134.127V110.836H132.538ZM121.415 110.836H119.826V112.425H121.415V110.836ZM121.415 99.7124V101.301H132.538V99.7124V98.1233H121.415V99.7124ZM132.538 99.7124H130.949V110.836H132.538H134.127V99.7124H132.538ZM132.538 110.836V109.247H121.415V110.836V112.425H132.538V110.836ZM121.415 110.836H123.004V99.7124H121.415H119.826V110.836H121.415Z" fill="black" mask="url(#path-37-inside-18_1577_4911)"/>
<mask id="path-39-inside-19_1577_4911" fill="white">
<path d="M137.082 99.7124H148.205V110.836H137.082V99.7124Z"/>
</mask>
<path d="M137.082 99.7124H148.205V110.836H137.082V99.7124Z" fill="#FFDB33" fill-opacity="0.3"/>
<path d="M137.082 99.7124V98.9179H136.288V99.7124H137.082ZM148.205 99.7124H149V98.9179H148.205V99.7124ZM148.205 110.836V111.63H149V110.836H148.205ZM137.082 110.836H136.288V111.63H137.082V110.836ZM137.082 99.7124V100.507H148.205V99.7124V98.9179H137.082V99.7124ZM148.205 99.7124H147.411V110.836H148.205H149V99.7124H148.205ZM148.205 110.836V110.041H137.082V110.836V111.63H148.205V110.836ZM137.082 110.836H137.877V99.7124H137.082H136.288V110.836H137.082Z" fill="black" fill-opacity="0.3" mask="url(#path-39-inside-19_1577_4911)"/>
<mask id="path-41-inside-20_1577_4911" fill="white">
<path d="M152.749 99.7124H163.872V110.836H152.749V99.7124Z"/>
</mask>
<path d="M152.749 99.7124H163.872V110.836H152.749V99.7124Z" fill="white"/>
<path d="M152.749 99.7124V98.9179H151.954V99.7124H152.749ZM163.872 99.7124H164.667V98.9179H163.872V99.7124ZM163.872 110.836V111.63H164.667V110.836H163.872ZM152.749 110.836H151.954V111.63H152.749V110.836ZM152.749 99.7124V100.507H163.872V99.7124V98.9179H152.749V99.7124ZM163.872 99.7124H163.078V110.836H163.872H164.667V99.7124H163.872ZM163.872 110.836V110.041H152.749V110.836V111.63H163.872V110.836ZM152.749 110.836H153.544V99.7124H152.749H151.954V110.836H152.749Z" fill="black" fill-opacity="0.2" mask="url(#path-41-inside-20_1577_4911)"/>
<mask id="path-43-inside-21_1577_4911" fill="white">
<path d="M168.404 99.7124H179.527V110.836H168.404V99.7124Z"/>
</mask>
<path d="M168.404 99.7124H179.527V110.836H168.404V99.7124Z" fill="white"/>
<path d="M168.404 99.7124V98.9179H167.609V99.7124H168.404ZM179.527 99.7124H180.322V98.9179H179.527V99.7124ZM179.527 110.836V111.63H180.322V110.836H179.527ZM168.404 110.836H167.609V111.63H168.404V110.836ZM168.404 99.7124V100.507H179.527V99.7124V98.9179H168.404V99.7124ZM179.527 99.7124H178.733V110.836H179.527H180.322V99.7124H179.527ZM179.527 110.836V110.041H168.404V110.836V111.63H179.527V110.836ZM168.404 110.836H169.198V99.7124H168.404H167.609V110.836H168.404Z" fill="black" fill-opacity="0.2" mask="url(#path-43-inside-21_1577_4911)"/>
<mask id="path-45-inside-22_1577_4911" fill="white">
<path d="M184.071 99.7124H195.195V110.836H184.071V99.7124Z"/>
</mask>
<path d="M184.071 99.7124H195.195V110.836H184.071V99.7124Z" fill="white"/>
<path d="M184.071 99.7124V98.9179H183.277V99.7124H184.071ZM195.195 99.7124H195.989V98.9179H195.195V99.7124ZM195.195 110.836V111.63H195.989V110.836H195.195ZM184.071 110.836H183.277V111.63H184.071V110.836ZM184.071 99.7124V100.507H195.195V99.7124V98.9179H184.071V99.7124ZM195.195 99.7124H194.4V110.836H195.195H195.989V99.7124H195.195ZM195.195 110.836V110.041H184.071V110.836V111.63H195.195V110.836ZM184.071 110.836H184.866V99.7124H184.071H183.277V110.836H184.071Z" fill="black" fill-opacity="0.2" mask="url(#path-45-inside-22_1577_4911)"/>
<mask id="path-47-inside-23_1577_4911" fill="white">
<path d="M199.738 99.7124H210.862V110.836H199.738V99.7124Z"/>
</mask>
<path d="M199.738 99.7124H210.862V110.836H199.738V99.7124Z" fill="white"/>
<path d="M199.738 99.7124V98.9179H198.944V99.7124H199.738ZM210.862 99.7124H211.656V98.9179H210.862V99.7124ZM210.862 110.836V111.63H211.656V110.836H210.862ZM199.738 110.836H198.944V111.63H199.738V110.836ZM199.738 99.7124V100.507H210.862V99.7124V98.9179H199.738V99.7124ZM210.862 99.7124H210.067V110.836H210.862H211.656V99.7124H210.862ZM210.862 110.836V110.041H199.738V110.836V111.63H210.862V110.836ZM199.738 110.836H200.533V99.7124H199.738H198.944V110.836H199.738Z" fill="black" fill-opacity="0.2" mask="url(#path-47-inside-23_1577_4911)"/>
<mask id="path-49-inside-24_1577_4911" fill="white">
<path d="M105.76 114.014H116.883V125.138H105.76V114.014Z"/>
</mask>
<path d="M105.76 114.014H116.883V125.138H105.76V114.014Z" fill="white"/>
<path d="M105.76 114.014V113.22H104.965V114.014H105.76ZM116.883 114.014H117.678V113.22H116.883V114.014ZM116.883 125.138V125.932H117.678V125.138H116.883ZM105.76 125.138H104.965V125.932H105.76V125.138ZM105.76 114.014V114.809H116.883V114.014V113.22H105.76V114.014ZM116.883 114.014H116.089V125.138H116.883H117.678V114.014H116.883ZM116.883 125.138V124.343H105.76V125.138V125.932H116.883V125.138ZM105.76 125.138H106.555V114.014H105.76H104.965V125.138H105.76Z" fill="black" fill-opacity="0.2" mask="url(#path-49-inside-24_1577_4911)"/>
<mask id="path-51-inside-25_1577_4911" fill="white">
<path d="M121.415 114.014H132.538V125.138H121.415V114.014Z"/>
</mask>
<path d="M121.415 114.014H132.538V125.138H121.415V114.014Z" fill="white"/>
<path d="M121.415 114.014V113.22H120.62V114.014H121.415ZM132.538 114.014H133.333V113.22H132.538V114.014ZM132.538 125.138V125.932H133.333V125.138H132.538ZM121.415 125.138H120.62V125.932H121.415V125.138ZM121.415 114.014V114.809H132.538V114.014V113.22H121.415V114.014ZM132.538 114.014H131.744V125.138H132.538H133.333V114.014H132.538ZM132.538 125.138V124.343H121.415V125.138V125.932H132.538V125.138ZM121.415 125.138H122.209V114.014H121.415H120.62V125.138H121.415Z" fill="black" fill-opacity="0.2" mask="url(#path-51-inside-25_1577_4911)"/>
<mask id="path-53-inside-26_1577_4911" fill="white">
<path d="M137.082 114.014H148.205V125.138H137.082V114.014Z"/>
</mask>
<path d="M137.082 114.014H148.205V125.138H137.082V114.014Z" fill="white"/>
<path d="M137.082 114.014V113.22H136.288V114.014H137.082ZM148.205 114.014H149V113.22H148.205V114.014ZM148.205 125.138V125.932H149V125.138H148.205ZM137.082 125.138H136.288V125.932H137.082V125.138ZM137.082 114.014V114.809H148.205V114.014V113.22H137.082V114.014ZM148.205 114.014H147.411V125.138H148.205H149V114.014H148.205ZM148.205 125.138V124.343H137.082V125.138V125.932H148.205V125.138ZM137.082 125.138H137.877V114.014H137.082H136.288V125.138H137.082Z" fill="black" fill-opacity="0.2" mask="url(#path-53-inside-26_1577_4911)"/>
<mask id="path-55-inside-27_1577_4911" fill="white">
<path d="M152.749 114.014H163.872V125.138H152.749V114.014Z"/>
</mask>
<path d="M152.749 114.014H163.872V125.138H152.749V114.014Z" fill="white"/>
<path d="M152.749 114.014V113.22H151.954V114.014H152.749ZM163.872 114.014H164.667V113.22H163.872V114.014ZM163.872 125.138V125.932H164.667V125.138H163.872ZM152.749 125.138H151.954V125.932H152.749V125.138ZM152.749 114.014V114.809H163.872V114.014V113.22H152.749V114.014ZM163.872 114.014H163.078V125.138H163.872H164.667V114.014H163.872ZM163.872 125.138V124.343H152.749V125.138V125.932H163.872V125.138ZM152.749 125.138H153.544V114.014H152.749H151.954V125.138H152.749Z" fill="black" fill-opacity="0.2" mask="url(#path-55-inside-27_1577_4911)"/>
<mask id="path-57-inside-28_1577_4911" fill="white">
<path d="M168.404 114.014H179.527V125.138H168.404V114.014Z"/>
</mask>
<path d="M168.404 114.014H179.527V125.138H168.404V114.014Z" fill="white"/>
<path d="M168.404 114.014V113.22H167.609V114.014H168.404ZM179.527 114.014H180.322V113.22H179.527V114.014ZM179.527 125.138V125.932H180.322V125.138H179.527ZM168.404 125.138H167.609V125.932H168.404V125.138ZM168.404 114.014V114.809H179.527V114.014V113.22H168.404V114.014ZM179.527 114.014H178.733V125.138H179.527H180.322V114.014H179.527ZM179.527 125.138V124.343H168.404V125.138V125.932H179.527V125.138ZM168.404 125.138H169.198V114.014H168.404H167.609V125.138H168.404Z" fill="black" fill-opacity="0.2" mask="url(#path-57-inside-28_1577_4911)"/>
<mask id="path-59-inside-29_1577_4911" fill="white">
<path d="M184.071 114.014H195.195V125.138H184.071V114.014Z"/>
</mask>
<path d="M184.071 114.014H195.195V125.138H184.071V114.014Z" fill="white"/>
<path d="M184.071 114.014V113.22H183.277V114.014H184.071ZM195.195 114.014H195.989V113.22H195.195V114.014ZM195.195 125.138V125.932H195.989V125.138H195.195ZM184.071 125.138H183.277V125.932H184.071V125.138ZM184.071 114.014V114.809H195.195V114.014V113.22H184.071V114.014ZM195.195 114.014H194.4V125.138H195.195H195.989V114.014H195.195ZM195.195 125.138V124.343H184.071V125.138V125.932H195.195V125.138ZM184.071 125.138H184.866V114.014H184.071H183.277V125.138H184.071Z" fill="black" fill-opacity="0.2" mask="url(#path-59-inside-29_1577_4911)"/>
<mask id="path-61-inside-30_1577_4911" fill="white">
<path d="M199.738 114.014H210.862V125.138H199.738V114.014Z"/>
</mask>
<path d="M199.738 114.014H210.862V125.138H199.738V114.014Z" fill="white"/>
<path d="M199.738 114.014V113.22H198.944V114.014H199.738ZM210.862 114.014H211.656V113.22H210.862V114.014ZM210.862 125.138V125.932H211.656V125.138H210.862ZM199.738 125.138H198.944V125.932H199.738V125.138ZM199.738 114.014V114.809H210.862V114.014V113.22H199.738V114.014ZM210.862 114.014H210.067V125.138H210.862H211.656V114.014H210.862ZM210.862 125.138V124.343H199.738V125.138V125.932H210.862V125.138ZM199.738 125.138H200.533V114.014H199.738H198.944V125.138H199.738Z" fill="black" fill-opacity="0.2" mask="url(#path-61-inside-30_1577_4911)"/>
</svg>
