<svg width="318" height="174" viewBox="0 0 318 174" fill="none" xmlns="http://www.w3.org/2000/svg">
<g filter="url(#filter0_d_1577_4895)">
<rect x="84" y="29.5" width="150" height="115" fill="white"/>
<rect x="84.795" y="30.295" width="148.41" height="113.41" stroke="black" stroke-width="1.59"/>
<mask id="path-3-inside-1_1577_4895" fill="white">
<path d="M84 31.5H234V87.5H84V31.5Z"/>
</mask>
<path d="M84 31.5H234V87.5H84V31.5Z" fill="#FFDB33"/>
<path d="M234 87.5V85.91H84V87.5V89.09H234V87.5Z" fill="black" mask="url(#path-3-inside-1_1577_4895)"/>
<path d="M165.75 60.9552L163.435 58.6407C163.154 58.3595 162.773 58.2015 162.375 58.2015C161.977 58.2015 161.596 58.3595 161.315 58.6407L154.5 65.4552M153.75 51.9551H164.25C165.078 51.9551 165.75 52.6267 165.75 53.4551V63.9551C165.75 64.7835 165.078 65.4551 164.25 65.4551H153.75C152.922 65.4551 152.25 64.7835 152.25 63.9551V53.4551C152.25 52.6267 152.922 51.9551 153.75 51.9551ZM158.25 56.4551C158.25 57.2835 157.578 57.9551 156.75 57.9551C155.922 57.9551 155.25 57.2835 155.25 56.4551C155.25 55.6267 155.922 54.9551 156.75 54.9551C157.578 54.9551 158.25 55.6267 158.25 56.4551Z" stroke="black" stroke-width="1.5" stroke-linecap="round" stroke-linejoin="round"/>
<rect width="80" height="6" transform="translate(96 99.5)" fill="black"/>
<rect width="122" height="3" transform="translate(96 111.5)" fill="black"/>
<rect width="97.5938" height="3" transform="translate(96 120.5)" fill="black"/>
<rect width="109.797" height="3" transform="translate(96 129.5)" fill="black"/>
</g>
<defs>
<filter id="filter0_d_1577_4895" x="84" y="29.5" width="152" height="117" filterUnits="userSpaceOnUse" color-interpolation-filters="sRGB">
<feFlood flood-opacity="0" result="BackgroundImageFix"/>
<feColorMatrix in="SourceAlpha" type="matrix" values="0 0 0 0 0 0 0 0 0 0 0 0 0 0 0 0 0 0 127 0" result="hardAlpha"/>
<feOffset dx="2" dy="2"/>
<feColorMatrix type="matrix" values="0 0 0 0 0 0 0 0 0 0 0 0 0 0 0 0 0 0 1 0"/>
<feBlend mode="normal" in2="BackgroundImageFix" result="effect1_dropShadow_1577_4895"/>
<feBlend mode="normal" in="SourceGraphic" in2="effect1_dropShadow_1577_4895" result="shape"/>
</filter>
</defs>
</svg>
