<svg width="318" height="174" viewBox="0 0 318 174" fill="none" xmlns="http://www.w3.org/2000/svg">
<g filter="url(#filter0_d_1577_4952)">
<mask id="path-1-inside-1_1577_4952" fill="white">
<path d="M37 75H61V99H37V75Z"/>
</mask>
<path d="M37 75H61V99H37V75Z" fill="black" shape-rendering="crispEdges"/>
<path d="M37 75V73H35V75H37ZM61 75H63V73H61V75ZM61 99V101H63V99H61ZM37 99H35V101H37V99ZM37 75V77H61V75V73H37V75ZM61 75H59V99H61H63V75H61ZM61 99V97H37V99V101H61V99ZM37 99H39V75H37H35V99H37Z" fill="black" mask="url(#path-1-inside-1_1577_4952)"/>
<path d="M50 84L47 87L50 90" stroke="#FFDB33" stroke-width="2" stroke-linecap="square"/>
</g>
<mask id="path-4-inside-2_1577_4952" fill="white">
<path d="M69 47H109V127H69V47Z"/>
</mask>
<path d="M69 47H109V127H69V47Z" fill="#D5D5D5"/>
<path d="M69 47V46H68V47H69ZM109 47H110V46H109V47ZM109 127V128H110V127H109ZM69 127H68V128H69V127ZM69 47V48H109V47V46H69V47ZM109 47H108V127H109H110V47H109ZM109 127V126H69V127V128H109V127ZM69 127H70V47H69H68V127H69Z" fill="#5A5A5A" mask="url(#path-4-inside-2_1577_4952)"/>
<rect width="24" height="12" transform="translate(77 81)" fill="#5A5A5A"/>
<rect x="115.795" y="39.795" width="86.41" height="94.41" fill="#FFDB33"/>
<rect x="115.795" y="39.795" width="86.41" height="94.41" stroke="black" stroke-width="1.59"/>
<rect width="20" height="20" transform="translate(149 65)" fill="black"/>
<path d="M157 72L162 75L157 78V72Z" fill="#FFDB33"/>
<rect width="40" height="5" transform="translate(139 93)" fill="black"/>
<rect width="32" height="3" transform="translate(143 106)" fill="black"/>
<mask id="path-8-inside-3_1577_4952" fill="white">
<path d="M209 47H249V127H209V47Z"/>
</mask>
<path d="M209 47H249V127H209V47Z" fill="#D5D5D5"/>
<path d="M209 47V46H208V47H209ZM249 47H250V46H249V47ZM249 127V128H250V127H249ZM209 127H208V128H209V127ZM209 47V48H249V47V46H209V47ZM249 47H248V127H249H250V47H249ZM249 127V126H209V127V128H249V127ZM209 127H210V47H209H208V127H209Z" fill="#5A5A5A" mask="url(#path-8-inside-3_1577_4952)"/>
<rect width="24" height="12" transform="translate(217 81)" fill="#5A5A5A"/>
<g filter="url(#filter1_d_1577_4952)">
<mask id="path-10-inside-4_1577_4952" fill="white">
<path d="M257 75H281V99H257V75Z"/>
</mask>
<path d="M257 75H281V99H257V75Z" fill="black" shape-rendering="crispEdges"/>
<path d="M257 75V73H255V75H257ZM281 75H283V73H281V75ZM281 99V101H283V99H281ZM257 99H255V101H257V99ZM257 75V77H281V75V73H257V75ZM281 75H279V99H281H283V75H281ZM281 99V97H257V99V101H281V99ZM257 99H259V75H257H255V99H257Z" fill="black" mask="url(#path-10-inside-4_1577_4952)"/>
<path d="M268 84L271 87L268 90" stroke="#FFDB33" stroke-width="2" stroke-linecap="square"/>
</g>
<defs>
<filter id="filter0_d_1577_4952" x="37" y="75" width="25.59" height="25.59" filterUnits="userSpaceOnUse" color-interpolation-filters="sRGB">
<feFlood flood-opacity="0" result="BackgroundImageFix"/>
<feColorMatrix in="SourceAlpha" type="matrix" values="0 0 0 0 0 0 0 0 0 0 0 0 0 0 0 0 0 0 127 0" result="hardAlpha"/>
<feOffset dx="1.59" dy="1.59"/>
<feComposite in2="hardAlpha" operator="out"/>
<feColorMatrix type="matrix" values="0 0 0 0 1 0 0 0 0 0.858824 0 0 0 0 0.2 0 0 0 1 0"/>
<feBlend mode="normal" in2="BackgroundImageFix" result="effect1_dropShadow_1577_4952"/>
<feBlend mode="normal" in="SourceGraphic" in2="effect1_dropShadow_1577_4952" result="shape"/>
</filter>
<filter id="filter1_d_1577_4952" x="257" y="75" width="25.59" height="25.59" filterUnits="userSpaceOnUse" color-interpolation-filters="sRGB">
<feFlood flood-opacity="0" result="BackgroundImageFix"/>
<feColorMatrix in="SourceAlpha" type="matrix" values="0 0 0 0 0 0 0 0 0 0 0 0 0 0 0 0 0 0 127 0" result="hardAlpha"/>
<feOffset dx="1.59" dy="1.59"/>
<feComposite in2="hardAlpha" operator="out"/>
<feColorMatrix type="matrix" values="0 0 0 0 1 0 0 0 0 0.858824 0 0 0 0 0.2 0 0 0 1 0"/>
<feBlend mode="normal" in2="BackgroundImageFix" result="effect1_dropShadow_1577_4952"/>
<feBlend mode="normal" in="SourceGraphic" in2="effect1_dropShadow_1577_4952" result="shape"/>
</filter>
</defs>
</svg>
