<svg width="318" height="174" viewBox="0 0 318 174" fill="none" xmlns="http://www.w3.org/2000/svg">
<rect x="69.795" y="33.2049" width="178.41" height="107.59" stroke="black" stroke-width="1.59"/>
<rect width="76.82" height="106" transform="translate(70.5901 34)" fill="#D5D5D5"/>
<mask id="path-2-inside-1_1577_5040" fill="white">
<path d="M147.41 34H247.41V140H147.41V34Z"/>
</mask>
<path d="M147.41 34H247.41V140H147.41V34Z" fill="white"/>
<path d="M147.41 140H149V34H147.41H145.82V140H147.41Z" fill="black" mask="url(#path-2-inside-1_1577_5040)"/>
<mask id="path-4-inside-2_1577_5040" fill="white">
<path d="M147.41 34H247.41V62H147.41V34Z"/>
</mask>
<path d="M247.41 62V60.41H147.41V62V63.59H247.41V62Z" fill="black" mask="url(#path-4-inside-2_1577_5040)"/>
<rect width="36" height="4" transform="translate(157.41 45.2051)" fill="black"/>
<g clip-path="url(#clip0_1577_5040)">
<path d="M230.91 44.7051L235.91 49.7051M235.91 44.7051L230.91 49.7051" stroke="black" stroke-width="1.2" stroke-linecap="square"/>
</g>
<rect width="60" height="3" transform="translate(157.41 72)" fill="black"/>
<rect width="48" height="3" transform="translate(157.41 84)" fill="black"/>
<rect width="56" height="3" transform="translate(157.41 96)" fill="black"/>
<g filter="url(#filter0_d_1577_5040)">
<rect x="157.41" y="108" width="80" height="22" fill="#FFDB33" shape-rendering="crispEdges"/>
<rect x="158.205" y="108.795" width="78.41" height="20.41" stroke="black" stroke-width="1.59" shape-rendering="crispEdges"/>
<rect width="52.82" height="3" transform="translate(171 117.5)" fill="black"/>
</g>
<defs>
<filter id="filter0_d_1577_5040" x="157.41" y="108" width="81.59" height="23.59" filterUnits="userSpaceOnUse" color-interpolation-filters="sRGB">
<feFlood flood-opacity="0" result="BackgroundImageFix"/>
<feColorMatrix in="SourceAlpha" type="matrix" values="0 0 0 0 0 0 0 0 0 0 0 0 0 0 0 0 0 0 127 0" result="hardAlpha"/>
<feOffset dx="1.59" dy="1.59"/>
<feComposite in2="hardAlpha" operator="out"/>
<feColorMatrix type="matrix" values="0 0 0 0 0 0 0 0 0 0 0 0 0 0 0 0 0 0 1 0"/>
<feBlend mode="normal" in2="BackgroundImageFix" result="effect1_dropShadow_1577_5040"/>
<feBlend mode="normal" in="SourceGraphic" in2="effect1_dropShadow_1577_5040" result="shape"/>
</filter>
<clipPath id="clip0_1577_5040">
<rect width="8" height="8" fill="white" transform="translate(229.41 43.2051)"/>
</clipPath>
</defs>
</svg>
