<svg width="318" height="174" viewBox="0 0 318 174" fill="none" xmlns="http://www.w3.org/2000/svg">
<rect x="137.795" y="34.795" width="42.41" height="42.41" stroke="#D5D5D5" stroke-width="1.59" stroke-dasharray="4 2"/>
<path d="M153 54L159 50L165 54V60L159 64L153 60V54Z" stroke="#D5D5D5" stroke-width="1.5"/>
<path d="M159 59C160.105 59 161 58.1046 161 57C161 55.8954 160.105 55 159 55C157.895 55 157 55.8954 157 57C157 58.1046 157.895 59 159 59Z" stroke="#D5D5D5" stroke-width="1.5"/>
<rect width="64" height="4" transform="translate(127 89)" fill="#D5D5D5"/>
<rect width="96" height="3" transform="translate(111 104)" fill="#D5D5D5"/>
<g filter="url(#filter0_d_1577_5060)">
<rect x="119" y="118" width="80" height="22" fill="#FFDB33" shape-rendering="crispEdges"/>
<rect x="119.795" y="118.795" width="78.41" height="20.41" stroke="black" stroke-width="1.59" shape-rendering="crispEdges"/>
<rect width="52.82" height="3" transform="translate(132.59 127.5)" fill="black"/>
</g>
<defs>
<filter id="filter0_d_1577_5060" x="119" y="118" width="81.59" height="23.59" filterUnits="userSpaceOnUse" color-interpolation-filters="sRGB">
<feFlood flood-opacity="0" result="BackgroundImageFix"/>
<feColorMatrix in="SourceAlpha" type="matrix" values="0 0 0 0 0 0 0 0 0 0 0 0 0 0 0 0 0 0 127 0" result="hardAlpha"/>
<feOffset dx="1.59" dy="1.59"/>
<feComposite in2="hardAlpha" operator="out"/>
<feColorMatrix type="matrix" values="0 0 0 0 0 0 0 0 0 0 0 0 0 0 0 0 0 0 1 0"/>
<feBlend mode="normal" in2="BackgroundImageFix" result="effect1_dropShadow_1577_5060"/>
<feBlend mode="normal" in="SourceGraphic" in2="effect1_dropShadow_1577_5060" result="shape"/>
</filter>
</defs>
</svg>
