<svg width="318" height="174" viewBox="0 0 318 174" fill="none" xmlns="http://www.w3.org/2000/svg">
<mask id="path-1-inside-1_1577_5096" fill="white">
<path d="M103 75H109V81H103V75Z"/>
</mask>
<path d="M103 75H109V81H103V75Z" fill="#FAE583"/>
<path d="M103 75V74H102V75H103ZM109 75H110V74H109V75ZM109 81V82H110V81H109ZM103 81H102V82H103V81ZM103 75V76H109V75V74H103V75ZM109 75H108V81H109H110V75H109ZM109 81V80H103V81V82H109V81ZM103 81H104V75H103H102V81H103Z" fill="black" mask="url(#path-1-inside-1_1577_5096)"/>
<rect width="100" height="4" transform="translate(115 76)" fill="black"/>
<mask id="path-3-inside-2_1577_5096" fill="white">
<path d="M103 93H109V99H103V93Z"/>
</mask>
<path d="M103 93H109V99H103V93Z" fill="#FAE583"/>
<path d="M103 93V92H102V93H103ZM109 93H110V92H109V93ZM109 99V100H110V99H109ZM103 99H102V100H103V99ZM103 93V94H109V93V92H103V93ZM109 93H108V99H109H110V93H109ZM109 99V98H103V99V100H109V99ZM103 99H104V93H103H102V99H103Z" fill="black" mask="url(#path-3-inside-2_1577_5096)"/>
<rect width="100" height="4" transform="translate(115 94)" fill="black"/>
</svg>
