<svg width="318" height="174" viewBox="0 0 318 174" fill="none" xmlns="http://www.w3.org/2000/svg">
<mask id="path-1-inside-1_1577_5186" fill="white">
<path d="M108 57C108 52.0294 112.029 48 117 48C121.971 48 126 52.0294 126 57C126 61.9706 121.971 66 117 66C112.029 66 108 61.9706 108 57Z"/>
</mask>
<path d="M108 57C108 52.0294 112.029 48 117 48C121.971 48 126 52.0294 126 57C126 61.9706 121.971 66 117 66C112.029 66 108 61.9706 108 57Z" fill="white"/>
<path d="M108 57M126 57M126 57M108 57M117 48M126 57M117 66M108 57M117 66V64C113.134 64 110 60.866 110 57H108H106C106 63.0751 110.925 68 117 68V66ZM126 57H124C124 60.866 120.866 64 117 64V66V68C123.075 68 128 63.0751 128 57H126ZM117 48V50C120.866 50 124 53.134 124 57H126H128C128 50.9249 123.075 46 117 46V48ZM117 48V46C110.925 46 106 50.9249 106 57H108H110C110 53.134 113.134 50 117 50V48Z" fill="black" mask="url(#path-1-inside-1_1577_5186)"/>
<rect width="56" height="4" transform="translate(138 55)" fill="black"/>
<mask id="path-3-inside-2_1577_5186" fill="white">
<path d="M108 87C108 82.0294 112.029 78 117 78C121.971 78 126 82.0294 126 87C126 91.9706 121.971 96 117 96C112.029 96 108 91.9706 108 87Z"/>
</mask>
<path d="M108 87C108 82.0294 112.029 78 117 78C121.971 78 126 82.0294 126 87C126 91.9706 121.971 96 117 96C112.029 96 108 91.9706 108 87Z" fill="#FFDB33"/>
<path d="M108 87M126 87M126 87M108 87M117 78M126 87M117 96M108 87M117 96V94C113.134 94 110 90.866 110 87H108H106C106 93.0751 110.925 98 117 98V96ZM126 87H124C124 90.866 120.866 94 117 94V96V98C123.075 98 128 93.0751 128 87H126ZM117 78V80C120.866 80 124 83.134 124 87H126H128C128 80.9249 123.075 76 117 76V78ZM117 78V76C110.925 76 106 80.9249 106 87H108H110C110 83.134 113.134 80 117 80V78Z" fill="black" mask="url(#path-3-inside-2_1577_5186)"/>
<path d="M114 87C114 85.3431 115.343 84 117 84C118.657 84 120 85.3431 120 87C120 88.6569 118.657 90 117 90C115.343 90 114 88.6569 114 87Z" fill="black"/>
<rect width="72" height="4" transform="translate(138 85)" fill="black"/>
<mask id="path-6-inside-3_1577_5186" fill="white">
<path d="M108 117C108 112.029 112.029 108 117 108C121.971 108 126 112.029 126 117C126 121.971 121.971 126 117 126C112.029 126 108 121.971 108 117Z"/>
</mask>
<path d="M108 117C108 112.029 112.029 108 117 108C121.971 108 126 112.029 126 117C126 121.971 121.971 126 117 126C112.029 126 108 121.971 108 117Z" fill="white"/>
<path d="M108 117M126 117M126 117M108 117M117 108M126 117M117 126M108 117M117 126V124C113.134 124 110 120.866 110 117H108H106C106 123.075 110.925 128 117 128V126ZM126 117H124C124 120.866 120.866 124 117 124V126V128C123.075 128 128 123.075 128 117H126ZM117 108V110C120.866 110 124 113.134 124 117H126H128C128 110.925 123.075 106 117 106V108ZM117 108V106C110.925 106 106 110.925 106 117H108H110C110 113.134 113.134 110 117 110V108Z" fill="black" mask="url(#path-6-inside-3_1577_5186)"/>
<rect width="56" height="4" transform="translate(138 115)" fill="black"/>
</svg>
