<svg width="318" height="174" viewBox="0 0 318 174" fill="none" xmlns="http://www.w3.org/2000/svg">
<rect x="95.025" y="70.2049" width="33.59" height="33.59" fill="white"/>
<rect x="95.025" y="70.2049" width="33.59" height="33.59" stroke="black" stroke-width="1.59"/>
<g clip-path="url(#clip0_1577_5369)">
<rect width="12" height="12" transform="translate(105.82 81)" fill="black"/>
<path d="M113.32 86.5H115.57C115.902 86.5 116.22 86.6317 116.454 86.8661C116.688 87.1005 116.82 87.4185 116.82 87.75C116.82 88.0815 116.688 88.3995 116.454 88.6339C116.22 88.8683 115.902 89 115.57 89H113.57C113.504 89 113.44 88.9737 113.393 88.9268C113.346 88.8799 113.32 88.8163 113.32 88.75V84.25C113.32 84.1837 113.346 84.1201 113.393 84.0732C113.44 84.0263 113.504 84 113.57 84H115.07C115.402 84 115.72 84.1317 115.954 84.3661C116.188 84.6005 116.32 84.9185 116.32 85.25C116.32 85.5815 116.188 85.8995 115.954 86.1339C115.72 86.3683 115.402 86.5 115.07 86.5M106.82 89L108.84 84.155C108.859 84.1095 108.891 84.0706 108.932 84.0432C108.973 84.0158 109.021 84.0012 109.07 84.0012C109.12 84.0012 109.168 84.0158 109.209 84.0432C109.25 84.0706 109.282 84.1095 109.301 84.155L111.32 89M107.472 87.5H110.668" stroke="black" stroke-linecap="round" stroke-linejoin="round"/>
</g>
<path d="M175.795 70.2048V103.795H142.205V70.2048H175.795Z" fill="#FFDB33"/>
<path d="M175.795 70.2048V103.795H142.205V70.2048H175.795Z" stroke="black" stroke-width="1.59"/>
<g clip-path="url(#clip1_1577_5369)">
<rect width="12" height="12" transform="translate(153 81)" fill="black"/>
<path d="M160.5 86.5H162.75C163.082 86.5 163.399 86.6317 163.634 86.8661C163.868 87.1005 164 87.4185 164 87.75C164 88.0815 163.868 88.3995 163.634 88.6339C163.399 88.8683 163.082 89 162.75 89H160.75C160.684 89 160.62 88.9737 160.573 88.9268C160.526 88.8799 160.5 88.8163 160.5 88.75V84.25C160.5 84.1837 160.526 84.1201 160.573 84.0732C160.62 84.0263 160.684 84 160.75 84H162.25C162.582 84 162.899 84.1317 163.134 84.3661C163.368 84.6005 163.5 84.9185 163.5 85.25C163.5 85.5815 163.368 85.8995 163.134 86.1339C162.899 86.3683 162.582 86.5 162.25 86.5M154 89L156.019 84.155C156.038 84.1095 156.071 84.0706 156.112 84.0432C156.153 84.0158 156.201 84.0012 156.25 84.0012C156.3 84.0012 156.348 84.0158 156.389 84.0432C156.43 84.0706 156.462 84.1095 156.481 84.155L158.5 89M154.652 87.5H157.848" stroke="black" stroke-linecap="round" stroke-linejoin="round"/>
</g>
<path d="M222.975 70.2048V103.795H189.385V70.2048H222.975Z" fill="white"/>
<path d="M222.975 70.2048V103.795H189.385V70.2048H222.975Z" stroke="#D5D5D5" stroke-width="1.59"/>
<g clip-path="url(#clip2_1577_5369)">
<rect width="12" height="12" transform="translate(200.18 81)" fill="#D5D5D5"/>
<path d="M207.68 86.5H209.93C210.262 86.5 210.58 86.6317 210.814 86.8661C211.048 87.1005 211.18 87.4185 211.18 87.75C211.18 88.0815 211.048 88.3995 210.814 88.6339C210.58 88.8683 210.262 89 209.93 89H207.93C207.864 89 207.8 88.9737 207.753 88.9268C207.707 88.8799 207.68 88.8163 207.68 88.75V84.25C207.68 84.1837 207.707 84.1201 207.753 84.0732C207.8 84.0263 207.864 84 207.93 84H209.43C209.762 84 210.08 84.1317 210.314 84.3661C210.548 84.6005 210.68 84.9185 210.68 85.25C210.68 85.5815 210.548 85.8995 210.314 86.1339C210.08 86.3683 209.762 86.5 209.43 86.5M201.18 89L203.2 84.155C203.219 84.1095 203.251 84.0706 203.292 84.0432C203.333 84.0158 203.381 84.0012 203.43 84.0012C203.48 84.0012 203.528 84.0158 203.569 84.0432C203.61 84.0706 203.642 84.1095 203.661 84.155L205.68 89M201.832 87.5H205.028" stroke="#D5D5D5" stroke-linecap="round" stroke-linejoin="round"/>
</g>
<defs>
<clipPath id="clip0_1577_5369">
<rect width="12" height="12" fill="white" transform="translate(105.82 81)"/>
</clipPath>
<clipPath id="clip1_1577_5369">
<rect width="12" height="12" fill="white" transform="translate(153 81)"/>
</clipPath>
<clipPath id="clip2_1577_5369">
<rect width="12" height="12" fill="white" transform="translate(200.18 81)"/>
</clipPath>
</defs>
</svg>
