<svg width="328" height="237" viewBox="0 0 328 237" fill="none" xmlns="http://www.w3.org/2000/svg">
<path d="M218.599 20.5686C224.961 14.0061 234.624 11.1109 243.971 13.8718C253.235 16.6076 259.78 24.1855 261.681 33.0558" stroke="url(#paint0_linear_229_1427)" stroke-width="1.1497" stroke-miterlimit="10"/>
<path d="M262.907 235.025L106.296 188.777C93.2471 184.925 86.0515 170.869 90.5039 157.937L137.321 21.9364C141.757 9.03795 155.481 1.92156 168.488 5.76508L309.132 47.2969C322.164 51.1488 329.893 64.6347 326.667 77.9108L292.74 217.712C289.521 230.989 275.939 238.869 262.907 235.025Z" fill="white" stroke="url(#paint1_linear_229_1427)" stroke-width="1.1497" stroke-miterlimit="10"/>
<path d="M263.49 229.193L108.931 183.549C98.6416 180.511 92.9719 169.434 96.4821 159.246L143.349 23.0861C146.626 13.5612 156.757 8.30785 166.37 11.1443L308.023 52.9699C317.645 55.8147 323.348 65.7676 320.972 75.5778L287.011 215.547C284.477 226.012 273.771 232.222 263.499 229.193H263.49Z" fill="white" stroke="url(#paint2_linear_229_1427)" stroke-width="1.1497" stroke-miterlimit="10"/>
<path d="M294.541 184.48L106.871 129.068L143.35 23.0944C146.626 13.5695 156.757 8.31615 166.362 11.1526L308.015 52.9782C317.637 55.8147 323.34 65.7759 320.963 75.5861L294.541 184.48Z" stroke="url(#paint3_linear_229_1427)" stroke-width="1.1497" stroke-miterlimit="10"/>
<path d="M293.532 188.643L105.47 133.113L106.871 129.06L294.541 184.48L293.532 188.643Z" stroke="url(#paint4_linear_229_1427)" stroke-width="1.1497" stroke-miterlimit="10"/>
<path d="M261.097 204.881C259.221 211.309 252.526 214.993 246.139 213.105C239.752 211.217 236.092 204.478 237.968 198.05C239.844 191.622 246.539 187.938 252.926 189.826C259.313 191.714 262.973 198.453 261.097 204.881Z" stroke="url(#paint5_linear_229_1427)" stroke-width="0.881156" stroke-miterlimit="10"/>
<path d="M258.012 203.975C256.636 208.691 251.734 211.385 247.048 210C242.37 208.616 239.686 203.681 241.061 198.965C242.437 194.257 247.34 191.555 252.026 192.939C256.703 194.324 259.388 199.267 258.012 203.975Z" stroke="url(#paint6_linear_229_1427)" stroke-width="0.881156" stroke-miterlimit="10"/>
<path d="M263.073 166.748L141.482 130.839C131.401 127.86 125.631 117.227 128.583 107.081L148.052 40.2897C151.012 30.1438 161.576 24.3366 171.657 27.3073L293.248 63.2082C303.329 66.1873 309.098 76.8199 306.147 86.9658L286.678 153.757C283.718 163.903 273.154 169.719 263.073 166.74V166.748Z" stroke="url(#paint7_linear_229_1427)" stroke-width="1.1497" stroke-miterlimit="10"/>
<path d="M254.066 193.525L250.37 192.432L245.391 209.494L249.087 210.586L254.066 193.525Z" stroke="url(#paint8_linear_229_1427)" stroke-width="0.881156" stroke-miterlimit="10"/>
<path d="M279.332 199.04C278.457 202.036 275.338 203.748 272.362 202.867C269.385 201.986 267.684 198.847 268.56 195.851C269.435 192.855 272.554 191.143 275.53 192.025C278.507 192.906 280.208 196.044 279.332 199.04Z" fill="url(#paint9_linear_229_1427)"/>
<path d="M122.713 164.021C120.837 170.449 124.498 177.196 130.884 179.076C137.271 180.964 143.967 177.28 145.843 170.852C147.719 164.424 144.058 157.685 137.671 155.797C131.285 153.908 124.589 157.592 122.713 164.021Z" fill="white" stroke="url(#paint10_linear_229_1427)" stroke-width="1.1497" stroke-miterlimit="10"/>
<path d="M125.798 164.935C124.422 169.643 127.107 174.586 131.785 175.971C136.462 177.347 141.373 174.653 142.749 169.945C144.125 165.229 141.44 160.295 136.763 158.91C132.077 157.525 127.174 160.228 125.798 164.935Z" fill="#01C971"/>
<path d="M129.753 175.369L133.449 176.46L138.422 159.397L134.726 158.306L129.753 175.369Z" fill="white" stroke="url(#paint11_linear_229_1427)" stroke-width="1.1497" stroke-miterlimit="10"/>
<path d="M110.506 149.192C109.631 152.188 111.34 155.327 114.317 156.208C117.294 157.081 120.412 155.369 121.287 152.373C122.163 149.377 120.454 146.238 117.477 145.357C114.5 144.476 111.382 146.196 110.506 149.192Z" fill="url(#paint12_linear_229_1427)"/>
<path d="M218.641 205.326C195.945 202.733 177.743 197.102 157.649 186.981L162.26 158.583L229.03 178.631L218.649 205.326H218.641Z" stroke="url(#paint13_linear_229_1427)" stroke-width="1.1497" stroke-miterlimit="10"/>
<path d="M175.084 33.4334C165.603 30.6305 155.665 36.1021 152.88 45.6437L135.52 105.21C132.744 114.752 138.172 124.755 147.652 127.558L167.071 133.289L194.511 39.1735L175.092 33.4418L175.084 33.4334Z" fill="#01C971"/>
<path d="M194.488 39.1638L167.054 133.282L203.641 144.086L231.075 49.967L194.488 39.1638Z" fill="#FF5C57"/>
<path d="M287.087 66.5061L267.668 60.7744L240.236 154.89L259.655 160.622C269.135 163.425 279.074 157.953 281.859 148.412L299.218 88.8455C301.995 79.3039 296.567 69.3007 287.087 66.4977V66.5061Z" fill="#FFDB33"/>
<path d="M231.076 49.9624L203.643 144.081L240.23 154.884L267.663 60.7655L231.076 49.9624Z" fill="#01ABFF"/>
<path d="M167.004 160.261L162.126 189.473" stroke="url(#paint14_linear_229_1427)" stroke-width="1.1497" stroke-miterlimit="10"/>
<path d="M172.148 161.193L166.879 191.202" stroke="url(#paint15_linear_229_1427)" stroke-width="1.1497" stroke-miterlimit="10"/>
<path d="M178.093 163.45L171.757 192.797" stroke="url(#paint16_linear_229_1427)" stroke-width="1.1497" stroke-miterlimit="10"/>
<path d="M184.555 165.573L177.301 195.717" stroke="url(#paint17_linear_229_1427)" stroke-width="1.1497" stroke-miterlimit="10"/>
<path d="M190.492 167.436L183.238 197.58" stroke="url(#paint18_linear_229_1427)" stroke-width="1.1497" stroke-miterlimit="10"/>
<path d="M197.554 169.358L189.7 199.963" stroke="url(#paint19_linear_229_1427)" stroke-width="1.1497" stroke-miterlimit="10"/>
<path d="M203.266 170.952L195.42 201.558" stroke="url(#paint20_linear_229_1427)" stroke-width="1.1497" stroke-miterlimit="10"/>
<path d="M201.248 202.229L210.545 172.925" stroke="url(#paint21_linear_229_1427)" stroke-width="1.1497" stroke-miterlimit="10"/>
<path d="M206.943 203.732L217.323 174.695" stroke="url(#paint22_linear_229_1427)" stroke-width="1.1497" stroke-miterlimit="10"/>
<path d="M212.22 204.705L223.218 176.995" stroke="url(#paint23_linear_229_1427)" stroke-width="1.1497" stroke-miterlimit="10"/>
<path d="M154.663 136.639L198.516 111.163V60.2114L154.663 85.6873V136.639Z" fill="black"/>
<path d="M154.605 85.6638L110.764 60.1761L154.605 34.7002L198.457 60.1761L154.605 85.6638Z" fill="#FFDB33"/>
<path d="M154.605 86.266L109.719 60.176L154.605 34.0859L199.49 60.176L154.605 86.2542V86.266ZM111.808 60.176L154.605 85.0495L197.401 60.176L154.593 35.3024L111.797 60.176H111.808Z" fill="black"/>
<path d="M110.905 111.057L154.746 136.533V85.5811L110.905 60.1052V111.057Z" fill="white"/>
<path d="M155.274 137.442L110.388 111.352V59.1838L155.274 85.2739V137.442ZM111.421 110.762L154.229 135.635V85.888L111.421 61.0145V110.762Z" fill="black"/>
<path d="M99.5221 228.952L143.375 203.477V152.513L99.5221 177.989V228.952Z" fill="black"/>
<path d="M99.4752 177.965L55.6226 152.489L99.4634 127.013L143.316 152.489L99.4752 177.965Z" fill="#FFDB33"/>
<path d="M99.4751 178.568L54.5898 152.478L99.4751 126.387L144.36 152.478L99.4751 178.568ZM56.6669 152.489L99.4751 177.363L142.272 152.489L99.4634 127.616L56.6669 152.489Z" fill="black"/>
<path d="M55.7633 203.37L99.6159 228.846V177.894L55.7633 152.407V203.37Z" fill="white"/>
<path d="M100.132 229.756L55.2469 203.677V151.509L100.132 177.587V229.756ZM56.2913 203.063L99.0996 227.937V178.19L56.2913 153.316V203.063Z" fill="black"/>
<path d="M99.5221 165.564L143.375 140.088V89.136L99.5221 114.612V165.564Z" fill="black"/>
<path d="M99.4752 114.588L55.6226 89.1006L99.4634 63.6248L143.316 89.1006L99.4752 114.588Z" fill="#FFDB33"/>
<path d="M99.4751 115.191L54.5898 89.1007L99.4751 63.0225L144.36 89.1125L99.4751 115.191ZM56.6669 89.1007L99.4751 113.974L142.272 89.1007L99.4634 64.2271L56.6669 89.1007Z" fill="black"/>
<path d="M55.7633 139.982L99.6159 165.469V114.506L55.7633 89.0298V139.982Z" fill="white"/>
<path d="M100.132 166.379L55.2469 140.289V88.1204L100.132 114.21V166.379ZM56.2913 139.686L99.0996 164.56V114.813L56.2913 89.9392V139.686Z" fill="black"/>
<path d="M99.5221 102.541L143.375 77.0654V26.1018L99.5221 51.5895V102.541Z" fill="black"/>
<path d="M99.4752 51.5541L55.6226 26.0782L99.4634 0.602295L143.316 26.0782L99.4752 51.5541Z" fill="#FFDB33"/>
<path d="M99.4751 52.1683L54.5898 26.0782L99.4751 0L144.36 26.09L99.4751 52.1683ZM56.6669 26.0782L99.4751 50.9518L142.272 26.0782L99.4634 1.20469L56.6669 26.0782Z" fill="black"/>
<path d="M55.7633 76.9591L99.6159 102.435V51.4832L55.7633 26.0073V76.9591Z" fill="white"/>
<path d="M100.132 103.345L55.2469 77.2545V25.0862L100.132 51.1762V103.345ZM56.2913 76.6521L99.0996 101.526V51.7786L56.2913 26.9051V76.6521Z" fill="black"/>
<path d="M44.944 197.358L88.7966 171.882V120.931L44.944 146.407V197.358Z" fill="black"/>
<path d="M44.8853 146.383L1.04443 120.895L44.8853 95.4194L88.7379 120.895L44.8853 146.383Z" fill="#FFDB33"/>
<path d="M44.8853 146.985L0 120.895L44.8853 94.8171L89.7705 120.907L44.8853 146.985ZM2.08878 120.895L44.897 145.769L87.6935 120.895L44.8853 96.0219L2.08878 120.895Z" fill="black"/>
<path d="M1.1853 171.776L45.0262 197.264V146.3L1.1853 120.824V171.776Z" fill="white"/>
<path d="M45.5542 198.162L0.668945 172.083V119.915L45.5542 146.005V198.173V198.162ZM1.7016 171.481L44.5098 196.355V146.607L1.7016 121.734V171.481Z" fill="black"/>
<defs>
<linearGradient id="paint0_linear_229_1427" x1="220.036" y1="13.7394" x2="264.069" y2="26.5739" gradientUnits="userSpaceOnUse">
<stop stop-color="#1A1A1A"/>
<stop offset="1" stop-color="#333333"/>
</linearGradient>
<linearGradient id="paint1_linear_229_1427" x1="109.9" y1="89.1581" x2="313.502" y2="148.503" gradientUnits="userSpaceOnUse">
<stop stop-color="#1A1A1A"/>
<stop offset="1" stop-color="#333333"/>
</linearGradient>
<linearGradient id="paint2_linear_229_1427" x1="115.765" y1="90.8897" x2="307.617" y2="146.81" gradientUnits="userSpaceOnUse">
<stop stop-color="#1A1A1A"/>
<stop offset="1" stop-color="#333333"/>
</linearGradient>
<linearGradient id="paint3_linear_229_1427" x1="124.458" y1="66.5199" x2="313.459" y2="121.61" gradientUnits="userSpaceOnUse">
<stop stop-color="#1A1A1A"/>
<stop offset="1" stop-color="#333333"/>
</linearGradient>
<linearGradient id="paint4_linear_229_1427" x1="105.481" y1="130.882" x2="294.867" y2="186.083" gradientUnits="userSpaceOnUse">
<stop stop-color="#1A1A1A"/>
<stop offset="1" stop-color="#333333"/>
</linearGradient>
<linearGradient id="paint5_linear_229_1427" x1="237.524" y1="197.926" x2="261.51" y2="204.917" gradientUnits="userSpaceOnUse">
<stop stop-color="#1A1A1A"/>
<stop offset="1" stop-color="#333333"/>
</linearGradient>
<linearGradient id="paint6_linear_229_1427" x1="240.612" y1="198.838" x2="258.416" y2="204.027" gradientUnits="userSpaceOnUse">
<stop stop-color="#1A1A1A"/>
<stop offset="1" stop-color="#333333"/>
</linearGradient>
<linearGradient id="paint7_linear_229_1427" x1="137.753" y1="73.5242" x2="297.098" y2="119.97" gradientUnits="userSpaceOnUse">
<stop stop-color="#1A1A1A"/>
<stop offset="1" stop-color="#333333"/>
</linearGradient>
<linearGradient id="paint8_linear_229_1427" x1="247.421" y1="200.844" x2="251.962" y2="202.167" gradientUnits="userSpaceOnUse">
<stop stop-color="#1A1A1A"/>
<stop offset="1" stop-color="#333333"/>
</linearGradient>
<linearGradient id="paint9_linear_229_1427" x1="268.536" y1="195.885" x2="279.318" y2="199.03" gradientUnits="userSpaceOnUse">
<stop stop-color="#1A1A1A"/>
<stop offset="1" stop-color="#333333"/>
</linearGradient>
<linearGradient id="paint10_linear_229_1427" x1="121.654" y1="167.436" x2="146.901" y2="167.436" gradientUnits="userSpaceOnUse">
<stop stop-color="#1A1A1A"/>
<stop offset="1" stop-color="#333333"/>
</linearGradient>
<linearGradient id="paint11_linear_229_1427" x1="131.672" y1="166.666" x2="136.47" y2="168.064" gradientUnits="userSpaceOnUse">
<stop stop-color="#1A1A1A"/>
<stop offset="1" stop-color="#333333"/>
</linearGradient>
<linearGradient id="paint12_linear_229_1427" x1="110.475" y1="149.206" x2="121.261" y2="152.344" gradientUnits="userSpaceOnUse">
<stop stop-color="#1A1A1A"/>
<stop offset="1" stop-color="#333333"/>
</linearGradient>
<linearGradient id="paint13_linear_229_1427" x1="159.334" y1="161.871" x2="222.476" y2="200.209" gradientUnits="userSpaceOnUse">
<stop stop-color="#1A1A1A"/>
<stop offset="1" stop-color="#333333"/>
</linearGradient>
<linearGradient id="paint14_linear_229_1427" x1="161.568" y1="174.871" x2="167.571" y2="174.871" gradientUnits="userSpaceOnUse">
<stop stop-color="#1A1A1A"/>
<stop offset="1" stop-color="#333333"/>
</linearGradient>
<linearGradient id="paint15_linear_229_1427" x1="166.312" y1="176.197" x2="172.715" y2="176.197" gradientUnits="userSpaceOnUse">
<stop stop-color="#1A1A1A"/>
<stop offset="1" stop-color="#333333"/>
</linearGradient>
<linearGradient id="paint16_linear_229_1427" x1="171.198" y1="178.119" x2="178.644" y2="178.119" gradientUnits="userSpaceOnUse">
<stop stop-color="#1A1A1A"/>
<stop offset="1" stop-color="#333333"/>
</linearGradient>
<linearGradient id="paint17_linear_229_1427" x1="176.743" y1="180.645" x2="185.106" y2="180.645" gradientUnits="userSpaceOnUse">
<stop stop-color="#1A1A1A"/>
<stop offset="1" stop-color="#333333"/>
</linearGradient>
<linearGradient id="paint18_linear_229_1427" x1="182.679" y1="182.508" x2="191.051" y2="182.508" gradientUnits="userSpaceOnUse">
<stop stop-color="#1A1A1A"/>
<stop offset="1" stop-color="#333333"/>
</linearGradient>
<linearGradient id="paint19_linear_229_1427" x1="189.15" y1="184.665" x2="198.104" y2="184.665" gradientUnits="userSpaceOnUse">
<stop stop-color="#1A1A1A"/>
<stop offset="1" stop-color="#333333"/>
</linearGradient>
<linearGradient id="paint20_linear_229_1427" x1="194.87" y1="186.259" x2="203.824" y2="186.259" gradientUnits="userSpaceOnUse">
<stop stop-color="#1A1A1A"/>
<stop offset="1" stop-color="#333333"/>
</linearGradient>
<linearGradient id="paint21_linear_229_1427" x1="200.706" y1="187.577" x2="211.087" y2="187.577" gradientUnits="userSpaceOnUse">
<stop stop-color="#1A1A1A"/>
<stop offset="1" stop-color="#333333"/>
</linearGradient>
<linearGradient id="paint22_linear_229_1427" x1="210.703" y1="188.794" x2="213.566" y2="189.623" gradientUnits="userSpaceOnUse">
<stop stop-color="#1A1A1A"/>
<stop offset="1" stop-color="#333333"/>
</linearGradient>
<linearGradient id="paint23_linear_229_1427" x1="215.831" y1="190.296" x2="219.612" y2="191.391" gradientUnits="userSpaceOnUse">
<stop stop-color="#1A1A1A"/>
<stop offset="1" stop-color="#333333"/>
</linearGradient>
</defs>
</svg>
