<svg width="344" height="306" viewBox="0 0 344 306" fill="none" xmlns="http://www.w3.org/2000/svg">
<path d="M334.58 219.132H78.923C74.985 219.132 71.792 215.939 71.792 212.001V75.131C71.792 71.193 74.985 68 78.923 68H334.58C338.518 68 341.711 71.193 341.711 75.131V212.001C341.711 215.94 338.518 219.132 334.58 219.132Z" fill="white" stroke="black" stroke-width="3.5" stroke-miterlimit="10" stroke-linecap="round" stroke-linejoin="round"/>
<path d="M327.051 207.507H87.148C85.126 207.507 83.4871 205.868 83.4871 203.846V98.3711H330.711V203.846C330.711 205.867 329.073 207.507 327.051 207.507Z" fill="#FF5C57" stroke="black" stroke-width="3.5" stroke-miterlimit="10"/>
<path d="M71.792 98.3711H341.711" stroke="black" stroke-width="3.5" stroke-miterlimit="10" stroke-linecap="round" stroke-linejoin="round"/>
<path d="M97.9939 84.2794C97.9939 86.9054 95.8649 89.0344 93.2389 89.0344C90.6129 89.0344 88.4839 86.9054 88.4839 84.2794C88.4839 81.6534 90.6129 79.5244 93.2389 79.5244C95.8649 79.5244 97.9939 81.6524 97.9939 84.2794Z" fill="#FF5C57" stroke="black" stroke-width="3.5" stroke-miterlimit="10"/>
<path d="M113.006 89.0344C115.632 89.0344 117.761 86.9055 117.761 84.2794C117.761 81.6533 115.632 79.5244 113.006 79.5244C110.38 79.5244 108.251 81.6533 108.251 84.2794C108.251 86.9055 110.38 89.0344 113.006 89.0344Z" fill="#FF5C57" stroke="black" stroke-width="3.5" stroke-miterlimit="10"/>
<path d="M137.529 84.2794C137.529 86.9054 135.4 89.0344 132.774 89.0344C130.148 89.0344 128.019 86.9054 128.019 84.2794C128.019 81.6534 130.148 79.5244 132.774 79.5244C135.4 79.5244 137.529 81.6524 137.529 84.2794Z" fill="#FF5C57" stroke="black" stroke-width="3.5" stroke-miterlimit="10"/>
<mask id="mask0_1529_4778" style="mask-type:luminance" maskUnits="userSpaceOnUse" x="83" y="98" width="248" height="110">
<path d="M327.051 207.507H87.148C85.126 207.507 83.4871 205.868 83.4871 203.846V98.3706H330.711V203.846C330.711 205.867 329.073 207.507 327.051 207.507Z" fill="white"/>
</mask>
<g mask="url(#mask0_1529_4778)">
<path d="M-16.885 73.8384L153.914 244.637" stroke="black" stroke-width="3.5" stroke-miterlimit="10" stroke-linecap="round" stroke-linejoin="round"/>
<path d="M14.198 73.8384L184.997 244.637" stroke="black" stroke-width="3.5" stroke-miterlimit="10" stroke-linecap="round" stroke-linejoin="round"/>
<path d="M45.28 73.8384L216.08 244.637" stroke="black" stroke-width="3.5" stroke-miterlimit="10" stroke-linecap="round" stroke-linejoin="round"/>
<path d="M76.363 73.8384L247.163 244.637" stroke="black" stroke-width="3.5" stroke-miterlimit="10" stroke-linecap="round" stroke-linejoin="round"/>
<path d="M107.446 73.8384L278.246 244.637" stroke="black" stroke-width="3.5" stroke-miterlimit="10" stroke-linecap="round" stroke-linejoin="round"/>
<path d="M138.529 73.8384L309.329 244.637" stroke="black" stroke-width="3.5" stroke-miterlimit="10" stroke-linecap="round" stroke-linejoin="round"/>
<path d="M169.612 73.8384L340.412 244.637" stroke="black" stroke-width="3.5" stroke-miterlimit="10" stroke-linecap="round" stroke-linejoin="round"/>
<path d="M200.695 73.8384L371.495 244.637" stroke="black" stroke-width="3.5" stroke-miterlimit="10" stroke-linecap="round" stroke-linejoin="round"/>
<path d="M231.778 73.8384L402.578 244.637" stroke="black" stroke-width="3.5" stroke-miterlimit="10" stroke-linecap="round" stroke-linejoin="round"/>
<path d="M262.861 73.8384L433.661 244.637" stroke="black" stroke-width="3.5" stroke-miterlimit="10" stroke-linecap="round" stroke-linejoin="round"/>
</g>
<path d="M327.051 207.507H87.148C85.126 207.507 83.4871 205.868 83.4871 203.846V98.3711H330.711V203.846C330.711 205.867 329.073 207.507 327.051 207.507Z" stroke="black" stroke-width="3.5" stroke-miterlimit="10"/>
<mask id="mask1_1529_4778" style="mask-type:alpha" maskUnits="userSpaceOnUse" x="73" y="117" width="158" height="158">
<path d="M225.017 224.627C209.234 264.873 163.74 284.67 123.403 268.845C83.0671 253.02 63.1631 207.565 78.9461 167.32C94.7291 127.074 140.223 107.277 180.559 123.102C220.896 138.927 240.8 184.381 225.017 224.627ZM166.864 158.024C145.859 149.783 122.167 160.092 113.948 181.051C105.729 202.01 116.093 225.681 137.099 233.922C158.105 242.163 181.797 231.854 190.016 210.895C198.234 189.937 187.869 166.266 166.864 158.024Z" fill="black"/>
</mask>
<g mask="url(#mask1_1529_4778)">
<path d="M161.82 97.2408C169.946 96.8453 177.14 97.0544 182.304 97.3623C184.886 97.5163 186.963 97.6956 188.399 97.8365C189.117 97.9069 189.675 97.9676 190.055 98.0112C190.244 98.033 190.39 98.0505 190.489 98.0627C190.539 98.0688 190.577 98.0729 190.603 98.0762C190.616 98.0778 190.626 98.0799 190.633 98.0808C190.636 98.0812 190.639 98.0817 190.641 98.082C190.642 98.0821 190.643 98.082 190.644 98.082C190.644 98.0853 190.635 98.1579 190.422 99.8174L190.645 98.0821C191.179 98.1515 191.653 98.4629 191.928 98.9267C192.203 99.3905 192.249 99.9549 192.053 100.457L166.137 166.813C165.883 167.463 165.267 167.899 164.569 167.923L139.643 168.77C138.968 168.793 138.34 168.425 138.029 167.826L109.749 113.338C109.334 112.539 109.593 111.556 110.346 111.066C125.469 101.226 145.631 98.0286 161.82 97.2408Z" fill="#01ABFF" stroke="black" stroke-width="3.5" stroke-miterlimit="10" stroke-linecap="round" stroke-linejoin="round"/>
<path d="M110.448 111.063C110.862 110.826 111.355 110.769 111.812 110.904C112.27 111.039 112.652 111.354 112.872 111.777L141.157 166.275C141.389 166.723 141.417 167.25 141.232 167.72L133.071 188.531C132.718 189.43 131.704 189.872 130.805 189.519L68.7558 165.175C68.3233 165.005 67.9754 164.671 67.7892 164.245C67.603 163.819 67.5932 163.337 67.7627 162.904C74.6974 145.222 85.3515 132.277 94.2589 123.758C98.7147 119.497 102.742 116.334 105.663 114.233C107.123 113.183 108.309 112.397 109.135 111.87C109.547 111.607 109.87 111.408 110.093 111.274C110.204 111.207 110.289 111.155 110.349 111.12C110.379 111.102 110.403 111.089 110.419 111.079C110.428 111.075 110.434 111.071 110.439 111.068C110.442 111.067 110.444 111.065 110.445 111.064L110.447 111.063C110.448 111.064 110.471 111.101 111.204 112.38L110.448 111.063Z" fill="#FFDB33" stroke="black" stroke-width="3.5" stroke-miterlimit="10" stroke-linecap="round" stroke-linejoin="round"/>
<path d="M122.726 207.094C123.315 206.928 123.953 207.083 124.403 207.508L141.757 223.918C142.276 224.409 142.445 225.165 142.185 225.83L116.73 290.737C116.539 291.225 116.138 291.601 115.639 291.762C115.14 291.922 114.595 291.851 114.154 291.567L115.1 290.096C114.193 291.506 114.155 291.564 114.153 291.566L114.151 291.565C114.149 291.564 114.146 291.561 114.143 291.56C114.138 291.556 114.129 291.55 114.118 291.543C114.097 291.529 114.065 291.509 114.024 291.482C113.942 291.429 113.823 291.349 113.667 291.245C113.356 291.037 112.901 290.73 112.322 290.329C111.163 289.525 109.504 288.342 107.489 286.818C103.46 283.77 97.9975 279.348 92.2622 273.847C80.8372 262.888 68.1258 247.459 63.7181 229.931C63.4987 229.059 63.9766 228.163 64.8226 227.86L122.608 207.131L122.726 207.094Z" fill="#FFDB33" stroke="black" stroke-width="3.5" stroke-miterlimit="10" stroke-linecap="round" stroke-linejoin="round"/>
<path d="M67.8056 162.787C68.2107 161.999 69.1552 161.631 69.9986 161.962L132.042 186.304C132.475 186.474 132.823 186.808 133.009 187.234C133.195 187.66 133.204 188.142 133.035 188.574L124.875 209.385C124.691 209.855 124.312 210.221 123.838 210.391L66.0582 231.118C65.6095 231.279 65.1138 231.249 64.6866 231.036C64.2597 230.823 63.9374 230.446 63.7949 229.991L65.4652 229.47L63.7949 229.989L63.794 229.987C63.7935 229.985 63.793 229.983 63.7922 229.98C63.7905 229.975 63.7877 229.967 63.7849 229.958C63.7793 229.94 63.7711 229.914 63.7612 229.881C63.7412 229.815 63.7128 229.718 63.6769 229.593C63.605 229.343 63.5036 228.978 63.38 228.505C63.1327 227.557 62.7976 226.174 62.4407 224.411C61.727 220.884 60.9239 215.827 60.5532 209.672C59.812 197.368 60.7985 180.632 67.7326 162.95L67.8056 162.787Z" fill="#FF5C57" stroke="black" stroke-width="3.5" stroke-miterlimit="10" stroke-linecap="round" stroke-linejoin="round"/>
<path d="M188.926 100.422C189.425 100.261 189.97 100.333 190.411 100.617L189.464 102.088C190.374 100.674 190.41 100.62 190.412 100.618L190.414 100.619C190.416 100.62 190.419 100.622 190.421 100.624C190.427 100.628 190.436 100.633 190.447 100.64C190.468 100.654 190.5 100.675 190.541 100.702C190.623 100.756 190.743 100.835 190.898 100.938C191.209 101.146 191.664 101.454 192.244 101.856C193.402 102.659 195.061 103.842 197.076 105.366C201.105 108.414 206.567 112.836 212.303 118.337C223.728 129.296 236.439 144.725 240.847 162.253C241.066 163.125 240.588 164.021 239.742 164.324L181.956 185.053C181.336 185.276 180.642 185.13 180.162 184.677L162.809 168.265C162.29 167.775 162.12 167.018 162.38 166.354L187.835 101.447C188.026 100.959 188.427 100.583 188.926 100.422Z" fill="#FFDB33" stroke="black" stroke-width="3.5" stroke-miterlimit="10" stroke-linecap="round" stroke-linejoin="round"/>
<path d="M238.676 161.015C239.078 160.916 239.503 160.961 239.877 161.147C240.304 161.36 240.626 161.738 240.769 162.194L239.099 162.714C240.73 162.206 240.768 162.194 240.77 162.195L240.772 162.203C240.774 162.209 240.776 162.217 240.779 162.226C240.784 162.244 240.792 162.27 240.802 162.303C240.822 162.369 240.851 162.465 240.887 162.59C240.959 162.84 241.061 163.206 241.185 163.68C241.432 164.627 241.766 166.01 242.123 167.774C242.837 171.301 243.641 176.357 244.011 182.512C244.753 194.816 243.766 211.553 236.832 229.234C236.48 230.133 235.465 230.575 234.566 230.222L172.522 205.88C172.09 205.71 171.742 205.376 171.555 204.95C171.369 204.525 171.36 204.042 171.529 203.61L179.69 182.799L179.768 182.628C179.97 182.241 180.31 181.941 180.725 181.792L238.506 161.066L238.676 161.015Z" fill="#FFDB33" stroke="black" stroke-width="3.5" stroke-miterlimit="10" stroke-linecap="round" stroke-linejoin="round"/>
<path d="M165.088 223.414C165.7 223.451 166.252 223.806 166.538 224.356L194.816 278.844C195.231 279.643 194.973 280.626 194.22 281.116C179.077 290.969 159.272 293.638 143.448 293.905C135.504 294.039 128.495 293.568 123.469 293.063C120.956 292.81 118.936 292.549 117.541 292.35C116.843 292.251 116.301 292.168 115.931 292.108C115.747 292.079 115.605 292.055 115.508 292.039C115.46 292.031 115.423 292.024 115.397 292.019C115.385 292.017 115.375 292.016 115.368 292.015C115.364 292.014 115.361 292.014 115.359 292.014L115.357 292.013C115.356 292.012 115.356 292.012 115.658 290.289L115.355 292.013C114.838 291.921 114.389 291.602 114.132 291.144C113.875 290.686 113.837 290.136 114.028 289.648L139.479 224.752C139.739 224.089 140.376 223.651 141.088 223.644L164.965 223.411L165.088 223.414Z" fill="#FFDB33" stroke="black" stroke-width="3.5" stroke-miterlimit="10" stroke-linecap="round" stroke-linejoin="round"/>
<path d="M171.567 203.49C171.972 202.703 172.916 202.335 173.76 202.666L235.808 227.01C236.241 227.18 236.589 227.514 236.775 227.94C236.961 228.366 236.97 228.848 236.801 229.28C229.866 246.962 219.212 259.907 210.304 268.426C205.849 272.687 201.822 275.849 198.902 277.95C197.441 279.001 196.255 279.787 195.43 280.314C195.017 280.577 194.694 280.776 194.472 280.91C194.36 280.978 194.274 281.028 194.214 281.063C194.184 281.081 194.161 281.095 194.145 281.105C194.137 281.109 194.13 281.113 194.125 281.116C194.123 281.117 194.121 281.118 194.119 281.119L194.117 281.121L193.245 279.602L194.115 281.121C193.702 281.357 193.209 281.415 192.752 281.28C192.294 281.145 191.911 280.829 191.691 280.406L163.409 225.91C163.176 225.461 163.148 224.934 163.332 224.464L171.494 203.654L171.567 203.49Z" fill="#FFDB33" stroke="black" stroke-width="3.5" stroke-miterlimit="10" stroke-linecap="round" stroke-linejoin="round"/>
<path d="M80.5749 167.961C96.0047 128.615 140.484 109.258 179.923 124.731C219.36 140.203 238.816 184.643 223.387 223.987C207.957 263.332 163.479 282.689 124.04 267.216C84.6029 251.744 65.1456 207.305 80.5749 167.961ZM167.501 156.395C145.598 147.802 120.891 158.55 112.318 180.41C103.746 202.271 114.557 226.957 136.462 235.551C158.365 244.144 183.073 233.396 191.646 211.536C200.217 189.676 189.405 164.989 167.501 156.395Z" stroke="black" stroke-width="3.5" stroke-miterlimit="10" stroke-linecap="round" stroke-linejoin="round"/>
</g>
<path d="M94.3319 92.6494C94.3319 92.6494 85.7081 94.9758 79.2877 88.717C72.8681 82.4578 60.4825 65.6076 54.3361 60.1971C48.1895 54.7858 34.9702 52.1932 17.158 69.4214C-0.268447 86.2752 11.1689 96.4098 17.5895 102.669C24.0091 108.928 41.0722 121.769 44.9793 125.75C48.8854 129.731 47.8611 132.65 47.515 139.409C47.515 139.409 76.9217 114.504 85.4474 106.697C93.9732 98.8903 94.3319 92.6494 94.3319 92.6494Z" fill="#01ABFF" stroke="black" stroke-width="3.32114" stroke-miterlimit="10"/>
<path d="M103.797 102.645C103.797 102.645 101.626 111.66 86.0229 130.277C70.4195 148.894 57.9709 151.791 57.9709 151.791C56.5213 140.855 45.8943 132.791 68.3506 115.636C82.1282 105.113 103.797 102.645 103.797 102.645Z" fill="#01ABFF" stroke="black" stroke-width="3.32114" stroke-miterlimit="10"/>
<path d="M88.8541 109.625C88.8541 109.625 71.9794 119.08 64.3345 136.978L113.157 186.673L150.039 204.677L160.945 195.08L143.619 160.883L88.8541 109.625Z" fill="white" stroke="black" stroke-width="3.32114" stroke-miterlimit="10" stroke-linecap="round" stroke-linejoin="round"/>
<path d="M136.987 163.292C136.987 163.292 122.598 165.663 117.894 180.669L136.987 163.292Z" fill="white"/>
<path d="M136.987 163.292C136.987 163.292 122.598 165.663 117.894 180.669" stroke="black" stroke-width="3.32114" stroke-miterlimit="10" stroke-linecap="round" stroke-linejoin="round"/>
<path d="M150.046 204.683C151.615 206.282 155.203 205.304 158.063 202.499C160.922 199.693 161.968 196.124 160.4 194.525C158.831 192.927 155.242 193.905 152.383 196.71C149.524 199.514 148.478 203.085 150.046 204.683Z" fill="white" stroke="black" stroke-width="3.32114" stroke-miterlimit="10" stroke-linecap="round" stroke-linejoin="round"/>
<path d="M94.332 92.6493C94.332 92.6493 100.736 98.6715 103.797 102.645C103.797 102.645 88.3057 106.793 75.7798 120.478C63.2532 134.164 57.9716 151.791 57.9716 151.791L47.5146 139.407C47.5146 139.407 52.403 126.775 65.3624 112.268C75.768 100.62 94.332 92.6493 94.332 92.6493Z" fill="#01ABFF" stroke="black" stroke-width="3.32114" stroke-miterlimit="10"/>
</svg>
