<svg width="329" height="232" viewBox="0 0 329 232" fill="none" xmlns="http://www.w3.org/2000/svg">
<path d="M268.481 0.0363499C272.542 -0.251906 277.909 1.15041 279.937 5.09664C282.31 9.71989 284.302 15.0912 286.311 19.9316L298.571 49.3882L318.922 97.7459L325.286 112.61C325.789 113.776 328.885 120.764 328.867 121.69C328.729 128.674 326.027 137.884 324.6 144.812C323.732 149.017 321.947 150.575 318.669 152.455C317.903 157.068 317.322 162.559 313.132 165.359C309.246 167.956 303.177 168.99 298.7 170.122L281.489 174.525L226.25 188.54L59.4623 230.711C53.0446 232.202 47.4057 229.835 44.6052 223.688C43.1398 220.471 41.8819 217.129 40.5669 213.848L31.5161 191.346L10.659 139.151L4.45356 123.413C2.6923 118.939 -0.93901 111.805 0.226009 107.049C1.23667 102.922 4.23328 98.9609 7.82402 96.7075C7.20645 94.0237 7.11626 91.7943 7.99677 89.121C10.5129 81.4815 12.5597 73.606 15.6517 66.1848C16.3347 64.5455 18.3481 61.6174 20.0765 60.8898C25.2927 59.146 31.1312 57.8994 36.4444 56.5904L63.4405 50.0111L140.625 31.1495L227.047 10.0657L253.405 3.60434C258.264 2.41598 263.642 0.977126 268.481 0.0363499Z" fill="black"/>
<path d="M141.991 33.1601L227.786 12.2234L254.251 5.75468C258.908 4.61453 263.506 3.38261 268.214 2.47617C277.479 0.692011 279.606 9.75315 282.398 16.4201L289.088 32.4649L308.667 79.2191L320.386 106.976C321.662 109.964 323.053 113.003 324.269 115.941C325.461 119.084 327.834 122.712 325.645 125.954C324.347 127.874 323.005 128.552 320.877 129.214C314.596 131.17 308.103 132.595 301.723 134.194L266.721 142.978L219.074 154.925C210.918 156.98 201.332 159.619 193.213 161.357L192.948 161.413C192.528 159.556 192.083 154.972 189.497 155.858C189.629 157.663 190.742 160.109 191.51 161.761C166.833 168.345 141.309 174.315 116.486 180.632L89.0928 187.526C85.0822 188.53 77.8485 190.576 74.0604 191.02C71.7255 191.299 69.3638 190.799 67.339 189.596C64.4596 187.889 63.5198 185.398 62.3154 182.466C59.9892 176.804 57.737 171.114 55.4699 165.429L39.6971 125.972L25.1775 89.7922C22.6969 83.6204 19.9224 77.2192 17.8851 70.8808C17.3189 69.1193 17.3208 67.0881 18.3286 65.4751C19.169 64.1299 20.5371 63.0407 22.0596 62.4979C26.0636 61.3903 30.1469 60.4611 34.1871 59.4741L60.4631 53.0801L140.441 33.5323C140.877 35.03 141.113 35.8932 142.22 36.9826C143.545 35.7461 142.661 34.6972 141.991 33.1601Z" fill="black"/>
<path d="M141.991 33.1601L227.786 12.2234L254.251 5.75468C258.908 4.61453 263.506 3.38261 268.214 2.47617C277.479 0.692011 279.606 9.75315 282.398 16.4201L289.088 32.4649L308.668 79.2191L320.386 106.976C321.662 109.964 323.053 113.003 324.269 115.941C325.461 119.084 327.834 122.712 325.646 125.954C324.347 127.874 323.005 128.552 320.877 129.214C314.596 131.17 308.103 132.595 301.723 134.194L266.721 142.978L219.074 154.925C210.918 156.98 201.333 159.619 193.213 161.357L192.948 161.413C192.528 159.556 192.083 154.972 189.497 155.858C189.505 155.217 189.35 154.513 188.884 154.056C187.546 152.964 185.806 148.687 186.486 146.988C186.475 146.49 186.002 145.85 185.725 145.455C184.666 144.696 183.755 143.469 184.175 142.098L184.176 141.875C183.095 141.222 182.376 139.641 182.647 138.397L182.795 138.073C184.64 136.194 188.782 136.531 191.226 135.386C192.415 134.828 192.217 134.915 192.71 133.773C190.081 132.474 185.169 135.528 182.79 135.088C181.766 133.568 178.319 124.578 177.537 122.447L205.642 115.466C211.164 114.096 221.196 112.884 224.26 108.068C231.567 96.5815 224.086 87.2432 220.379 76.7124C213.559 57.3362 208.033 60.614 191.461 64.4532C180.126 67.129 168.814 69.9016 157.526 72.7707C156.73 70.9135 156.875 68.4512 154.558 68.5371L154.094 67.1201C153.294 66.1665 151.929 63.0994 152.006 61.8724L152.543 61.4588C151.474 61.3244 151.419 60.6294 150.945 59.7115C153.634 58.8523 158.864 58.6565 160.471 56.2585L159.89 55.7328C158.521 55.1891 153.266 56.8001 151.503 57.2577C151.222 56.4029 151.037 55.8356 150.653 55.016C149.959 54.486 150.308 54.592 149.296 54.7128L149.077 54.6044C148.248 53.8282 147.491 52.271 147.981 51.1461L147.781 50.8145C146.339 49.8627 145.341 47.1698 146.157 45.471C145.918 44.8932 145.87 44.8382 145.352 44.4926C143.825 43.4824 142.478 40.0857 142.962 38.347C142.897 37.8357 142.614 37.3265 142.22 36.9826C143.546 35.7461 142.661 34.6972 141.991 33.1601Z" fill="#FFDB33"/>
<path d="M202.882 46.0395C203.227 46.166 205.982 45.5748 206.554 45.3208L206.457 44.9153C207.968 46.3924 209.268 45.5503 211.123 44.9539C212.561 49.7955 212.964 49.819 217.706 48.3164C218.374 50.1897 220.274 56.6085 221.903 57.1471C222.101 57.8492 222.818 59.724 223.183 60.3928C222.453 62.3981 224.938 68.6223 226.744 69.5324C227.36 70.432 227.521 71.3788 228.067 71.7589C230.199 72.6937 232.826 78.9769 232.016 81.0484C232.249 81.8217 232.41 82.6188 232.966 83.1934C235.108 84.138 235.686 87.0913 236.493 89.1621C236.928 90.2861 237.062 90.8803 236.546 92.0192C236.729 92.5099 237.339 94.2577 237.538 94.6243C236.743 97.1025 240.164 103.582 241.096 106.227C241.375 107.027 241.891 107.279 242.642 107.498C242.98 108.407 243.338 109.308 243.715 110.2C243.99 110.253 244.07 110.309 244.315 110.256C242.511 111.476 243.744 113.153 244.466 114.924C243.416 115.163 242.297 115.321 241.463 115.987C240.699 117.361 241.976 119.448 241.21 120.45C240.437 121.457 240.31 120.658 239.805 122.331C238.949 122.408 235.924 122.865 235.3 123.342L235.261 123.461C234.226 125.055 228.001 126.52 226.258 126.241C225.96 125.967 225.76 125.809 225.526 125.469C224.788 125.518 221.482 126.497 220.462 126.746C219.916 126.437 219.367 126.183 218.744 126.345C216.695 126.875 212.32 127.097 211.368 129.181C210.766 129.056 207.673 129.954 206.623 130.113C204.808 129.342 198.501 130.981 197.42 132.61C196.568 132.836 193.252 133.511 192.71 133.772C190.081 132.474 185.169 135.528 182.79 135.088C181.766 133.568 178.319 124.578 177.537 122.446L205.642 115.466C211.164 114.096 221.196 112.884 224.26 108.067C231.567 96.5813 224.086 87.243 220.379 76.7122C213.559 57.336 208.033 60.6138 191.461 64.453C180.126 67.1288 168.814 69.9014 157.526 72.7705C156.73 70.9133 156.875 68.451 154.558 68.5369L154.094 67.1199C153.294 66.1663 151.929 63.0992 152.006 61.8722L152.543 61.4586C151.473 61.3242 151.419 60.6292 150.945 59.7113C153.634 58.8521 158.864 58.6563 160.47 56.2583C161.09 56.7827 163.518 55.4429 165.146 55.6132C166.865 56.1097 173.32 54.7584 174.41 53.1584C174.616 53.2096 178.552 52.1309 179.09 51.9892C181.009 52.807 184.711 51.302 186.697 50.8399C187.561 50.639 187.718 50.2445 188.117 49.5334L188.218 49.8222C189.718 49.5145 191.537 48.7997 192.944 48.8039C194.677 49.3662 201.649 47.7381 202.882 46.0395Z" fill="#01C971"/>
<path d="M228.067 71.7588C230.199 72.6936 232.826 78.9768 232.016 81.0484C229.608 80.705 228.481 75.664 227.705 73.6463C227.386 72.8184 227.673 72.4513 228.067 71.7588Z" fill="black"/>
<path d="M225.527 125.468C226.309 123.642 232.497 122.757 234.382 122.606C234.731 122.579 235.044 123.169 235.262 123.461C234.226 125.055 228.001 126.52 226.259 126.241C225.96 125.967 225.761 125.809 225.527 125.468Z" fill="black"/>
<path d="M232.966 83.1934C235.108 84.138 235.686 87.0913 236.493 89.1621C236.928 90.2861 237.062 90.8803 236.546 92.0192L235.602 91.7233C234.313 90.5548 232.852 86.1014 232.562 84.2887C232.562 84.2887 232.931 83.2886 232.966 83.1934Z" fill="black"/>
<path d="M152.543 61.4585C153.718 61.9465 154.949 65.2774 154.655 66.465L154.094 67.1198C153.294 66.1662 151.929 63.0991 152.006 61.8721L152.543 61.4585Z" fill="black"/>
<path d="M210.638 43.3277C210.398 42.4744 209.446 39.6625 210.114 38.9773C211.535 37.5188 218.367 35.5625 220.088 36.4817C221.275 38.2767 223.073 44.1722 222.748 46.2C221.951 47.1913 220.794 47.3783 219.58 47.6898C220.407 49.6919 222.469 54.1923 222.402 56.1437C222.256 56.4437 222.064 56.871 221.903 57.147C220.274 56.6084 218.374 50.1896 217.706 48.3163C212.964 49.8189 212.561 49.7954 211.123 44.9539C209.268 45.5502 207.968 46.3923 206.457 44.9152C207.461 43.6062 208.984 43.6015 210.638 43.3277Z" fill="black"/>
<path d="M218.326 38.1912L218.639 38.1738C219.611 38.8216 220.72 43.8922 221.083 45.3287C219.091 45.8022 216.639 46.5966 214.639 47.1866L214.221 47.1746C213.357 46.4365 212.12 41.2473 211.729 39.8303C213.88 39.2557 216.157 38.7293 218.326 38.1912Z" fill="#F8F6E9"/>
<path d="M244.315 110.256C245.56 111.293 245.908 112.892 246.399 114.448C247.345 114.164 250.288 113.085 251.049 113.734C252.539 115.001 254.543 122.457 253.741 124.028C251.866 125.427 246.973 126.431 244.598 126.71C242.951 126.904 242.946 123.791 242.086 122.879C241.084 122.801 240.678 122.842 239.805 122.332C240.31 120.658 240.437 121.457 241.21 120.45C241.976 119.448 240.7 117.361 241.463 115.987C242.297 115.321 243.416 115.163 244.466 114.924C243.744 113.153 242.511 111.476 244.315 110.256Z" fill="black"/>
<path d="M250.015 115.537C250.672 116.147 251.883 121.498 252.252 122.852C250.064 123.535 247.462 124.152 245.22 124.74C244.396 124.192 243.231 118.683 242.888 117.327C245.225 116.703 247.661 116.127 250.015 115.537Z" fill="#F8F6E9"/>
<path d="M237.538 94.6243C240.184 95.6203 241.135 101.484 242.38 103.998C242.876 104.994 243.207 106.469 242.642 107.498C241.891 107.279 241.376 107.027 241.096 106.227C240.165 103.582 236.743 97.1025 237.538 94.6243Z" fill="black"/>
<path d="M192.944 48.8038C192.924 48.1607 192.958 48.0858 193.255 47.5134C194.639 46.3857 199.363 45.4157 201.254 45.2037C202.045 45.1149 202.352 45.5618 202.882 46.0395C201.649 47.7381 194.677 49.3662 192.944 48.8038Z" fill="black"/>
<path d="M223.183 60.3931C225.754 61.356 226.49 65.2304 227.293 67.7222C227.522 68.4319 227.197 68.9707 226.744 69.5326C224.938 68.6225 222.453 62.3983 223.183 60.3931Z" fill="black"/>
<path d="M165.146 55.6134C165.268 55.0743 165.348 54.8721 165.554 54.3565C166.864 53.2548 171.356 52.2845 173.15 52.2754C173.803 52.2722 174.009 52.6971 174.41 53.1586C173.32 54.7586 166.865 56.1099 165.146 55.6134Z" fill="black"/>
<path d="M179.09 51.9891C179.202 51.4069 179.229 51.3457 179.485 50.8078C180.909 49.7697 184.713 48.983 186.489 48.8004C187.408 48.7059 187.507 48.9896 188.117 49.5333C187.719 50.2445 187.561 50.639 186.697 50.8399C184.711 51.3019 181.009 52.807 179.09 51.9891Z" fill="black"/>
<path d="M211.368 129.181C212.321 127.097 216.695 126.875 218.744 126.344C219.367 126.183 219.917 126.437 220.462 126.746C220.065 127.653 219.948 128.013 218.892 128.318C217.073 128.843 212.893 130.687 211.368 129.181Z" fill="black"/>
<path d="M197.42 132.61C198.502 130.981 204.808 129.342 206.623 130.113C206.381 130.794 206.307 131.387 205.547 131.651C203.531 132.35 199.182 134.205 197.42 132.61Z" fill="black"/>
<path d="M186.486 146.987C188.362 147.508 189.885 151.506 189.646 153.252C189.349 153.654 189.302 153.748 188.884 154.056C187.546 152.963 185.806 148.687 186.486 146.987Z" fill="black"/>
<path d="M142.962 38.3467C144.977 39.0914 146.547 42.6983 145.352 44.4923C143.825 43.4821 142.478 40.0854 142.962 38.3467Z" fill="black"/>
<path d="M146.157 45.4709C147.803 46.4677 148.985 49.0341 147.781 50.8144C146.339 49.8627 145.341 47.1698 146.157 45.4709Z" fill="black"/>
<path d="M182.647 138.397C184.381 138.203 184.64 139.46 184.797 140.925C184.608 141.501 184.628 141.475 184.175 141.875C183.095 141.222 182.376 139.641 182.647 138.397Z" fill="black"/>
<path d="M147.981 51.1458C149.651 51.2943 150.051 52.1418 149.946 53.7403C149.598 54.2468 149.581 54.264 149.077 54.6041C148.248 53.8279 147.491 52.2707 147.981 51.1458Z" fill="black"/>
<path d="M184.175 142.098C185.856 141.832 186.064 143.062 186.21 144.462C186.043 144.974 186.036 145.025 185.725 145.455C184.665 144.696 183.755 143.469 184.175 142.098Z" fill="black"/>
<path d="M272.803 43.6091C275.867 43.2657 280.312 44.4825 281.69 47.5287C286.884 58.987 291.48 70.9455 295.923 82.7287C296.742 84.9041 293.822 92.2762 292.628 94.3285C291.976 95.4574 290.719 96.2914 289.496 96.7284C279.58 99.5116 268.99 102.241 258.944 104.424C247.311 105.553 246.689 90.8909 242.321 82.6654C239.775 77.8701 237.672 71.2142 235.754 66.0518C235.01 64.0517 239.017 55.431 240.15 53.2119C241.886 50.4272 253.721 48.2619 257.002 47.4208C262.035 46.1302 267.973 44.3476 272.803 43.6091Z" fill="black"/>
<path d="M273.394 45.5797C279.991 45.1079 281.664 52.5572 283.636 57.5083L288.798 70.4114C290.466 74.5609 292.351 78.949 293.915 83.156C294.267 84.0996 293.854 86.4416 293.241 87.1948C291.544 89.0111 288.147 89.8831 285.722 90.3791C277.69 92.0224 269.126 95.0349 261.114 96.3273C254.694 97.0025 253.335 90.6219 251.414 85.8596L246.696 74.1476C244.654 69.0819 242.385 63.8388 240.673 58.7611C240.002 55.4994 241.874 53.328 244.79 52.6587C254.293 50.479 263.912 47.5372 273.394 45.5797Z" fill="#FF5C57"/>
<path d="M191.51 161.761C166.833 168.345 141.309 174.315 116.486 180.632L89.0928 187.526C85.0822 188.529 77.8485 190.576 74.0604 191.019C71.7255 191.299 69.3638 190.799 67.339 189.596C64.4596 187.889 63.5198 185.398 62.3154 182.466C59.9892 176.804 57.737 171.114 55.4699 165.428L39.6971 125.972L25.1775 89.7921C22.6969 83.6203 19.9224 77.2191 17.8851 70.8806C17.3189 69.1191 17.3208 67.088 18.3286 65.475C19.169 64.1298 20.5371 63.0405 22.0596 62.4978C26.0636 61.3902 30.1469 60.461 34.1871 59.474L60.4631 53.08L140.441 33.5322C140.877 35.0299 141.113 35.893 142.22 36.9825C142.614 37.3264 142.896 37.8356 142.962 38.3468C142.477 40.0856 143.825 43.4823 145.352 44.4925C145.87 44.838 145.918 44.8931 146.157 45.4709C145.341 47.1697 146.339 49.8626 147.781 50.8143L147.981 51.1459C147.491 52.2709 148.248 53.8281 149.077 54.6043L149.295 54.7127C149.063 55.7303 149.543 56.6766 149.968 57.6286L83.205 74.0733L63.9884 78.7322C60.2664 79.6438 56.42 80.5439 52.8911 81.7516C48.5861 83.2246 46.1651 88.2611 47.6893 92.5374C50.7761 101.198 54.4836 110.244 58.0171 118.719C54.4999 119.917 55.3882 122.382 56.5574 125.362C58.0524 129.173 58.1224 130.251 62.2553 128.979C64.4915 134.532 66.6929 140.099 68.86 145.68C70.845 150.737 73.284 159.122 78.5335 161.379C80.2162 162.087 82.049 162.356 83.8625 162.163C86.3051 161.896 90.714 160.63 93.2101 159.996L108.9 156.062L166.42 141.55C170.696 140.452 177.454 138.616 181.977 137.655C182.024 137.645 182.681 137.999 182.795 138.073L182.647 138.397C182.376 139.641 183.095 141.222 184.176 141.875L184.175 142.098C183.755 143.469 184.666 144.696 185.725 145.455C186.002 145.85 186.475 146.49 186.486 146.988C185.806 148.687 187.546 152.964 188.884 154.056C189.35 154.512 189.505 155.216 189.497 155.858C189.629 157.663 190.742 160.109 191.51 161.761Z" fill="#FF5C57"/>
<path d="M60.1331 118.237L53.4978 101.73C52.0945 98.2318 49.6681 93.207 49.5439 89.4858C49.3673 84.2032 54.9714 83.1715 58.9178 82.2523C60.8682 81.7981 62.976 81.2443 64.9906 80.7478L86.7632 75.4087C107.941 70.2224 129.742 64.5287 150.945 59.7112C151.419 60.6291 151.473 61.3241 152.543 61.4585L152.006 61.8721C151.929 63.0991 153.294 66.1662 154.094 67.1198L154.558 68.5368C154.899 69.8455 155.769 71.7536 156.312 73.0491C150.638 74.8381 141.145 76.7828 134.956 78.3003L94.7428 88.2668L81.5738 91.4636C78.9692 92.105 76.1032 92.6378 73.6389 93.7113C71.8876 94.4744 70.5998 96.2496 69.9559 98.0074C68.892 100.912 67.1692 104.963 67.1981 108.081C67.2105 109.41 67.4787 110.722 67.8693 111.987C69.2495 116.461 71.3354 120.822 73.092 125.165C74.7111 129.166 76.1117 133.296 77.9082 137.219C79.5601 140.826 81.6893 143.526 85.7716 144.225C90.1236 144.97 103.402 140.972 108.253 139.772L151.291 128.995C154.64 128.145 175.199 122.471 177.066 123.168L176.746 123.602C176.823 124.663 180.707 134.078 181.356 135.553C173.431 137.133 162.497 140.315 154.514 142.362L108.541 153.905L93.1724 157.765C81.174 160.783 77.2215 162.561 72.5238 148.962C72.1468 147.87 71.5397 146.466 71.1041 145.36L64.4596 128.449C65.3304 128.191 67.709 127.527 67.6555 126.338C67.5532 124.065 66.0616 119.492 64.5804 117.859C63.0589 117.187 61.7149 117.781 60.1331 118.237Z" fill="#01ABFF"/>
<path d="M140.588 32L192.75 162.5" stroke="black"/>
<path d="M188.697 67.3215L189.287 67.2437C189.425 67.3158 189.59 67.4025 189.782 67.5035C194.114 78.7066 201.652 95.6385 205.417 106.45C195.353 108.624 184.989 111.779 174.877 113.916C174.04 114.092 174.369 114 173.873 114C172.639 114.542 172.879 114.5 172.602 114.542C169.272 115.65 163.119 116.97 159.558 117.857L134.425 124.122L108.55 130.573C104.552 131.56 93.2622 134.676 89.9172 134.448C88.5671 134.245 87.7462 134.122 86.5724 133.399C85.5625 132.781 84.7158 131.927 84.1042 130.909C83.7215 130.264 83.3049 129.271 83.0282 128.549C79.5621 119.502 75.5175 110.51 72.3188 101.393C71.3941 98.7567 72.6488 96.123 75.2429 95.3891C79.6132 94.1523 84.291 93.0927 88.7191 91.9875L117.64 84.8755L188.697 67.3215Z" fill="#F8F6E9"/>
<path d="M204.557 63.682C209.018 63.1482 212.302 64.168 214.434 68.3759C216.454 72.3636 218.448 76.948 220.022 81.1956C221.866 86.1705 227.05 95.0783 224.822 100.086C223.899 102.16 213.932 104.217 211.747 104.754C210.752 105.092 208.154 105.631 207.022 105.9C205.317 99.8951 202.577 93.1832 200.239 87.4132L191.712 66.531C195.881 65.5367 200.366 64.4474 204.557 63.682Z" fill="#FFDB33"/>
<path d="M203.29 75.9116C204.918 76.1005 213.674 81.0224 214.428 82.2408C214.414 83.8611 210.966 90.1825 210.005 92.0768C209.154 92.3991 208.873 92.3147 208.283 91.7244C207.981 90.2238 210.977 84.7313 211.843 82.9591C209.611 81.5845 204.632 79.3492 203.176 77.6433C202.884 76.6935 202.961 76.9886 203.29 75.9116Z" fill="black"/>
<path d="M70.3986 103.049C73.4076 109.301 80.2836 130.496 83.9187 134.167C85.6073 135.873 88.3398 136.749 90.6946 136.73C94.1255 136.701 97.7451 135.524 101.065 134.709C105.862 133.534 110.652 132.332 115.436 131.103L158.314 120.43C160.711 119.831 172.031 116.804 173.624 116.8C173.873 116.799 173.873 116.5 175.363 116.5L176.853 118.5C176.407 119.374 177.342 119.552 176.853 120.43C172.608 121.713 165.82 123.089 161.467 124.195L132.413 131.572C122.429 134.106 112.428 136.575 102.412 138.981C98.193 139.977 93.9874 141.081 89.739 141.939C85.894 142.717 82.1718 141.586 80.5173 137.755C77.0356 129.694 73.9612 121.422 70.608 113.298C68.9082 109.18 69.2141 107.14 70.3986 103.049Z" fill="#FFDB33"/>
<path d="M174.679 118.482C175.827 116.974 174.91 116.494 175.682 116.259C184.263 113.649 195.906 111.271 204.312 108.832C203.594 110.57 202.807 112.385 202.127 114.128C193.836 116.396 185.022 118.414 176.648 120.446C176.27 119.472 176.394 119.357 175.694 118.767L175.141 118.696L174.679 118.482Z" fill="#FFDB33"/>
<path d="M224.442 103.032C224.569 103.663 223.54 105.81 223.191 106.408C221.812 108.765 219.147 109.892 216.634 110.544C212.489 111.62 208.336 112.643 204.179 113.662C204.031 112.857 205.67 109.369 206.09 108.381C211.696 107.089 219.271 105.372 224.442 103.032Z" fill="#FFDB33"/>
<path d="M63.2925 119.467C63.9553 120.02 65.357 124.742 65.7297 125.887C63.7817 126.517 61.9105 126.924 59.9168 127.383C58.9996 126.791 57.7164 122.288 57.2738 120.962L63.2925 119.467Z" fill="#E7E2EB"/>
<path d="M325.201 129.68L325.432 130.039C324.777 134.627 322.492 148.468 318.375 149.982C314.144 151.539 307.162 153.217 302.632 154.375L275.084 161.366L188.361 183.222L188.029 182.922C189.846 176.458 191.912 169.908 193.822 163.446L284.436 140.795L307.384 135.067C312.473 133.798 320.821 132.142 325.201 129.68Z" fill="#01C971"/>
<path d="M190.813 164.231L191.075 164.257C191.123 164.39 191.17 164.523 191.218 164.656C189.399 170.129 186.983 178.835 185.225 184.012C175.808 186.157 165.482 188.999 156.061 191.379L101.612 205.113L79.1426 210.813C73.8423 212.152 66.4239 214.816 61.2284 213.341C61.1659 212.78 67.0226 194.566 67.7249 192.337C74.0278 194.559 81.3107 191.779 87.6627 190.187L110.828 184.323L190.813 164.231Z" fill="#01ABFF"/>
<path d="M15.6959 72.1143C16.264 73.1347 17.8099 77.4124 18.3415 78.7638L23.5847 91.86L48.1778 153.138L56.5031 174.094C58.232 178.447 59.9089 183.014 62.0009 187.188C62.7705 188.724 64.4241 190.18 65.7124 191.318L59.1456 211.858L58.9511 212.084L58.4985 212.093C55.0745 210.067 52.2946 201.269 50.7828 197.482L43.3314 179.009L19.2359 119.052C16.5392 112.286 11.2862 100.295 9.74398 93.6474C9.16886 91.1684 14.5762 75.6079 15.6959 72.1143Z" fill="#FF5C57"/>
</svg>
