<svg width="102" height="90" viewBox="0 0 102 90" fill="none" xmlns="http://www.w3.org/2000/svg">
<path d="M81.3556 55.2491C77.9665 55.4369 74.6064 54.4768 72.0247 52.5842C69.4392 50.6898 67.8507 48.0151 67.6183 45.1597C67.3878 42.3062 68.5105 39.5103 70.7443 37.3861C72.9657 35.3138 76.0814 34.0687 79.4205 33.9175C82.8258 33.7727 85.6805 34.684 88.3724 36.4127C86.321 28.9012 82.6918 21.2237 75.991 15.7077C72.302 12.672 67.2833 10.462 62.0416 10.9376C42.5199 13.1687 40.4472 37.9992 43.038 50.8732C44.9281 60.2584 48.8738 70.888 58.2651 76.9901C61.6913 79.2209 66.6521 80.5493 70.8918 80.0476C77.9694 79.2109 82.6052 74.2453 85.5353 69.2226C88.6124 63.6794 89.8139 57.6606 90.0764 51.5561C87.8227 53.7199 84.823 55.0683 81.3556 55.2491Z" fill="#FFDB33"/>
<path d="M61.2074 8.28763C66.0534 7.7008 71.44 9.36157 75.2839 11.8365C85.2391 18.247 90.5157 29.7192 92.3284 39.7751C92.8538 42.6119 93.1746 45.4713 93.2878 48.3346C93.5469 57.5715 91.1922 68.0479 84.5852 75.5573C81.238 79.3623 76.824 82.1494 71.093 82.7933C70.2229 82.8764 69.4845 82.8557 68.621 82.8394C64.5792 82.7654 60.5083 81.5357 57.164 79.5808C47.7293 74.0683 42.5957 63.1199 40.483 54.0169C37.7035 42.0418 38.2297 26.7668 46.4013 16.4465C49.091 13.0471 53.1899 10.149 57.8572 8.94036C59.0745 8.6249 59.9457 8.47427 61.2075 8.28594L61.2074 8.28763ZM85.5106 69.235C88.5877 63.6918 89.7891 57.6729 90.0517 51.5684C87.7979 53.7322 84.7983 55.0806 81.3309 55.2614C77.9418 55.4493 74.5816 54.4891 72 52.5966C69.4144 50.7021 67.8259 48.0274 67.5936 45.1721C67.3631 42.3186 68.4858 39.5226 70.7196 37.3985C72.9409 35.3261 76.0567 34.0811 79.3958 33.9298C82.801 33.785 85.6557 34.6964 88.3477 36.425C86.2963 28.9136 82.6671 21.2361 75.9663 15.72C72.2772 12.6843 67.2586 10.4744 62.0168 10.9499C42.4932 13.1809 40.4205 38.0115 43.0112 50.8855C44.9013 60.2706 48.8471 70.9003 58.2384 77.0024C61.6645 79.2332 66.6253 80.5616 70.865 80.0599C77.9426 79.2232 82.5784 74.2575 85.5086 69.2349L85.5106 69.235Z" fill="black"/>
<path d="M44.3261 58.7736C40.9369 58.9614 37.5768 58.0013 34.9952 56.1087C32.4096 54.2143 30.8211 51.5395 30.5887 48.6842C30.3583 45.8307 31.4809 43.0348 33.7148 40.9106C35.9361 38.8382 39.0519 37.5932 42.3909 37.442C45.7962 37.2971 48.6509 38.2085 51.3429 39.9372C49.2914 32.4257 45.6622 24.7482 38.9615 19.2321C35.2724 16.1965 30.2537 13.9865 25.012 14.4621C5.49037 16.6932 3.41766 41.5237 6.00841 54.3977C7.89853 63.7828 11.8443 74.4125 21.2355 80.5146C24.6617 82.7454 29.6225 84.0738 33.8622 83.5721C40.9398 82.7354 45.5756 77.7698 48.5057 72.7471C51.5829 67.2039 52.7843 61.1851 53.0469 55.0805C50.7931 57.2443 47.7934 58.5928 44.3261 58.7736Z" fill="#FFDB33"/>
<path d="M24.1778 11.8122C29.0238 11.2253 34.4104 12.8861 38.2543 15.3611C48.2095 21.7715 53.4861 33.2437 55.2988 43.2996C55.8242 46.1364 56.145 48.9958 56.2582 51.8591C56.5173 61.096 54.1626 71.5725 47.5556 79.0818C44.2084 82.8868 39.7944 85.674 34.0634 86.3178C33.1933 86.4009 32.4549 86.3802 31.5914 86.3639C27.5496 86.29 23.4787 85.0603 20.1344 83.1053C10.6997 77.5928 5.56607 66.6445 3.45338 57.5414C0.673925 45.5663 1.20009 30.2913 9.37167 19.971C12.0614 16.5716 16.1603 13.6735 20.8276 12.4649C22.0449 12.1494 22.9161 11.9988 24.1779 11.8105L24.1778 11.8122ZM48.481 72.7595C51.5581 67.2163 52.7595 61.1975 53.0221 55.0929C50.7683 57.2568 47.7687 58.6052 44.3013 58.786C40.9122 58.9738 37.552 58.0137 34.9704 56.1211C32.3848 54.2267 30.7963 51.5519 30.564 48.6966C30.3335 45.8431 31.4562 43.0472 33.69 40.923C35.9113 38.8506 39.0271 37.6056 42.3662 37.4544C45.7714 37.3095 48.6261 38.2209 51.3181 39.9496C49.2667 32.4381 45.6375 24.7606 38.9367 19.2446C35.2476 16.2089 30.229 13.9989 24.9872 14.4745C5.46359 16.7055 3.39087 41.536 5.98163 54.41C7.87175 63.7952 11.8175 74.4248 21.2088 80.5269C24.6349 82.7577 29.5957 84.0861 33.8354 83.5844C40.913 82.7477 45.5488 77.7821 48.479 72.7594L48.481 72.7595Z" fill="black"/>
<path d="M88.0328 50.1545C84.6436 50.3423 81.2835 49.3822 78.7019 47.4896C76.1163 45.5952 74.5278 42.9205 74.2954 40.0651C74.065 37.2116 75.1876 34.4157 77.4214 32.2915C79.6428 30.2191 82.7585 28.9741 86.0976 28.8229C89.5029 28.6781 92.3576 29.5894 95.0496 31.3181C92.9981 23.8066 89.3689 16.1291 82.6682 10.6131C78.9791 7.57737 73.9604 5.36744 68.7187 5.84298C49.1971 8.07408 47.1244 32.9046 49.7151 45.7786C51.6052 55.1638 55.551 65.7934 64.9422 71.8955C68.3684 74.1263 73.3292 75.4547 77.5689 74.953C84.6465 74.1163 89.2823 69.1507 92.2124 64.128C95.2895 58.5848 96.491 52.566 96.7536 46.4614C94.4998 48.6253 91.5001 49.9737 88.0328 50.1545Z" fill="white"/>
<path d="M67.8845 3.19302C72.7305 2.60619 78.1171 4.26696 81.9611 6.74193C91.9162 13.1524 97.1928 24.6246 99.0056 34.6805C99.5309 37.5173 99.8518 40.3767 99.9649 43.24C100.224 52.4769 97.8693 62.9533 91.2623 70.4626C87.9152 74.2677 83.5011 77.0548 77.7701 77.6987C76.9 77.7818 76.1616 77.7611 75.2981 77.7448C71.2563 77.6708 67.1854 76.4411 63.8412 74.4862C54.4065 68.9737 49.2728 58.0253 47.1601 48.9223C44.3807 36.9472 44.9068 21.6722 53.0784 11.3519C55.7681 7.95248 59.867 5.05439 64.5343 3.84575C65.7516 3.5303 66.6228 3.37966 67.8846 3.19134L67.8845 3.19302ZM92.1877 64.1403C95.2648 58.5972 96.4662 52.5783 96.7288 46.4738C94.4751 48.6376 91.4754 49.986 88.008 50.1668C84.6189 50.3547 81.2588 49.3945 78.6771 47.502C76.0916 45.6075 74.5031 42.9328 74.2707 40.0775C74.0402 37.224 75.1629 34.428 77.3967 32.3039C79.618 30.2315 82.7338 28.9865 86.0729 28.8352C89.4781 28.6904 92.3329 29.6018 95.0248 31.3304C92.9734 23.819 89.3442 16.1415 82.6434 10.6254C78.9543 7.58973 73.9357 5.37979 68.694 5.85534C49.1703 8.08634 47.0976 32.9169 49.6884 45.7909C51.5785 55.176 55.5242 65.8057 64.9155 71.9078C68.3417 74.1386 73.3024 75.467 77.5421 74.9653C84.6197 74.1286 89.2556 69.1629 92.1857 64.1403L92.1877 64.1403Z" fill="black"/>
<path d="M51.0032 53.679C47.614 53.8668 44.2539 52.9066 41.6723 51.0141C39.0867 49.1197 37.4982 46.4449 37.2658 43.5896C37.0354 40.7361 38.158 37.9402 40.3918 35.816C42.6132 33.7436 45.7289 32.4986 49.068 32.3473C52.4733 32.2025 55.328 33.1139 58.02 34.8426C55.9685 27.3311 52.3393 19.6536 45.6386 14.1375C41.9495 11.1018 36.9308 8.89191 31.6891 9.36746C12.1675 11.5986 10.0948 36.4291 12.6855 49.3031C14.5756 58.6882 18.5214 69.3179 27.9126 75.42C31.3388 77.6508 36.2996 78.9792 40.5393 78.4775C47.6169 77.6408 52.2527 72.6751 55.1828 67.6525C58.2599 62.1093 59.4614 56.0905 59.724 49.9859C57.4702 52.1497 54.4705 53.4982 51.0032 53.679Z" fill="white"/>
<path d="M30.8549 6.71744C35.7009 6.13061 41.0875 7.79138 44.9315 10.2663C54.8866 16.6768 60.1632 28.149 61.976 38.2049C62.5013 41.0417 62.8222 43.9011 62.9353 46.7644C63.1945 56.0013 60.8397 66.4777 54.2327 73.9871C50.8856 77.7921 46.4715 80.5792 40.7405 81.2231C39.8704 81.3062 39.132 81.2855 38.2685 81.2692C34.2267 81.1952 30.1558 79.9655 26.8116 78.0106C17.3769 72.4981 12.2432 61.5497 10.1305 52.4467C7.35105 40.4716 7.87721 25.1966 16.0488 14.8763C18.7385 11.4769 22.8374 8.57881 27.5047 7.37017C28.722 7.05471 29.5932 6.90408 30.855 6.71575L30.8549 6.71744ZM55.1581 67.6648C58.2352 62.1216 59.4366 56.1028 59.6992 49.9982C57.4455 52.162 54.4458 53.5104 50.9784 53.6913C47.5893 53.8791 44.2292 52.9189 41.6475 51.0264C39.062 49.132 37.4735 46.4572 37.2411 43.6019C37.0106 40.7484 38.1333 37.9524 40.3671 35.8283C42.5884 33.7559 45.7042 32.5109 49.0433 32.3596C52.4485 32.2148 55.3033 33.1262 57.9952 34.8548C55.9438 27.3434 52.3146 19.6659 45.6138 14.1498C41.9247 11.1141 36.9061 8.90421 31.6644 9.37975C12.1407 11.6108 10.068 36.4413 12.6588 49.3153C14.5489 58.7004 18.4946 69.3301 27.8859 75.4322C31.3121 77.663 36.2728 78.9914 40.5125 78.4897C47.5901 77.653 52.226 72.6873 55.1561 67.6647L55.1581 67.6648Z" fill="black"/>
</svg>
