<svg width="596" height="214" viewBox="0 0 596 214" fill="none" xmlns="http://www.w3.org/2000/svg" xmlns:xlink="http://www.w3.org/1999/xlink">
<rect width="598" height="214" fill="url(#pattern0_524_2569)"/>
<defs>
<pattern id="pattern0_524_2569" patternUnits="userSpaceOnUse" patternTransform="matrix(285 0 0 214 156.5 0)" preserveAspectRatio="none" viewBox="0 0 285 214" width="1" height="1">
<g id="pattern0_524_2569_inner">
<g clip-path="url(#clip0_524_2569)">
<mask id="path-1-inside-1_524_2569" fill="white">
<path d="M64.4512 247.746V136.849C64.4512 93.7585 99.3825 58.8271 142.473 58.8271C185.563 58.8271 220.494 93.7585 220.494 136.849V247.746"/>
</mask>
<path d="M64.4512 247.746V136.849C64.4512 93.7585 99.3825 58.8271 142.473 58.8271C185.563 58.8271 220.494 93.7585 220.494 136.849V247.746" fill="#FF5C57"/>
<path d="M64.4512 247.746H65.4512V136.849H64.4512H63.4512V247.746H64.4512ZM64.4512 136.849H65.4512C65.4512 94.3108 99.9348 59.8271 142.473 59.8271V58.8271V57.8271C98.8303 57.8271 63.4512 93.2062 63.4512 136.849H64.4512ZM142.473 58.8271V59.8271C185.011 59.8271 219.494 94.3108 219.494 136.849H220.494H221.494C221.494 93.2062 186.115 57.8271 142.473 57.8271V58.8271ZM220.494 136.849H219.494V247.746H220.494H221.494V136.849H220.494Z" fill="black" mask="url(#path-1-inside-1_524_2569)"/>
<path d="M186.642 103.545C186.615 107.75 186.249 111.245 185.584 114.198C185.411 114.965 185.218 115.695 185.006 116.392C184.475 118.133 183.824 119.663 183.062 121.029C180.48 125.662 176.601 128.46 171.721 131.135L171.719 131.137L171.709 131.142C169.766 132.204 167.112 132.933 164.179 133.524C161.243 134.116 158.108 134.554 155.167 135.064C152.254 135.57 149.535 136.147 147.538 137.015C145.738 137.797 144.363 138.893 144.131 140.526H140.816C140.584 138.893 139.21 137.797 137.409 137.015C135.413 136.147 132.694 135.57 129.78 135.064C126.839 134.554 123.704 134.116 120.769 133.524C118.019 132.97 115.515 132.294 113.611 131.337L113.238 131.142L113.229 131.137C113.228 131.136 113.227 131.135 113.226 131.135H113.227C108.632 128.616 104.927 125.991 102.354 121.83C101.389 120.268 100.578 118.481 99.9414 116.393C99.7293 115.696 99.5359 114.965 99.3633 114.198C98.698 111.245 98.3315 107.749 98.3047 103.545H186.642Z" fill="#FFDB33" stroke="black"/>
<path d="M144.596 141.025H140.352" stroke="black"/>
<path d="M142.474 88.3691C154.77 88.3691 165.881 90.0627 173.9 92.7871C177.913 94.1501 181.123 95.7621 183.321 97.5273C185.524 99.2963 186.645 101.164 186.645 103.045C186.644 104.925 185.524 106.794 183.321 108.562C181.124 110.328 177.912 111.939 173.9 113.302C165.881 116.026 154.77 117.721 142.474 117.721C130.178 117.721 119.067 116.026 111.048 113.302C107.036 111.939 103.824 110.328 101.626 108.562C99.4235 106.794 98.3028 104.925 98.3027 103.045C98.3027 101.164 99.4236 99.2963 101.626 97.5273C103.824 95.762 107.036 94.1501 111.048 92.7871C119.067 90.0628 130.178 88.3691 142.474 88.3691Z" fill="#01ABFF" stroke="black"/>
<path d="M142.474 93.0762C156.198 93.0763 167.919 101.648 172.581 113.729C164.682 116.201 154.109 117.721 142.474 117.721C130.838 117.721 120.264 116.202 112.365 113.729C117.027 101.647 128.749 93.0762 142.474 93.0762Z" fill="white" stroke="black"/>
<path d="M95.3525 141.529C120.479 141.797 140.796 162.115 141.064 187.241C115.938 186.973 95.6204 166.656 95.3525 141.529Z" fill="#01C971" stroke="black"/>
<path d="M95.6396 141.536L141.058 186.953C141.059 187.048 141.06 187.143 141.062 187.238C140.967 187.237 140.872 187.236 140.776 187.234L95.3594 141.816C95.3576 141.721 95.3568 141.627 95.3555 141.532C95.45 141.534 95.5447 141.534 95.6396 141.536Z" fill="#271C24" stroke="black"/>
<path d="M189.594 141.53C189.326 166.657 169.009 186.974 143.882 187.242C144.15 162.116 164.468 141.798 189.594 141.53Z" fill="#01C971" stroke="black"/>
<path d="M189.587 141.817L144.169 187.235C144.074 187.237 143.979 187.238 143.885 187.239C143.886 187.144 143.887 187.049 143.889 186.954L189.306 141.537C189.401 141.535 189.496 141.535 189.591 141.533C189.59 141.628 189.589 141.722 189.587 141.817Z" fill="#271C24" stroke="black"/>
<path d="M95.3525 193.916C120.479 194.184 140.796 214.501 141.064 239.628C115.938 239.36 95.6204 219.042 95.3525 193.916Z" fill="#01C971" stroke="black"/>
<path d="M95.6396 193.923L141.058 239.34C141.059 239.435 141.06 239.53 141.062 239.625C140.967 239.624 140.872 239.623 140.776 239.621L95.3594 194.203C95.3576 194.108 95.3568 194.014 95.3555 193.919C95.45 193.92 95.5447 193.921 95.6396 193.923Z" fill="#271C24" stroke="black"/>
<path d="M189.594 193.915C189.326 219.041 169.009 239.359 143.882 239.627C144.15 214.501 164.468 194.183 189.594 193.915Z" fill="#01C971" stroke="black"/>
<path d="M189.587 194.202L144.169 239.62C144.074 239.622 143.979 239.623 143.885 239.624C143.886 239.529 143.887 239.434 143.889 239.339L189.306 193.922C189.401 193.92 189.496 193.919 189.591 193.918C189.59 194.013 189.589 194.107 189.587 194.202Z" fill="#271C24" stroke="black"/>
<path d="M144.096 141.526V213.792H140.852V141.526H144.096Z" fill="white" stroke="black"/>
<path d="M144.096 141.526V149.677L140.852 152.921V141.526H144.096Z" fill="#271C24" stroke="black"/>
<path d="M297.204 157.545L217.062 73.1582L297.204 -11.2275V157.545Z" fill="#01ABFF" stroke="black"/>
<path d="M67.8838 73.1582L-12.2578 157.545V-11.2275L67.8838 73.1582Z" fill="#01ABFF" stroke="black"/>
<path d="M57.309 81.3574L59.7566 83.8057L58.8305 84.7316L56.3829 82.2833L57.309 81.3574Z" fill="#01C971" stroke="black"/>
<path d="M49.9614 81.3584L59.7551 91.1549L58.829 92.0808L49.0352 82.2843L49.9614 81.3584Z" fill="#01C971" stroke="black"/>
<path d="M42.6136 81.3553L59.7566 98.4983L58.8306 99.4243L41.6876 82.2812L42.6136 81.3553Z" fill="#01C971" stroke="black"/>
<path d="M42.6154 88.6988L52.4119 98.4925L51.486 99.4186L41.6895 89.6249L42.6154 88.6988Z" fill="#01C971" stroke="black"/>
<path d="M44.3633 97.8008L45.0615 98.499L44.1357 99.4248L41.6875 96.9766L42.6143 96.0508C43.1972 96.6343 43.7802 97.2177 44.3633 97.8008Z" fill="#01C971" stroke="black"/>
<path d="M27.4023 51.5996C27.3782 53.6225 27.2095 55.3526 26.9072 56.8486L26.7578 57.5254C26.6523 57.9655 26.5339 58.3834 26.4043 58.7822V58.7832C26.0161 59.9782 25.5224 60.9974 24.9355 61.8877C23.3763 64.253 21.1273 65.7582 18.2998 67.2139L18.2705 67.2285C17.0921 67.8327 15.4655 68.2529 13.6436 68.5957C11.8204 68.9388 9.87905 69.1924 8.04004 69.4902C6.22704 69.7838 4.51542 70.1205 3.25098 70.6328C2.19095 71.0623 1.27613 71.6889 1.04102 72.6602H-0.544922C-0.780016 71.6889 -1.69484 71.0623 -2.75488 70.6328C-4.01929 70.1205 -5.73093 69.7838 -7.54395 69.4902C-9.38288 69.1924 -11.3244 68.9387 -13.1475 68.5957C-14.9693 68.2529 -16.596 67.8326 -17.7744 67.2285L-17.7998 67.2158C-20.8054 65.6685 -23.1603 64.066 -24.7256 61.4316C-25.1883 60.6527 -25.5844 59.7786 -25.9082 58.7822C-25.973 58.5828 -26.0349 58.3784 -26.0938 58.1689L-26.2617 57.5254L-26.4111 56.8477C-26.7134 55.3516 -26.8821 53.6218 -26.9062 51.5996H27.4023Z" fill="#FFDB33" stroke="black"/>
<path d="M-0.984375 73.1592H1.48087" stroke="black"/>
<path d="M0.248047 42.2021C7.84642 42.2022 14.7045 43.2492 19.6455 44.9277C22.1184 45.7678 24.0838 46.7572 25.4209 47.8311C26.7625 48.9086 27.4081 50.0161 27.4082 51.0986C27.4082 52.1813 26.7626 53.2896 25.4209 54.3672C24.0838 55.441 22.1183 56.4295 19.6455 57.2695C14.7044 58.9481 7.8465 59.9961 0.248047 59.9961C-7.35035 59.9961 -14.2083 58.9481 -19.1494 57.2695C-21.6225 56.4294 -23.5887 55.4411 -24.9258 54.3672C-26.2674 53.2896 -26.9121 52.1813 -26.9121 51.0986C-26.912 50.0161 -26.2672 48.9085 -24.9258 47.8311C-23.5887 46.7571 -21.6225 45.7679 -19.1494 44.9277C-14.2084 43.2492 -7.35026 42.2021 0.248047 42.2021Z" fill="#271C24" stroke="black"/>
<path d="M0.248047 46.834C7.85933 46.834 14.394 51.4263 17.2451 57.9912C12.5844 59.2416 6.68123 59.9951 0.248047 59.9951C-6.18569 59.9951 -12.0891 59.2418 -16.75 57.9912C-13.8991 51.426 -7.36333 46.8341 0.248047 46.834Z" fill="white" stroke="black"/>
<path d="M27.4014 74.3701C27.1348 88.6779 15.5875 100.226 1.2793 100.492C1.54612 86.1845 13.0937 74.6369 27.4014 74.3701Z" fill="#01C971" stroke="black"/>
<path d="M27.4014 102.693C27.1348 117.001 15.5875 128.549 1.2793 128.815C1.54612 114.508 13.0937 102.96 27.4014 102.693Z" fill="#01C971" stroke="black"/>
<path d="M27.4014 131.017C27.1348 145.325 15.5875 156.872 1.2793 157.139C1.54612 142.831 13.0937 131.283 27.4014 131.017Z" fill="#01C971" stroke="black"/>
<path d="M27.4014 159.341C27.1348 173.649 15.5875 185.196 1.2793 185.463C1.54612 171.155 13.0937 159.608 27.4014 159.341Z" fill="#01C971" stroke="black"/>
<path d="M27.4014 187.662C27.1348 201.97 15.5875 213.518 1.2793 213.784C1.54612 199.476 13.0937 187.929 27.4014 187.662Z" fill="#01C971" stroke="black"/>
<path d="M0.980469 73.6592V213.792H-0.484375V73.6592H0.980469Z" fill="#01C971" stroke="black"/>
<path d="M0.980469 73.6592V79.5605L-0.484375 78.0957V73.6592H0.980469Z" fill="#271C24" stroke="black"/>
<path d="M302.733 67.2217L302.722 67.2285C301.543 67.8327 299.917 68.2529 298.095 68.5957C296.272 68.9387 294.33 69.1924 292.491 69.4902C290.678 69.7838 288.966 70.1205 287.701 70.6328C286.641 71.0623 285.727 71.6891 285.492 72.6602H283.906C283.671 71.6889 282.756 71.0623 281.696 70.6328C280.432 70.1205 278.72 69.7838 276.907 69.4902C275.068 69.1924 273.127 68.9387 271.304 68.5957C269.482 68.2529 267.854 67.8327 266.676 67.2285C266.668 67.2244 266.661 67.2204 266.655 67.2178C266.653 67.2167 266.651 67.2158 266.648 67.2148C263.82 65.759 261.571 64.2534 260.012 61.8877C259.425 60.9973 258.931 59.9782 258.543 58.7832V58.7822C258.478 58.583 258.416 58.3791 258.357 58.1699L258.189 57.5254C257.794 55.8801 257.573 53.9349 257.545 51.5996H311.854C311.829 53.6218 311.66 55.3516 311.357 56.8477L311.208 57.5254C311.102 57.9651 310.985 58.3836 310.855 58.7822C310.572 59.6542 310.232 60.432 309.842 61.1348L309.672 61.4316C308.106 64.0669 305.75 65.67 302.743 67.2178H302.742C302.741 67.2183 302.74 67.2193 302.739 67.2197C302.735 67.2218 302.731 67.2245 302.73 67.2246C302.73 67.2249 302.731 67.2228 302.733 67.2217Z" fill="#FFDB33" stroke="black"/>
<path d="M285.932 73.1592H283.467" stroke="black"/>
<path d="M284.699 42.2021C292.298 42.2022 299.156 43.2492 304.097 44.9277C306.57 45.7678 308.535 46.7572 309.872 47.8311C311.214 48.9086 311.859 50.0161 311.859 51.0986C311.859 52.1813 311.214 53.2896 309.872 54.3672C308.535 55.441 306.569 56.4295 304.097 57.2695C299.156 58.9481 292.298 59.9961 284.699 59.9961C277.101 59.9961 270.243 58.9481 265.302 57.2695C262.829 56.4294 260.862 55.4411 259.525 54.3672C258.184 53.2896 257.539 52.1813 257.539 51.0986C257.539 50.0161 258.184 48.9085 259.525 47.8311C260.862 46.7571 262.829 45.7679 265.302 44.9277C270.243 43.2492 277.101 42.2021 284.699 42.2021Z" fill="#271C24" stroke="black"/>
<path d="M284.699 46.834C292.311 46.834 298.847 51.4261 301.697 57.9912C297.036 59.2417 291.133 59.9951 284.699 59.9951C278.265 59.9951 272.362 59.2418 267.701 57.9912C270.552 51.426 277.088 46.8341 284.699 46.834Z" fill="white" stroke="black"/>
<path d="M257.545 74.3701C271.853 74.6366 283.4 86.1843 283.667 100.492C269.359 100.225 257.811 88.6777 257.545 74.3701Z" fill="#01C971" stroke="black"/>
<path d="M257.545 102.693C271.853 102.96 283.4 114.508 283.667 128.815C269.359 128.549 257.811 117.001 257.545 102.693Z" fill="#01C971" stroke="black"/>
<path d="M257.545 131.017C271.853 131.283 283.4 142.831 283.667 157.139C269.359 156.872 257.811 145.325 257.545 131.017Z" fill="#01C971" stroke="black"/>
<path d="M257.545 159.341C271.853 159.607 283.4 171.155 283.667 185.463C269.359 185.196 257.811 173.649 257.545 159.341Z" fill="#01C971" stroke="black"/>
<path d="M257.545 187.662C271.853 187.929 283.4 199.476 283.667 213.784C269.359 213.517 257.811 201.97 257.545 187.662Z" fill="#01C971" stroke="black"/>
<path d="M285.432 73.6592V213.792H283.967V73.6592H285.432Z" fill="#01C971" stroke="black"/>
<path d="M285.432 73.6592V78.0967L283.967 79.5615V73.6592H285.432Z" fill="#271C24" stroke="black"/>
<path d="M144.114 50.9365L144.287 52.0596L144.999 51.1738L151.742 42.7725L147.84 52.8145L147.429 53.873L148.487 53.4609L158.529 49.5566L150.128 56.3027L149.241 57.0137L150.364 57.1865L161.012 58.8262L150.364 60.4668L149.241 60.6406L150.127 61.3516L158.528 68.0957L148.487 64.1924L147.429 63.7812L147.84 64.8398L151.742 74.8799L144.999 66.4805L144.287 65.5938L144.114 66.7168L142.474 77.3643L140.834 66.7168L140.661 65.5938L139.95 66.4805L133.204 74.8818L137.108 64.8398L137.521 63.7812L136.462 64.1924L126.419 68.0957L134.821 61.3516L135.707 60.6406L134.584 60.4668L123.936 58.8262L134.584 57.1865L135.707 57.0137L134.821 56.3027L126.418 49.5566L136.462 53.4609L137.521 53.873L137.108 52.8145L133.204 42.7705L139.95 51.1738L140.661 52.0596L140.834 50.9365L142.474 40.2881L144.114 50.9365Z" fill="#01C971" stroke="black"/>
<path d="M232.225 40.2031C232.556 40.2031 232.803 40.2733 232.998 40.3828C233.194 40.4933 233.365 40.6592 233.518 40.8896C233.835 41.369 234.041 42.0647 234.248 42.9355C234.448 43.7755 234.646 44.7652 234.964 45.6982C235.285 46.6398 235.742 47.5771 236.497 48.332C237.252 49.087 238.189 49.5445 239.131 49.8652C240.064 50.183 241.053 50.3815 241.893 50.5811C242.764 50.7881 243.46 50.9938 243.939 51.3115C244.17 51.4642 244.336 51.634 244.446 51.8301C244.556 52.0247 244.626 52.2723 244.626 52.6035C244.626 52.9347 244.556 53.1823 244.446 53.377C244.336 53.5731 244.17 53.7438 243.939 53.8965C243.46 54.2141 242.764 54.42 241.894 54.627C241.054 54.8265 240.064 55.024 239.131 55.3418C238.189 55.6626 237.252 56.1209 236.497 56.876C235.742 57.6308 235.285 58.5674 234.964 59.5088C234.646 60.4418 234.448 61.4316 234.248 62.2715C234.041 63.1423 233.835 63.838 233.518 64.3174C233.365 64.5479 233.194 64.7138 232.998 64.8242C232.803 64.9338 232.556 65.0039 232.225 65.0039C231.893 65.0038 231.646 64.9338 231.451 64.8242C231.255 64.7138 231.085 64.5477 230.933 64.3174C230.615 63.838 230.408 63.1424 230.201 62.2715C230.002 61.4316 229.804 60.4418 229.486 59.5088C229.166 58.5674 228.707 57.6309 227.952 56.876C227.197 56.1212 226.261 55.6635 225.319 55.3428C224.386 55.0249 223.397 54.8266 222.557 54.627C221.686 54.42 220.99 54.2141 220.511 53.8965C220.28 53.7437 220.114 53.5732 220.004 53.377C219.894 53.1823 219.824 52.9348 219.824 52.6035C219.824 52.2723 219.894 52.0247 220.004 51.8301C220.114 51.634 220.28 51.4642 220.511 51.3115C220.99 50.9939 221.686 50.7881 222.557 50.5811C223.397 50.3814 224.386 50.1831 225.319 49.8652C226.261 49.5445 227.197 49.0868 227.952 48.332C228.707 47.577 229.166 46.6398 229.486 45.6982C229.804 44.7651 230.003 43.7755 230.202 42.9355C230.409 42.0647 230.615 41.369 230.933 40.8896C231.085 40.6593 231.255 40.4933 231.451 40.3828C231.646 40.2732 231.893 40.2032 232.225 40.2031Z" fill="black" stroke="black"/>
<path d="M195.617 40.2031C195.949 40.2031 196.197 40.2732 196.392 40.3828C196.588 40.4933 196.757 40.6593 196.91 40.8896C197.228 41.369 197.434 42.0647 197.641 42.9355C197.84 43.7754 198.039 44.7652 198.356 45.6982C198.677 46.6398 199.136 47.5771 199.891 48.332C200.646 49.0868 201.582 49.5445 202.523 49.8652C203.456 50.1831 204.446 50.3814 205.286 50.5811C206.157 50.7881 206.853 50.9939 207.332 51.3115C207.562 51.4642 207.728 51.634 207.839 51.8301C207.948 52.0247 208.018 52.2723 208.019 52.6035C208.019 52.9347 207.948 53.1823 207.839 53.377C207.728 53.5731 207.562 53.7438 207.332 53.8965C206.853 54.2141 206.157 54.42 205.286 54.627C204.446 54.8265 203.456 55.024 202.523 55.3418C201.582 55.6625 200.646 56.1211 199.891 56.876C199.136 57.6308 198.677 58.5674 198.356 59.5088C198.039 60.4418 197.84 61.4316 197.641 62.2715C197.434 63.1423 197.228 63.838 196.91 64.3174C196.757 64.5479 196.587 64.7138 196.391 64.8242C196.196 64.9338 195.949 65.0039 195.617 65.0039C195.286 65.0038 195.038 64.9338 194.844 64.8242C194.648 64.7138 194.478 64.5477 194.325 64.3174C194.008 63.838 193.802 63.1423 193.595 62.2715C193.395 61.4316 193.197 60.4418 192.879 59.5088C192.558 58.5674 192.101 57.6308 191.346 56.876H191.345C190.59 56.1213 189.653 55.6635 188.712 55.3428C187.779 55.0249 186.789 54.8266 185.949 54.627C185.078 54.42 184.383 54.2141 183.903 53.8965C183.673 53.7437 183.507 53.5732 183.396 53.377C183.287 53.1823 183.217 52.9348 183.217 52.6035C183.217 52.2723 183.287 52.0247 183.396 51.8301C183.507 51.634 183.673 51.4642 183.903 51.3115C184.383 50.9939 185.078 50.788 185.949 50.5811C186.789 50.3814 187.779 50.1831 188.712 49.8652C189.653 49.5445 190.591 49.087 191.346 48.332V48.3311C192.1 47.5761 192.558 46.6396 192.879 45.6982C193.197 44.7651 193.395 43.7755 193.595 42.9355C193.802 42.0647 194.008 41.369 194.325 40.8896C194.478 40.6593 194.648 40.4933 194.844 40.3828C195.038 40.2733 195.286 40.2032 195.617 40.2031Z" fill="black" stroke="black"/>
<path d="M52.7207 40.2031C53.0519 40.2031 53.2995 40.2733 53.4941 40.3828C53.6903 40.4933 53.8609 40.6592 54.0137 40.8896C54.3313 41.369 54.5372 42.0647 54.7441 42.9355C54.9438 43.7755 55.1421 44.7651 55.46 45.6982C55.7807 46.6397 56.2384 47.5761 56.9932 48.3311V48.332C57.748 49.0868 58.6846 49.5445 59.626 49.8652C60.559 50.1831 61.5488 50.3814 62.3887 50.5811C63.2595 50.788 63.9552 50.994 64.4346 51.3115C64.6648 51.4641 64.831 51.6341 64.9414 51.8301C65.051 52.0247 65.121 52.2723 65.1211 52.6035C65.1211 52.9349 65.051 53.1823 64.9414 53.377C64.831 53.5732 64.665 53.7437 64.4346 53.8965C63.9552 54.214 63.2595 54.42 62.3887 54.627C61.5488 54.8266 60.559 55.0249 59.626 55.3428C58.6846 55.6635 57.748 56.1211 56.9932 56.876C56.2382 57.6309 55.7798 58.5673 55.459 59.5088C55.1411 60.4418 54.9437 61.4316 54.7441 62.2715C54.5372 63.1423 54.3312 63.838 54.0137 64.3174C53.861 64.5479 53.6903 64.7138 53.4941 64.8242C53.2995 64.9338 53.0521 65.0039 52.7207 65.0039C52.3895 65.0038 52.1419 64.9338 51.9473 64.8242C51.7513 64.7138 51.5813 64.5477 51.4287 64.3174C51.1111 63.838 50.9052 63.1423 50.6982 62.2715C50.4986 61.4316 50.3003 60.4418 49.9824 59.5088C49.6616 58.5674 49.2032 57.6308 48.4482 56.876C47.6933 56.121 46.7569 55.6625 45.8154 55.3418C44.8824 55.0239 43.8926 54.8266 43.0527 54.627C42.1819 54.42 41.4862 54.2141 41.0068 53.8965C40.7764 53.7438 40.6104 53.5731 40.5 53.377C40.3905 53.1823 40.3203 52.9348 40.3203 52.6035C40.3204 52.2723 40.3904 52.0247 40.5 51.8301C40.6104 51.634 40.7765 51.4642 41.0068 51.3115C41.4862 50.9939 42.1818 50.7881 43.0527 50.5811C43.8927 50.3814 44.8824 50.1831 45.8154 49.8652C46.7568 49.5445 47.6933 49.0868 48.4482 48.332C49.2032 47.5771 49.6617 46.6398 49.9824 45.6982C50.3002 44.7652 50.4976 43.7754 50.6973 42.9355C50.9043 42.0646 51.111 41.369 51.4287 40.8896C51.5814 40.6593 51.7511 40.4933 51.9473 40.3828C52.1419 40.2732 52.3894 40.2032 52.7207 40.2031Z" fill="black" stroke="black"/>
<path d="M89.3281 40.2031C89.6594 40.2031 89.9069 40.2733 90.1016 40.3828C90.2978 40.4933 90.4684 40.6592 90.6211 40.8896C90.9387 41.369 91.1446 42.0647 91.3516 42.9355C91.5512 43.7755 91.7495 44.7651 92.0674 45.6982C92.3881 46.6397 92.8459 47.5761 93.6006 48.3311V48.332C94.3554 49.0868 95.2921 49.5445 96.2334 49.8652C97.1664 50.1831 98.1562 50.3814 98.9961 50.5811C99.8669 50.788 100.563 50.994 101.042 51.3115C101.272 51.4641 101.438 51.6341 101.549 51.8301C101.658 52.0247 101.728 52.2723 101.729 52.6035C101.729 52.9349 101.658 53.1823 101.549 53.377C101.438 53.5732 101.272 53.7437 101.042 53.8965C100.563 54.214 99.8669 54.42 98.9961 54.627C98.1562 54.8266 97.1664 55.0249 96.2334 55.3428C95.292 55.6635 94.3554 56.1211 93.6006 56.876C92.8458 57.6308 92.3881 58.5674 92.0674 59.5088C91.7495 60.4418 91.5512 61.4316 91.3516 62.2715C91.1446 63.1423 90.9386 63.838 90.6211 64.3174C90.4684 64.5479 90.2978 64.7138 90.1016 64.8242C89.9069 64.9338 89.6595 65.0039 89.3281 65.0039C88.9969 65.0038 88.7493 64.9338 88.5547 64.8242C88.3587 64.7138 88.1887 64.5477 88.0361 64.3174C87.7186 63.838 87.5126 63.1423 87.3057 62.2715C87.106 61.4316 86.9077 60.4418 86.5898 59.5088C86.2691 58.5674 85.8114 57.6308 85.0566 56.876C84.3017 56.1209 83.3644 55.6626 82.4229 55.3418C81.4898 55.024 80.5 54.8265 79.6602 54.627C78.7893 54.42 78.0936 54.2141 77.6143 53.8965C77.3838 53.7438 77.2179 53.5731 77.1074 53.377C76.9979 53.1823 76.9277 52.9348 76.9277 52.6035C76.9278 52.2723 76.9979 52.0247 77.1074 51.8301C77.2179 51.634 77.3839 51.4642 77.6143 51.3115C78.0936 50.9939 78.7893 50.788 79.6602 50.5811C80.5001 50.3814 81.4898 50.1831 82.4229 49.8652C83.3644 49.5445 84.3017 49.087 85.0566 48.332C85.8116 47.5771 86.2691 46.6398 86.5898 45.6982C86.9077 44.7652 87.106 43.7754 87.3057 42.9355C87.5127 42.0647 87.7185 41.369 88.0361 40.8896C88.1888 40.6593 88.3586 40.4933 88.5547 40.3828C88.7493 40.2732 88.9969 40.2032 89.3281 40.2031Z" fill="black" stroke="black"/>
<path d="M227.633 81.3544L228.559 82.2802L226.112 84.7285L225.186 83.8026L227.633 81.3544Z" fill="#01C971" stroke="black"/>
<path d="M234.979 81.3548L235.905 82.2806L226.112 92.0771L225.186 91.1513L234.979 81.3548Z" fill="#01C971" stroke="black"/>
<path d="M242.331 81.3579L243.257 82.2839L226.114 99.427L225.188 98.501L242.331 81.3579Z" fill="#01C971" stroke="black"/>
<path d="M242.338 88.719L243.263 89.6452L233.467 99.4389L232.541 98.5128L242.338 88.719Z" fill="#01C971" stroke="black"/>
<path d="M243.257 96.9756L241.508 98.7256L240.809 99.4238L239.883 98.498L240.582 97.7998C241.165 97.2169 241.747 96.6331 242.33 96.0498L243.257 96.9756Z" fill="#01C971" stroke="black"/>
<path d="M36.8691 177.395C51.4088 177.661 63.144 189.397 63.4111 203.937C48.8713 203.669 37.1358 191.934 36.8691 177.395Z" fill="#01C971" stroke="black"/>
<mask id="path-57-inside-2_524_2569" fill="white">
<path d="M36.3633 176.889C36.5605 176.889 36.757 176.892 36.9534 176.896L63.9107 203.854C63.9148 204.05 63.9183 204.246 63.9183 204.444C63.721 204.444 63.5246 204.44 63.3281 204.436L36.3709 177.479C36.3667 177.282 36.3633 177.086 36.3633 176.889Z"/>
</mask>
<path d="M36.3633 176.889C36.5605 176.889 36.757 176.892 36.9534 176.896L63.9107 203.854C63.9148 204.05 63.9183 204.246 63.9183 204.444C63.721 204.444 63.5246 204.44 63.3281 204.436L36.3709 177.479C36.3667 177.282 36.3633 177.086 36.3633 176.889Z" fill="#271C24"/>
<path d="M36.3633 176.889V175.889H35.3633V176.889H36.3633ZM36.9534 176.896L37.6605 176.189L37.3764 175.905L36.9747 175.896L36.9534 176.896ZM63.9107 203.854L64.9104 203.832L64.9019 203.431L64.6178 203.146L63.9107 203.854ZM63.9183 204.444V205.444H64.9183V204.444H63.9183ZM63.3281 204.436L62.621 205.143L62.9051 205.427L63.3069 205.436L63.3281 204.436ZM36.3709 177.479L35.3711 177.5L35.3796 177.902L35.6638 178.186L36.3709 177.479ZM36.3633 176.889V177.889C36.5497 177.889 36.7376 177.892 36.9322 177.896L36.9534 176.896L36.9747 175.896C36.7763 175.892 36.5713 175.889 36.3633 175.889V176.889ZM36.9534 176.896L36.2463 177.603L63.2036 204.561L63.9107 203.854L64.6178 203.146L37.6605 176.189L36.9534 176.896ZM63.9107 203.854L62.9109 203.875C62.915 204.069 62.9183 204.257 62.9183 204.444H63.9183H64.9183C64.9183 204.236 64.9147 204.031 64.9104 203.832L63.9107 203.854ZM63.9183 204.444V203.444C63.7319 203.444 63.544 203.44 63.3493 203.436L63.3281 204.436L63.3069 205.436C63.5052 205.44 63.7102 205.444 63.9183 205.444V204.444ZM63.3281 204.436L64.0352 203.729L37.078 176.772L36.3709 177.479L35.6638 178.186L62.621 205.143L63.3281 204.436ZM36.3709 177.479L37.3706 177.458C37.3665 177.263 37.3633 177.075 37.3633 176.889H36.3633H35.3633C35.3633 177.097 35.3669 177.302 35.3711 177.5L36.3709 177.479Z" fill="black" mask="url(#path-57-inside-2_524_2569)"/>
<path d="M92.0322 177.396C91.7656 191.935 80.0305 203.671 65.4902 203.938C65.7573 189.398 77.493 177.663 92.0322 177.396Z" fill="#01C971" stroke="black"/>
<mask id="path-60-inside-3_524_2569" fill="white">
<path d="M92.5394 176.889C92.3421 176.889 92.1457 176.892 91.9492 176.896L64.992 203.854C64.9878 204.05 64.9844 204.246 64.9844 204.444C65.1816 204.444 65.3781 204.44 65.5741 204.436L92.5314 177.479C92.5359 177.282 92.5394 177.086 92.5394 176.889Z"/>
</mask>
<path d="M92.5394 176.889C92.3421 176.889 92.1457 176.892 91.9492 176.896L64.992 203.854C64.9878 204.05 64.9844 204.246 64.9844 204.444C65.1816 204.444 65.3781 204.44 65.5741 204.436L92.5314 177.479C92.5359 177.282 92.5394 177.086 92.5394 176.889Z" fill="#271C24"/>
<path d="M92.5394 176.889H93.5394V175.889H92.5394V176.889ZM91.9492 176.896L91.928 175.896L91.5262 175.905L91.2421 176.189L91.9492 176.896ZM64.992 203.854L64.2849 203.146L64.0007 203.431L63.9922 203.832L64.992 203.854ZM64.9844 204.444H63.9844V205.444H64.9844V204.444ZM65.5741 204.436L65.5954 205.436L65.9971 205.427L66.2812 205.143L65.5741 204.436ZM92.5314 177.479L93.2385 178.186L93.5218 177.903L93.5311 177.502L92.5314 177.479ZM92.5394 176.889V175.889C92.3313 175.889 92.1263 175.892 91.928 175.896L91.9492 176.896L91.9704 177.896C92.165 177.892 92.353 177.889 92.5394 177.889V176.889ZM91.9492 176.896L91.2421 176.189L64.2849 203.146L64.992 203.854L65.6991 204.561L92.6563 177.603L91.9492 176.896ZM64.992 203.854L63.9922 203.832C63.988 204.031 63.9844 204.236 63.9844 204.444H64.9844H65.9844C65.9844 204.257 65.9876 204.069 65.9917 203.875L64.992 203.854ZM64.9844 204.444V205.444C65.1925 205.444 65.3974 205.44 65.5954 205.436L65.5741 204.436L65.5529 203.436C65.3587 203.44 65.1707 203.444 64.9844 203.444V204.444ZM65.5741 204.436L66.2812 205.143L93.2385 178.186L92.5314 177.479L91.8243 176.772L64.867 203.729L65.5741 204.436ZM92.5314 177.479L93.5311 177.502C93.5358 177.302 93.5394 177.097 93.5394 176.889H92.5394H91.5394C91.5394 177.075 91.5361 177.263 91.5317 177.456L92.5314 177.479Z" fill="black" mask="url(#path-60-inside-3_524_2569)"/>
<path d="M65.2021 177.389V213.792H63.6992V177.389H65.2021Z" fill="white" stroke="black"/>
<path d="M65.2021 177.389V181.905L63.6992 183.408V177.389H65.2021Z" fill="#271C24" stroke="black"/>
<path d="M84.8965 138.721V159.166C84.8964 170.457 75.7425 179.611 64.4512 179.611C53.1597 179.611 44.006 170.457 44.0059 159.166V138.721H84.8965Z" fill="#FFDB33" stroke="black"/>
<path d="M63.9512 138.721V179.604C52.8906 179.339 44.006 170.29 44.0059 159.166V138.721H63.9512Z" fill="#01ABFF" stroke="black"/>
<path d="M50.099 123.671C58.1405 115.74 71.0859 115.827 79.0128 123.864C86.9394 131.902 86.8463 144.847 78.8048 152.777C70.7634 160.708 57.8192 160.621 49.8924 152.584C41.9657 144.547 42.0578 131.602 50.099 123.671Z" fill="white" stroke="black"/>
<path d="M53.7075 127.467C59.6537 121.53 69.2831 121.533 75.2154 127.474C81.1476 133.414 81.1374 143.044 75.1912 148.982C69.2449 154.919 59.6155 154.916 53.6833 148.975C47.7511 143.035 47.7614 133.405 53.7075 127.467Z" fill="#FFDB33" stroke="black"/>
<path d="M55.248 129.402C57.2963 127.137 60.7949 127.071 62.9277 129.203C63.3864 129.662 63.7423 130.184 63.9971 130.74L64.4521 131.732L64.9062 130.74C65.1614 130.184 65.5178 129.663 65.9766 129.204C68.1089 127.072 71.6079 127.137 73.6562 129.402C75.5348 131.48 75.4335 134.759 73.4355 136.725V136.726C72.9845 137.17 72.4735 137.515 71.9297 137.765L70.9385 138.219L71.9297 138.673C72.4862 138.928 73.0079 139.284 73.4668 139.743C75.5991 141.875 75.533 145.374 73.2686 147.422C71.1913 149.3 67.9126 149.201 65.9463 147.203V147.202C65.5021 146.751 65.1555 146.24 64.9062 145.696L64.4521 144.705L63.998 145.697C63.7432 146.253 63.3865 146.775 62.9277 147.233C60.795 149.366 57.2964 149.3 55.248 147.034C53.3698 144.957 53.4708 141.678 55.4688 139.713C55.9199 139.269 56.4308 138.923 56.9746 138.674L57.9658 138.219L56.9746 137.765C56.4308 137.515 55.9199 137.169 55.4688 136.726C53.4709 134.76 53.3696 131.481 55.248 129.402Z" fill="#FF5C57" stroke="black"/>
<path d="M60.0049 138.678C59.7247 135.85 62.08 133.495 64.9082 133.774C66.9963 133.981 68.6894 135.675 68.8965 137.763C69.1761 140.591 66.8213 142.946 63.9932 142.666V142.665C61.9051 142.459 60.2116 140.766 60.0049 138.678Z" fill="#FFDB33" stroke="black"/>
<path d="M65.7402 136.93C65.6531 137.346 65.6064 137.778 65.6064 138.221C65.6065 138.662 65.6534 139.093 65.7402 139.51C65.324 139.423 64.8929 139.376 64.4512 139.376C64.0088 139.376 63.5769 139.423 63.1602 139.51C63.2471 139.093 63.2949 138.663 63.2949 138.221C63.2949 137.778 63.2473 137.347 63.1602 136.93C63.577 137.017 64.0087 137.064 64.4512 137.064C64.893 137.064 65.3239 137.017 65.7402 136.93Z" fill="#01C971" stroke="black"/>
<path d="M192.914 177.396C207.454 177.662 219.189 189.398 219.456 203.938C204.916 203.67 193.181 191.935 192.914 177.396Z" fill="#01C971" stroke="black"/>
<mask id="path-72-inside-4_524_2569" fill="white">
<path d="M192.408 176.89C192.605 176.89 192.802 176.893 192.998 176.897L219.956 203.854C219.96 204.051 219.963 204.247 219.963 204.445C219.766 204.445 219.57 204.441 219.373 204.437L192.416 177.48C192.412 177.283 192.408 177.087 192.408 176.89Z"/>
</mask>
<path d="M192.408 176.89C192.605 176.89 192.802 176.893 192.998 176.897L219.956 203.854C219.96 204.051 219.963 204.247 219.963 204.445C219.766 204.445 219.57 204.441 219.373 204.437L192.416 177.48C192.412 177.283 192.408 177.087 192.408 176.89Z" fill="#271C24"/>
<path d="M192.408 176.89V175.89H191.408V176.89H192.408ZM192.998 176.897L193.705 176.19L193.421 175.906L193.02 175.897L192.998 176.897ZM219.956 203.854L220.955 203.833L220.947 203.432L220.663 203.147L219.956 203.854ZM219.963 204.445V205.445H220.963V204.445H219.963ZM219.373 204.437L218.666 205.144L218.95 205.428L219.352 205.437L219.373 204.437ZM192.416 177.48L191.416 177.503L191.426 177.904L191.709 178.187L192.416 177.48ZM192.408 176.89V177.89C192.595 177.89 192.783 177.893 192.977 177.897L192.998 176.897L193.02 175.897C192.821 175.893 192.616 175.89 192.408 175.89V176.89ZM192.998 176.897L192.291 177.604L219.248 204.562L219.956 203.854L220.663 203.147L193.705 176.19L192.998 176.897ZM219.956 203.854L218.956 203.876C218.96 204.07 218.963 204.258 218.963 204.445H219.963H220.963C220.963 204.237 220.96 204.032 220.955 203.833L219.956 203.854ZM219.963 204.445V203.445C219.777 203.445 219.589 203.441 219.395 203.437L219.373 204.437L219.352 205.437C219.55 205.441 219.755 205.445 219.963 205.445V204.445ZM219.373 204.437L220.081 203.73L193.123 176.773L192.416 177.48L191.709 178.187L218.666 205.144L219.373 204.437ZM192.416 177.48L193.416 177.457C193.411 177.264 193.408 177.076 193.408 176.89H192.408H191.408C191.408 177.098 191.412 177.303 191.416 177.503L192.416 177.48Z" fill="black" mask="url(#path-72-inside-4_524_2569)"/>
<path d="M248.077 177.396C247.811 191.935 236.075 203.671 221.535 203.938C221.802 189.398 233.538 177.663 248.077 177.396Z" fill="#01C971" stroke="black"/>
<mask id="path-75-inside-5_524_2569" fill="white">
<path d="M248.584 176.889C248.387 176.889 248.191 176.892 247.994 176.896L221.037 203.854C221.033 204.05 221.029 204.246 221.029 204.444C221.227 204.444 221.423 204.44 221.619 204.436L248.576 177.479C248.581 177.282 248.584 177.086 248.584 176.889Z"/>
</mask>
<path d="M248.584 176.889C248.387 176.889 248.191 176.892 247.994 176.896L221.037 203.854C221.033 204.05 221.029 204.246 221.029 204.444C221.227 204.444 221.423 204.44 221.619 204.436L248.576 177.479C248.581 177.282 248.584 177.086 248.584 176.889Z" fill="#271C24"/>
<path d="M248.584 176.889H249.584V175.889H248.584V176.889ZM247.994 176.896L247.973 175.896L247.571 175.905L247.287 176.189L247.994 176.896ZM221.037 203.854L220.33 203.146L220.046 203.431L220.037 203.832L221.037 203.854ZM221.029 204.444H220.029V205.444H221.029V204.444ZM221.619 204.436L221.64 205.436L222.042 205.427L222.326 205.143L221.619 204.436ZM248.576 177.479L249.283 178.186L249.567 177.903L249.576 177.502L248.576 177.479ZM248.584 176.889V175.889C248.376 175.889 248.171 175.892 247.973 175.896L247.994 176.896L248.015 177.896C248.21 177.892 248.398 177.889 248.584 177.889V176.889ZM247.994 176.896L247.287 176.189L220.33 203.146L221.037 203.854L221.744 204.561L248.701 177.603L247.994 176.896ZM221.037 203.854L220.037 203.832C220.033 204.031 220.029 204.236 220.029 204.444H221.029H222.029C222.029 204.257 222.033 204.069 222.037 203.875L221.037 203.854ZM221.029 204.444V205.444C221.237 205.444 221.442 205.44 221.64 205.436L221.619 204.436L221.598 203.436C221.404 203.44 221.216 203.444 221.029 203.444V204.444ZM221.619 204.436L222.326 205.143L249.283 178.186L248.576 177.479L247.869 176.772L220.912 203.729L221.619 204.436ZM248.576 177.479L249.576 177.502C249.581 177.302 249.584 177.097 249.584 176.889H248.584H247.584C247.584 177.075 247.581 177.263 247.577 177.456L248.576 177.479Z" fill="black" mask="url(#path-75-inside-5_524_2569)"/>
<path d="M221.247 177.39V213.793H219.744V177.39H221.247Z" fill="white" stroke="black"/>
<path d="M221.247 177.39V181.906L219.744 183.409V177.39H221.247Z" fill="#271C24" stroke="black"/>
<path d="M240.941 138.722V159.167C240.941 170.458 231.787 179.612 220.496 179.612C209.205 179.612 200.051 170.458 200.051 159.167V138.722H240.941Z" fill="#FFDB33" stroke="black"/>
<path d="M219.996 138.721V179.604C208.936 179.339 200.051 170.29 200.051 159.166V138.721H219.996Z" fill="#01ABFF" stroke="black"/>
<path d="M206.15 123.68C214.191 115.749 227.137 115.836 235.064 123.873C242.99 131.911 242.897 144.855 234.856 152.786C226.814 160.717 213.87 160.63 205.943 152.593C198.016 144.555 198.109 131.61 206.15 123.68Z" fill="white" stroke="black"/>
<path d="M209.752 127.458C215.699 121.521 225.328 121.526 231.26 127.468C237.191 133.409 237.18 143.038 231.233 148.975C225.286 154.912 215.656 154.908 209.725 148.966C203.793 143.025 203.805 133.395 209.752 127.458Z" fill="#FFDB33" stroke="black"/>
<path d="M211.291 129.403C213.339 127.138 216.838 127.072 218.971 129.204C219.429 129.663 219.785 130.185 220.04 130.741L220.495 131.733L220.949 130.741C221.204 130.185 221.561 129.664 222.02 129.205C224.152 127.073 227.651 127.138 229.699 129.403C231.578 131.481 231.476 134.76 229.479 136.726V136.727C229.027 137.171 228.516 137.516 227.973 137.766L226.981 138.22L227.973 138.674C228.529 138.929 229.051 139.285 229.51 139.744C231.642 141.876 231.576 145.374 229.312 147.423C227.234 149.301 223.956 149.202 221.989 147.204V147.203C221.545 146.752 221.199 146.241 220.949 145.697L220.495 144.706L220.041 145.698C219.786 146.254 219.43 146.776 218.971 147.234C216.905 149.3 213.557 149.303 211.487 147.241L211.291 147.035C209.413 144.958 209.514 141.679 211.512 139.714C211.963 139.27 212.474 138.924 213.018 138.675L214.009 138.22L213.018 137.766C212.474 137.516 211.963 137.17 211.512 136.727C209.514 134.761 209.413 131.482 211.291 129.403Z" fill="#FF5C57" stroke="black"/>
<path d="M216.05 138.678C215.77 135.85 218.125 133.495 220.953 133.774C223.041 133.981 224.734 135.675 224.941 137.763C225.221 140.591 222.866 142.946 220.038 142.666V142.665C217.95 142.459 216.257 140.766 216.05 138.678Z" fill="#FFDB33" stroke="black"/>
<path d="M221.785 136.93C221.698 137.346 221.651 137.778 221.651 138.221C221.651 138.662 221.698 139.093 221.785 139.51C221.369 139.423 220.938 139.376 220.496 139.376C220.054 139.376 219.622 139.423 219.205 139.51C219.292 139.093 219.34 138.663 219.34 138.221C219.34 137.778 219.292 137.347 219.205 136.93C219.622 137.017 220.054 137.064 220.496 137.064C220.938 137.064 221.369 137.017 221.785 136.93Z" fill="#01C971" stroke="black"/>
</g>
</g>
</pattern><clipPath id="clip0_524_2569">
<rect width="285" height="214" fill="white"/>
</clipPath>
</defs>
</svg>
