<svg width="95" height="81" viewBox="0 0 95 81" fill="none" xmlns="http://www.w3.org/2000/svg">
<path d="M45.196 6.21083C46.4582 7.83457 48.445 8.40796 50.4594 9.08325C52.0541 9.88515 53.7527 9.9381 55.4662 10.2779C56.261 10.497 56.8569 11.1502 57.4311 11.66C59.7468 12.6565 62.2994 13.0698 64.4609 14.4068C65.8918 19.2381 66.658 24.3731 67.2272 29.4464C67.0448 30.7527 69.6753 29.7486 70.8443 31.4659C72.0306 32.9464 74.7787 33.2034 76.5569 33.9583C77.3533 34.4496 78.2527 34.4559 79.1303 34.5457C80.662 34.5664 81.4868 35.755 82.7906 36.3463C84.7593 37.0968 86.822 37.5967 88.6461 38.5702C90.3699 39.5833 89.9965 43.803 90.7684 45.7431C90.9862 47.9437 93.0056 55.1151 91.5014 56.4507C85.5382 61.1407 79.5413 66.5547 73.6391 71.3551C72.0886 72.5777 69.9492 70.77 68.3519 70.1974C65.452 68.9826 62.4241 67.8525 59.5317 66.5811C56.4316 65.325 53.3447 63.6164 50.1746 62.679C44.1157 67.649 38.3406 72.9811 32.1299 77.822C31.4262 78.1537 30.6839 77.8186 30.0231 77.5283C27.2589 76.3699 24.6099 75.1542 21.8006 74.1186C17.3203 72.1564 12.8157 70.1347 8.38392 68.3622C8.37113 68.2327 8.16823 68.0783 8.11822 67.9693C8.08873 67.9133 8.13506 67.8102 8.02042 67.7683C7.51786 62.4209 5.57221 57.1682 5.55538 51.7618C5.61947 50.765 8.67547 48.633 9.5588 47.7757C10.0904 47.3127 10.6877 46.7684 11.3037 46.4048C12.1002 45.5376 12.6595 44.1752 13.9616 43.8439C14.8241 43.6191 15.5087 43.5375 16.1824 42.8375C17.7321 41.7712 19.3781 40.5531 20.9395 39.4296C21.234 39.2618 21.2108 38.8576 21.3591 38.5542C21.6037 38.2617 21.7484 37.9909 21.9889 37.6512C22.6296 37.0412 23.5536 36.7419 24.2827 36.3863C23.5374 31.4596 22.1077 26.2529 21.9185 21.151C22.0376 21.0861 21.9397 20.955 21.9517 20.8614C22.0034 20.8104 22.1077 20.6818 22.0595 20.5976C22.3455 20.5813 22.4309 20.0545 22.801 20.0007L23.0445 19.6834C24.0817 18.6945 25.5538 17.6998 26.4716 16.7359C27.25 16.2026 28.1816 15.7283 28.423 14.7673C29.3243 13.5375 30.8112 13.2232 32.1712 12.6333C33.6017 11.6583 34.9395 10.5856 36.4045 9.57967C37.9251 8.78031 37.3736 8.1883 38.3097 7.26056C40.0114 5.52881 43.0557 5.23548 45.196 6.21083ZM44.4601 7.66275C44.0293 7.60754 43.5008 7.28278 43.0193 7.28202C42.8405 7.32626 42.6639 7.31743 42.5102 7.20646C42.185 7.2393 41.1082 7.26634 41.1009 7.60605C40.4056 7.43305 39.9715 8.05719 39.4831 8.31835L39.5016 8.45855C39.2886 8.45522 39.3339 8.69601 39.1927 8.82016C39.2018 9.32814 39.2925 9.15074 39.4206 9.46763C40.7726 9.99198 42.3177 10.1686 43.7705 9.46515C43.7792 9.20156 44.849 9.05565 44.8375 8.36185C45.0603 8.10999 44.6704 8.03013 44.6981 7.84534C44.6556 7.87948 44.4285 7.8124 44.4601 7.66275ZM46.8947 10.4443C47.8868 14.8036 41.3102 15.7241 38.6335 13.7789C38.6467 13.6081 38.1763 13.3342 38.1344 13.2385C37.9704 12.7894 37.7536 12.2317 37.8612 11.7055C37.7497 11.5255 37.743 11.4094 37.7218 11.189C37.6654 11.2749 37.2123 11.4244 37.3474 11.5949C37.2728 11.4022 36.3621 12.149 36.2812 12.1632C36.3048 12.4397 35.748 12.5116 35.5305 12.69C35.4744 12.7138 35.4453 12.8931 35.3036 12.8625C35.3912 13.2461 35.5238 13.0239 35.7446 13.2323C35.8904 13.3272 36.3622 13.4277 36.3349 13.6538C36.35 13.6653 36.4047 13.626 36.4401 13.6399C36.803 13.9801 37.2513 14.7419 37.1828 15.218C37.1924 16.2601 37.6474 17.4025 37.5983 18.3724C37.8859 20.29 35.7321 20.966 34.353 21.6169C33.3251 21.902 32.2841 21.8167 31.2133 21.6026C28.9144 21.1017 28.3924 20.3275 28.3571 18.0565C24.3471 21.6298 23.6448 20.3267 28.5606 22.3086C31.5135 23.4272 35.2104 24.6446 37.7737 25.6591C40.3077 26.5377 42.7387 27.7493 45.2749 28.736C45.3523 28.7935 45.5086 28.8649 45.4409 28.6428C47.2976 27.4604 48.5907 25.8538 50.5004 24.5532C53.0889 22.4236 56.4439 20.2231 58.6384 17.8473C58.8499 17.8993 58.8799 17.9104 58.8302 17.6794C59.7196 17.3826 60.5386 16.3832 61.4052 15.8426C62.7269 15.0916 58.3273 14.3218 57.78 14.0381C57.7879 14.2603 57.6441 14.5438 57.8678 14.704C58.0229 15.2591 57.9471 15.9016 57.9492 16.4048C56.555 18.9818 52.7405 19.8002 50.2671 18.4508C48.8255 17.9447 48.7027 16.8177 48.6903 15.4137C48.5498 14.1307 48.0932 13.2524 48.747 12.0544C50.1093 10.4694 50.585 11.4607 47.318 10.1389C47.3741 10.4945 47.131 10.2733 46.9417 10.2598C46.995 10.3669 46.896 10.4163 46.8947 10.4443ZM41.3212 13.0683C42.0046 13.0538 42.9524 13.2164 43.5293 12.7774C43.6153 12.9051 43.6729 12.7364 43.7303 12.6796C44.3793 12.6576 45.0935 12.2276 45.4117 11.638C45.3485 11.391 45.4092 11.0457 45.24 10.8762C45.2779 10.7635 45.2841 10.583 45.1892 10.4906C44.6079 10.7498 44 11.1101 43.4147 11.3662C42.201 11.6701 40.8496 11.5508 39.6348 11.3649C39.2192 11.1166 39.7584 11.6481 39.5104 11.7735C39.5293 12.0149 39.6063 12.4584 39.8785 12.4025C39.8423 12.5877 40.2706 12.7531 40.3988 12.8332C40.5915 12.9426 40.8898 12.8199 41.0574 12.9604C41.2117 12.8053 41.2339 12.9528 41.3212 13.0683ZM50.4747 12.7183C49.9831 12.8679 50.0093 13.6568 50.4472 13.863C51.13 14.1039 51.8811 14.3102 52.5724 14.2962C53.447 14.4605 56.0461 13.554 55.7829 12.4113C54.5066 11.1574 51.5278 11.4656 50.4747 12.7183ZM35.4018 15.7735C35.7781 14.3911 33.779 14.4711 32.8928 14.3211C31.6803 14.391 30.4372 14.9691 29.7624 15.7319C29.7659 16.0395 29.6662 16.1703 29.9203 16.3886C29.9765 16.4639 29.9822 16.5937 30.1536 16.5361C30.167 16.8111 30.8278 16.7818 31.0945 16.9114C32.6166 17.3627 34.2834 16.7517 35.4018 15.7735ZM56.2538 15.9863L56.1014 14.8297C54.6531 15.8427 52.4335 16.1487 50.6172 15.6948C50.2067 15.3773 50.6435 16.6583 50.5758 16.7343C50.5788 16.7567 50.8845 16.9988 50.9586 16.9334C52.2923 17.8981 55.3632 17.4223 56.2538 15.9863ZM30.034 18.3348C30.0394 18.4624 30.1693 19.443 30.2565 19.4822C31.1434 20.2981 32.7413 20.2581 33.7809 19.9807C34.5467 19.8334 35.54 19.4751 35.8643 18.7435C35.8645 18.6472 35.7993 18.526 35.8975 18.4538C35.8955 18.4384 35.7833 18.3719 35.7905 18.1827C35.7919 18.1554 35.8544 18.1265 35.8513 18.1033C35.6965 18.0268 35.7679 17.8055 35.7212 17.6569C34.08 18.6676 31.9276 18.9048 30.034 18.3348ZM63.1155 17.1863C62.7608 17.049 62.6376 17.5758 62.2854 17.6522C60.456 19.3073 58.4698 20.812 56.7224 22.5212C53.4209 24.8253 50.0528 27.5004 47.2913 29.968C45.7135 30.2735 47.967 38.9901 48.1546 40.5871C48.6668 43.8258 47.9291 43.8617 50.7372 41.7802C51.1683 41.242 52.0894 40.5787 52.7698 40.1575C53.1802 38.6386 54.6482 37.8348 56.1195 37.4342C58.2289 36.4317 59.9916 34.6599 61.8357 33.1868C62.0766 32.9853 62.4363 32.8901 62.3483 32.4767C63.0506 31.6575 64.0683 30.8024 65.1059 30.4019C65.571 30.5275 64.9748 29.0007 65.0549 28.6614C65.081 27.5547 64.8222 26.0391 64.5655 24.9462C64.0216 22.2836 63.7535 19.7238 63.1154 17.1856L63.1155 17.1863ZM46.6127 44.0351C46.0845 39.6625 44.9001 35.2843 44.6009 30.9285C38.1208 27.5253 30.8838 25.5768 24.0651 22.8294C24.394 25.5859 24.9247 28.7865 25.6353 31.5013C26.1365 32.3502 25.7593 35.8858 26.6342 36.1122C27.9871 36.048 29.1539 36.855 30.1874 37.6409C32.3551 38.6191 34.5587 39.6745 36.7661 40.4827C38.1025 40.363 39.6579 40.6345 40.5932 41.6545C42.302 42.8735 44.6919 43.2968 46.612 44.0352L46.6127 44.0351ZM66.1503 31.8339C60.4884 33.9433 67.0889 35.5649 69.3623 33.479C70.7743 31.774 67.1606 31.5561 66.1503 31.8339ZM27.6996 37.9686C26.7173 37.7229 25.3159 37.6251 24.403 38.1176C24.2639 38.1388 23.8921 38.1642 24.1153 38.3695C23.917 38.3635 23.7367 38.2567 23.7833 38.5558L23.6597 38.4295C23.5553 38.4817 23.4565 38.5226 23.5121 38.6629L23.2317 38.6998C23.2024 39.0945 22.5934 38.8723 22.8657 39.7108C22.9321 39.7384 22.9641 39.819 22.9589 39.8768C23.1363 39.8106 23.3453 40.0869 23.5308 40.158C23.8438 40.3685 24.2069 40.2772 24.4975 40.4586C25.4279 40.4572 26.319 40.4326 27.2221 40.0284C27.6862 39.7618 28.2373 39.5067 28.5529 39.0329C28.5589 38.8075 28.6255 38.6639 28.479 38.4721C28.3675 38.3998 28.1394 38.1082 28.0261 38.2822C28.0301 37.7761 27.6956 38.4748 27.6996 37.9686ZM62.5444 35.5894C59.0718 38.3047 59.36 36.7085 61.5349 38.7533C61.8448 38.9564 62.2957 42.8778 62.3454 43.282C61.212 47.3137 52.9366 47.568 53.0718 42.7207C53.5177 41.7905 49.9906 45.1918 49.5726 45.3917C56.4702 48.1579 63.4448 50.3828 70.1953 53.3374C75.5603 48.7847 81.3718 44.3992 86.712 39.8583C85.3692 39.2094 83.8343 38.8831 82.4532 38.3869C83.8813 42.6502 78.8011 44.3307 75.4863 43.1556C73.3093 42.6593 73.696 40.3163 73.3559 38.6225C73.0723 38.2833 73.2947 37.7298 73.2598 37.3514C73.4063 36.6069 74.103 35.9453 74.6551 35.4918C74.6297 35.6185 71.0862 33.903 71.6195 34.6436C72.8652 38.6486 67.3098 39.8832 64.3638 38.8442C62.7797 38.2256 62.6718 37.0817 62.5444 35.5894ZM70.021 34.9611C67.8364 36.2259 66.2569 36.0967 64.1466 35.8419C64.4149 36.4006 64.1637 37.2439 65.0203 37.3314C66.8302 38.0294 70.8512 37.6038 70.021 34.9611ZM41.4346 44.7885C41.6745 46.1604 41.7917 47.1255 40.7027 48.1654C39.1178 49.4681 36.6471 49.8713 34.7297 49.3801C31.8582 48.5438 32.5473 46.5261 31.923 44.0446C32.2629 44.2644 31.9351 43.6215 31.9847 43.4303C32.2293 42.645 32.8834 42.0018 33.511 41.482C33.3272 41.6517 30.0914 39.9656 30.8397 40.6929C30.3915 40.5601 30.796 40.8156 30.5916 40.9751C30.7933 41.2395 30.7504 41.7694 30.7301 42.0266C30.1796 45.513 24.2358 46.1975 21.9246 43.9353C21.5475 43.336 21.5107 42.5529 21.4372 41.8601C21.1083 41.81 21.4923 42.2073 21.2731 42.2383C21.2868 41.979 20.983 42.1367 21.0167 41.9155C20.3992 42.496 19.5987 42.9481 18.8604 43.4119C19.1985 43.781 19.9012 43.9123 20.1297 44.3857L20.2699 44.3673C20.2113 44.5668 20.5759 44.752 20.6195 44.8561C20.8939 46.3703 21.3662 48.1637 21.2613 49.7279C19.8024 52.6693 15.1092 53.1135 12.6152 51.2234C12.6328 50.913 12.1684 50.8308 12.2379 50.5243C11.8801 50.0765 12.0762 49.3832 11.8807 48.8954C11.7947 48.9246 11.635 49.0876 11.6612 48.8531C11.5024 48.9146 11.4225 48.9579 11.4878 49.1611C11.3951 48.9936 10.9045 49.4377 10.8145 49.4638L10.833 49.604C10.6978 49.6061 10.6783 49.6315 10.7113 49.7626L10.5969 49.7064L10.4309 49.7996L10.4493 49.9398C10.1724 50.2194 9.4656 50.376 9.41086 50.7184C8.68616 51.0585 8.46259 51.5322 9.44422 51.7837C15.9887 54.0681 22.9455 57.2081 29.2424 59.1606C29.5192 58.8367 30.1791 58.6436 30.2372 58.3157C30.3786 58.3063 30.3897 58.2992 30.3589 58.157C30.6076 58.1557 31.0007 57.8971 31.0045 57.6441C31.1074 57.5642 31.4962 57.5059 31.3881 57.3083C33.7264 55.472 36.0424 53.6665 38.3771 51.8948C40.3444 49.9819 43.2513 47.8874 45.3198 46.1309C45.4612 45.5745 44.3602 45.4942 43.9472 45.4559C43.883 45.1798 43.4568 45.1925 43.2259 45.123C42.6513 44.9948 42.1248 44.6683 41.5563 44.6298L41.6541 44.8309L41.4346 44.7885ZM28.8862 41.0215C28.7098 41.0904 28.4677 41.0873 28.5726 41.3481C27.9464 41.2287 27.2744 41.8928 26.621 41.9617C26.014 42.3619 22.9817 41.6253 23.4646 42.0922L23.175 42.0591C23.2646 42.3004 23.1396 42.6999 23.3513 42.856C23.6688 43.528 25.0684 43.4934 25.7025 43.6516C26.8674 43.5617 28.2557 43.2518 28.9777 42.2575C29.0243 42.0973 28.9275 41.2164 28.8862 41.0215ZM77.4038 36.0568C72.169 37.5322 76.2396 39.8165 79.3485 38.3679C82.4757 36.733 79.2929 35.8942 77.4038 36.0568ZM57.0144 38.8139C50.0698 41.0559 59.2754 43.2072 60.3138 39.7699C59.6993 38.7918 58.0886 38.7451 57.0144 38.8139ZM38.9107 42.411C37.2547 41.7669 35.356 42.149 33.9872 43.2022C33.8619 43.3071 33.9279 43.369 33.9143 43.4614C33.9107 43.4875 33.755 43.6863 33.741 43.7695C33.8219 43.8479 33.8846 44.4052 34.0906 44.2583C34.8871 44.9884 36.5864 44.8894 37.6621 44.5723C38.7756 44.0869 40.3985 43.3867 38.9107 42.411ZM13.6403 47.0947C15.014 47.7189 17.0249 47.8042 18.2779 46.8404C19.0671 46.5617 19.4288 45.6483 18.6356 45.2244C17.4813 44.3495 12.3442 45.2408 13.6403 47.0947ZM75.1151 40.0666C75.1163 40.1734 75.2758 41.3519 75.356 41.3542C76.9522 42.3734 79.2253 42.0398 80.69 40.9725C81.1948 40.7983 80.9903 40.4858 81.1188 40.1672C81.0081 39.9329 80.948 39.4117 80.924 39.2301C79.2117 40.35 77.0464 40.6145 75.1151 40.0666ZM60.7146 43.3542L60.5484 42.0924C60.5443 42.0609 60.7161 41.9469 60.4995 41.9919C58.8091 43.0946 56.666 43.4403 54.7607 42.8191C54.6418 42.9289 54.8329 43.1127 54.8373 43.13C54.9361 43.5605 54.8153 44.1056 55.3143 44.3151C57.0618 44.9935 59.4251 44.8961 60.7146 43.3542ZM34.0596 46.1879L34.2027 47.2744C34.7492 47.8499 35.789 47.8285 36.4653 47.9391C37.6422 47.8696 39.3316 47.6257 39.8807 46.5264C40 46.5286 39.7818 45.3485 39.7892 45.2905C38.1134 46.5096 35.9966 46.4918 34.0596 46.1879ZM19.3057 48.4166C18.812 48.2905 18.3058 48.5947 17.8355 48.8955C16.4913 49.2587 14.9554 49.2877 13.6609 48.8749L13.9173 49.1977L13.6886 49.0852C13.56 50.7566 15.2263 50.5264 16.3655 50.7294C17.7355 50.6103 20.2006 49.9803 19.3573 48.2672L19.3057 48.4166ZM87.9805 41.3671C82.8749 45.8864 77.0146 50.1286 71.7303 54.7042C70.9196 54.868 71.9529 59.3067 72.0511 60.1175C72.4696 63.1154 73.0306 65.9561 73.3594 68.9665C78.8265 64.436 84.3164 59.5908 89.8954 55.0926C90.1884 50.7659 88.5056 45.8136 87.9805 41.3671ZM48.6223 61.4565C48.0633 56.8832 46.9173 52.0157 46.7239 47.5862C46.6727 47.6528 46.6533 47.803 46.5579 47.6794C46.4434 47.7743 46.4876 47.8605 46.5597 47.9644C43.9821 49.3644 41.8122 52.1049 39.3108 53.84C36.7516 55.7917 33.4287 58.3603 30.7873 60.5973C30.0393 60.9769 30.4754 61.813 30.5063 62.5242C30.9531 66.8255 31.8348 70.7958 32.2947 75.0183C33.4679 74.3147 34.5427 72.8973 35.6702 72.2203C35.82 72.0801 35.7555 72.0508 35.6074 72.0146C35.809 71.9859 35.9444 72.0173 36.0446 71.8144C36.9136 71.0759 38.0276 70.3508 38.6951 69.4685C40.4803 68.17 42.0175 66.8414 43.7547 65.3789C44.8926 64.4459 46.0582 63.376 47.2353 62.567C47.3525 62.3583 47.5091 62.4589 47.4344 62.1842C47.7662 62.2011 47.8703 61.8222 48.1944 61.7275L48.4379 61.4102L48.6223 61.4572L48.6223 61.4565ZM71.5553 69.3468C71.005 64.6711 69.7492 60.0591 69.4936 55.3197C62.7988 52.1702 55.6622 49.9503 48.7567 47.3184C49.3115 49.4347 49.2317 51.8228 49.989 53.9666C50.6774 56.1067 50.4829 58.858 51.2927 60.8908C58.1003 63.5049 64.7937 66.7081 71.5546 69.3469L71.5553 69.3468ZM8.95749 53.7734C8.61124 53.7705 8.15935 53.4042 7.84138 53.4212L7.93456 53.5872C7.84578 53.7415 7.81788 53.6867 7.71965 53.5798C8.04103 57.882 9.67533 62.5361 9.96938 66.869C10.007 66.9974 10.5732 67.0027 10.6676 67.0266C16.4155 69.4351 22.3214 72.0846 28.345 74.5395C28.7807 74.6369 30.4671 75.7725 30.2904 74.9614C29.732 70.7383 28.6741 65.718 28.2055 61.294C24.0699 59.7293 20.2167 57.7636 15.9661 56.6305C15.5599 56.1834 14.7349 56.1138 14.1195 55.8754C14.0216 55.8583 13.6637 55.5232 13.566 55.7343C13.567 55.4119 13.4139 55.641 13.2044 55.4254C12.5861 55.4198 11.6973 54.6548 11.1216 54.7727C10.6564 54.3219 9.73053 54.2713 9.1513 53.8912C8.96649 54.0203 8.9763 53.9648 8.95759 53.7741L8.95749 53.7734Z" fill="black"/>
<path d="M8.95747 53.7735C8.98174 53.9685 8.95717 54.0203 9.15118 53.8906C9.73032 54.27 10.6563 54.3213 11.1215 54.7721C11.6972 54.6542 12.5852 55.4186 13.2043 55.4248C13.4116 55.64 13.5669 55.4113 13.5659 55.7338C13.6644 55.5232 14.0207 55.8571 14.1193 55.8748C14.734 56.1126 15.5605 56.1827 15.966 56.6299C20.215 57.7618 24.0713 59.7292 28.2047 61.2935C28.6738 65.716 29.7329 70.7404 30.291 74.9608C30.5115 75.8067 28.7332 74.6012 28.345 74.5396C22.3213 72.084 16.4155 69.4352 10.6675 67.026C10.6078 66.9947 9.99171 67.0009 9.96926 66.8684C9.67849 62.528 8.04212 57.8905 7.71953 53.5792C7.81855 53.6867 7.84426 53.7411 7.93444 53.5866L7.84126 53.4206C8.16073 53.4042 8.60962 53.7694 8.95738 53.7728L8.95747 53.7735Z" fill="#FFDB33"/>
<path d="M48.6223 61.4563C48.4102 61.3238 48.3048 61.6016 48.1944 61.7267C47.8702 61.8214 47.7661 62.2003 47.4344 62.1833C47.5085 62.4538 47.3547 62.3579 47.2352 62.5661C46.0569 63.3767 44.8933 64.445 43.7546 65.378C42.0176 66.8413 40.4809 68.1691 38.6951 69.4676C38.0269 70.3501 36.9148 71.0735 36.0445 71.8136C35.9526 72.009 35.8 71.9927 35.6074 72.0138C35.7557 72.0356 35.7998 72.1104 35.6701 72.2195C34.5416 72.8937 33.4702 74.3107 32.2947 75.0175C31.8346 70.7942 30.9531 66.8254 30.5062 62.5234C30.4767 61.812 30.0385 60.9761 30.7873 60.5965C33.4261 58.3619 36.7535 55.7891 39.3108 53.8399C41.8115 52.1048 43.9835 49.3634 46.5598 47.9642C46.4875 47.8597 46.4435 47.7742 46.5579 47.6792C46.6534 47.8036 46.6734 47.6519 46.7239 47.5861C46.9174 52.0163 48.0633 56.8824 48.6223 61.4563Z" fill="#FFDB33"/>
<path d="M41.4347 44.7884L41.6542 44.8308L41.5564 44.6297C42.1248 44.6682 42.6514 44.9947 43.2259 45.1229C43.4569 45.1924 43.8831 45.1797 43.9473 45.4558C44.3844 45.4824 45.4376 45.5847 45.3199 46.1308C43.2513 47.8873 40.3444 49.9818 38.3771 51.8947C36.0425 53.6671 33.7273 55.4725 31.3883 57.3089C31.5138 57.4878 31.0893 57.5779 31.0046 57.6447C31.0009 57.8976 30.6077 58.1555 30.359 58.1576L30.3775 58.2978L30.2373 58.3163C30.1787 58.6506 29.5201 58.8322 29.2431 59.1604C22.9425 57.2062 15.9926 54.0696 9.44374 51.7851C8.59712 51.5515 8.53836 51.127 9.41099 50.719C9.44415 50.3752 10.1913 50.2218 10.4495 49.9404C10.3861 49.7676 10.5672 49.6596 10.7114 49.7632C10.6789 49.6306 10.6973 49.6075 10.8331 49.6046L10.8147 49.4644C10.9053 49.4382 11.3946 48.9943 11.4879 49.1617C11.4414 48.9653 11.4707 48.9223 11.6613 48.8536C11.659 49.0907 11.7565 48.9324 11.8808 48.896C12.0749 49.3839 11.8817 50.0776 12.238 50.5249C12.1699 50.8305 12.6316 50.9138 12.6154 51.224C15.1086 53.1142 19.8039 52.669 21.2614 49.7285C21.3663 48.1643 20.8941 46.3716 20.6197 44.8566C20.576 44.7526 20.2108 44.5675 20.27 44.3678L20.1298 44.3863C19.9008 43.9144 19.1993 43.7808 18.8605 43.4125C19.5996 42.9486 20.3988 42.4974 21.0168 41.9161C20.9847 42.1378 21.2854 41.9791 21.2733 42.2389C21.4924 42.2079 21.1077 41.8107 21.4374 41.8607C21.5116 42.5541 21.5477 43.3366 21.9247 43.9359C24.2345 46.1983 30.1811 45.5134 30.7303 42.0272C30.7477 41.7696 30.7935 41.2401 30.5918 40.9757C30.7804 40.8161 30.4161 40.5624 30.8398 40.6934C30.09 39.9657 33.3236 41.6507 33.5111 41.4826C32.8842 42.0016 32.2296 42.6463 31.9849 43.4309C31.9358 43.6213 32.2625 44.2658 31.9232 44.0452C32.5487 46.5308 31.8566 48.5418 34.7298 49.3807C36.6473 49.8719 39.118 49.4687 40.7029 48.166C41.7883 47.1323 41.6766 46.1543 41.4347 44.7891L41.4347 44.7884ZM31.243 48.6269C29.0113 46.524 23.7703 47.3841 22.9374 50.5411C22.6916 51.6368 23.4089 52.9943 23.3475 54.1954C23.2894 54.2687 23.2725 54.2816 23.3659 54.3356C23.407 54.7182 23.5426 54.9514 23.7756 55.2801C25.7366 57.4878 30.5559 56.9942 32.145 54.3916C32.6462 53.8107 32.5529 52.7725 32.2701 52.093C31.9906 50.9724 32.2778 49.2544 31.243 48.6269Z" fill="#FFDB33"/>
<path d="M13.6404 47.0947C12.3445 45.243 17.477 44.3494 18.6356 45.2244C19.4281 45.6477 19.0684 46.5609 18.278 46.8404C17.0243 47.8043 15.0148 47.7188 13.6404 47.0947Z" fill="#FFDB33"/>
<path d="M27.6996 37.9687C27.6957 38.4748 28.0301 37.7761 28.0262 38.2823C28.1415 38.1073 28.3662 38.4008 28.4791 38.4722C28.6214 38.6653 28.5623 38.8064 28.5529 39.033C28.2375 39.5074 27.6861 39.7612 27.2221 40.0284C26.319 40.4326 25.4287 40.4572 24.4975 40.4586C24.2076 40.2772 23.8439 40.3693 23.5308 40.1581C23.3453 40.087 23.137 39.8106 22.9589 39.8768C22.9754 39.8183 22.9215 39.7391 22.8657 39.7108C22.5938 38.8702 23.2012 39.0961 23.2317 38.6999L23.5121 38.6629C23.4614 38.527 23.5486 38.4798 23.6597 38.4296L23.7833 38.5559C23.7361 38.2569 23.9185 38.3641 24.1153 38.3695C23.8929 38.1642 24.2639 38.1389 24.4031 38.1177C25.3173 37.625 26.7159 37.7232 27.6996 37.9687Z" fill="#FFDB33"/>
<path d="M38.9107 42.411C40.3971 43.3869 38.7784 44.0865 37.6622 44.5723C36.5872 44.8901 34.8864 44.9879 34.0907 44.2583C33.8946 44.4046 33.8092 43.8482 33.7411 43.7695C33.7558 43.6863 33.9107 43.4876 33.9144 43.4614C33.9279 43.369 33.8621 43.3078 33.9872 43.2022C35.3554 42.1491 37.2554 41.7662 38.9107 42.411Z" fill="#FFDB33"/>
<path d="M34.0597 46.188C35.9975 46.4925 38.1136 46.5097 39.7893 45.2906C39.7871 45.3494 40.003 46.5333 39.8808 46.5266C39.3324 47.6257 37.6416 47.8698 36.4655 47.9392C35.7898 47.8285 34.7479 47.8502 34.2029 47.2745L34.0597 46.188Z" fill="#FFDB33"/>
<path d="M28.8862 41.0216C28.9346 41.2263 29.0185 42.091 28.9777 42.2576C28.2558 43.252 26.8674 43.5618 25.7026 43.6518C25.0684 43.4935 23.6687 43.5274 23.3514 42.8561C23.139 42.7001 23.2653 42.3005 23.1751 42.0592L23.4647 42.0924C22.9727 41.6273 26.0352 42.3599 26.621 41.9618C27.2752 41.8928 27.9458 41.2289 28.5727 41.3482C28.4677 41.0875 28.7105 41.0897 28.8862 41.0216Z" fill="#FFDB33"/>
<path d="M19.3056 48.4165L19.3573 48.2671C20.2005 49.9802 17.736 50.6094 16.3655 50.7293C15.2284 50.5268 13.5578 50.7561 13.6885 49.0851L13.9173 49.1976L13.6608 48.8748C14.9555 49.2884 16.4912 49.2586 17.8355 48.8954C18.3056 48.5939 18.8112 48.2905 19.3056 48.4165Z" fill="#FFDB33"/>
<path d="M31.243 48.627C32.2786 49.2558 31.9891 50.972 32.2701 52.0931C32.5539 52.7746 32.6431 53.8091 32.145 54.3917C30.5561 56.9958 25.7371 57.4865 23.7756 55.2802C23.5414 54.9531 23.4068 54.7169 23.3659 54.3358C23.2892 54.2732 23.2719 54.2769 23.3474 54.1956C23.4095 52.9936 22.6917 51.6376 22.9374 50.5412C23.7701 47.3828 29.0108 46.5256 31.243 48.627ZM24.7536 51.336C26.3371 52.1722 28.4702 52.026 29.9336 50.8677C30.3033 50.4909 30.2816 50.2941 30.1852 49.8004C29.1244 48.5524 23.5491 49.3866 24.7536 51.336ZM24.8535 53.1771C24.7055 55.7511 28.2716 55.0988 29.8345 54.4465C30.9384 53.8881 30.7672 53.4821 30.6016 52.4199C30.0367 52.7546 29.1423 53.1819 28.4065 53.3509C27.0847 53.6355 26.3591 53.443 25.1874 53.2757C25.0708 53.2618 24.9717 53.322 24.9606 53.4482L24.8535 53.1771Z" fill="black"/>
<path d="M24.7537 51.336C23.5487 49.3888 29.1208 48.5514 30.1853 49.8004C30.5291 50.6837 29.5378 51.1758 28.8767 51.5061C27.5292 52.0451 25.9797 51.9754 24.7537 51.336Z" fill="#FFDB33"/>
<path d="M24.8536 53.1771L24.9606 53.4483C24.9809 53.3208 25.0624 53.263 25.1875 53.2758C26.3584 53.4432 27.0848 53.6356 28.4065 53.351C29.1424 53.182 30.0374 52.7546 30.6016 52.42C30.7664 53.4865 30.9408 53.885 29.8345 54.4465C28.2723 55.0987 24.7048 55.7512 24.8536 53.1771Z" fill="#FFDB33"/>
<path d="M46.6127 44.0349C44.6926 43.2966 42.3026 42.8719 40.5939 41.6542C39.6595 40.6349 38.1024 40.3622 36.7668 40.4818C34.5587 39.6737 32.3559 38.6188 30.188 37.64C29.1559 36.8538 27.9851 36.0482 26.6348 36.1112C25.7487 35.8863 26.1447 32.3469 25.6353 31.5004C24.9253 28.7856 24.3937 25.5837 24.0658 22.8285C30.8838 25.576 38.1222 27.5243 44.6016 30.9276C44.9009 35.284 46.085 39.6608 46.6133 44.0341L46.6127 44.0349Z" fill="white"/>
<path d="M63.1155 17.1864C63.7532 19.7268 64.0209 22.2838 64.5657 24.947C64.8193 26.0439 65.078 27.5531 65.055 28.6622C64.9717 29.0041 65.5681 30.5265 65.106 30.4027C64.0648 30.803 63.0528 31.658 62.3485 32.4775C62.4364 32.891 62.0767 32.9861 61.8357 33.1869C59.9924 34.6606 58.2288 36.4312 56.1196 37.435C54.6481 37.8335 53.1797 38.6402 52.7699 40.1583C52.0892 40.5831 51.1671 41.2438 50.7373 41.781C47.9838 43.7947 48.6526 43.9127 48.1554 40.5879C47.9613 38.9789 45.7232 30.3201 47.2908 29.9689C50.0516 27.5021 53.4217 24.826 56.7225 22.5221C58.5997 20.7857 60.5797 19.0337 62.6176 17.4666C62.7486 17.2975 62.8756 17.0761 63.1156 17.1871L63.1155 17.1864Z" fill="white"/>
<path d="M46.8947 10.4441C46.896 10.4162 46.995 10.3667 46.9417 10.2597C47.1326 10.2738 47.3733 10.4938 47.318 10.1388C50.5793 11.46 50.1127 10.4681 48.747 12.0543C48.0939 13.2572 48.5494 14.1271 48.6903 15.4136C48.7024 16.8155 48.8257 17.946 50.2671 18.4507C52.7399 19.8009 56.5549 18.981 57.9492 16.4047C57.948 15.9028 58.0235 15.2582 57.8678 14.7039C57.6454 14.5421 57.7817 14.2617 57.7801 14.038C58.3205 14.3184 62.7362 15.0974 61.4052 15.8425C60.5395 16.3837 59.719 17.3825 58.8303 17.6793C58.88 17.911 58.8492 17.8986 58.6384 17.8472C56.4433 20.2238 53.0896 22.4234 50.5004 24.5531C48.5909 25.8544 47.2976 27.4596 45.4409 28.6427C45.5007 28.8309 45.3655 28.8223 45.2749 28.7359C42.7388 27.7492 40.3078 26.5376 37.7738 25.659C35.2103 24.6438 31.5157 23.4275 28.5607 22.3084C23.6337 20.3231 24.3541 21.6288 28.3571 18.0564C28.3945 20.3271 28.9093 21.1001 31.2133 21.6025C32.284 21.8158 33.3252 21.9026 34.353 21.6168C35.7316 20.9673 37.8872 20.289 37.5984 18.3723C37.6476 17.4031 37.1931 16.2592 37.1829 15.2179C37.2415 14.7159 36.814 14.0042 36.4401 13.6398C36.4041 13.626 36.3493 13.6653 36.335 13.6537C36.3629 13.4268 35.8904 13.3264 35.7446 13.2322C35.5266 13.0285 35.3875 13.2393 35.3037 12.8624C35.4453 12.893 35.4745 12.7137 35.5305 12.6899C35.7474 12.5116 36.3048 12.4396 36.2813 12.1631C36.3634 12.148 37.2708 11.4031 37.3474 11.5948C37.2274 11.4309 37.645 11.2661 37.7219 11.1889C37.746 11.4104 37.749 11.5248 37.8612 11.7054C37.7545 12.2322 37.9704 12.7886 38.1345 13.2383C38.1763 13.3341 38.6467 13.608 38.6335 13.7788C41.3088 15.7241 47.8874 14.8027 46.8947 10.4441ZM46.963 17.4597C44.1081 16.3103 38.664 17.307 39.1963 21.2997C39.8643 22.0012 39.4257 23.3982 39.8646 24.2069C39.9271 24.6494 40.2787 24.909 40.4984 25.2288C40.6222 25.216 40.6414 25.1778 40.6524 25.3155C43.2797 26.9883 49.0406 26.0091 48.8149 22.3147C48.3136 21.1071 48.4825 19.3526 47.915 18.19C47.6369 18.2709 47.8936 18.006 47.6162 18.0868L47.5977 17.9466C47.3622 18.0154 47.3757 17.6528 47.1402 17.7216L47.1217 17.5814C46.9822 17.6162 46.9689 17.5908 46.963 17.4597Z" fill="white"/>
<path d="M44.4602 7.66296C44.4114 7.81772 44.6747 7.8736 44.6982 7.84556C44.6724 8.02937 45.0604 8.11091 44.8375 8.36206C44.4266 9.55224 42.7179 9.89285 41.52 9.97576C41.2908 9.75207 40.6448 10.0832 40.5976 9.74069C40.1469 9.84357 39.8275 9.50909 39.4206 9.46784C39.4562 9.35904 39.2979 9.29431 39.2481 9.24097C39.1704 8.99802 39.2009 8.51477 39.5016 8.45876C39.3991 8.22195 39.888 8.27379 39.7967 7.992C40.2532 7.89479 40.594 7.43413 41.1009 7.60626C41.1078 7.26375 42.1853 7.24162 42.5102 7.20667C42.6635 7.31984 42.841 7.32498 43.0194 7.28223C43.5008 7.28299 44.0293 7.60776 44.4602 7.66296Z" fill="white"/>
<path d="M41.3212 13.0684C41.237 12.9489 41.2051 12.8098 41.0574 12.9605C40.8891 12.8201 40.5915 12.9427 40.3988 12.8333C40.2712 12.7524 39.8431 12.5884 39.8785 12.4026C39.6062 12.4577 39.5309 12.0155 39.5104 11.7736C39.7599 11.6481 39.2163 11.1163 39.6349 11.365C40.8481 11.5503 42.2026 11.6707 43.4147 11.3663C44.0007 11.1101 44.6072 10.7499 45.1893 10.4907C45.2761 10.587 45.2867 10.7596 45.24 10.8763C45.4093 11.0458 45.3485 11.3911 45.4117 11.6381C45.0937 12.2284 44.3785 12.6571 43.7304 12.6797C43.6653 12.7325 43.6222 12.9086 43.5293 12.7775C42.951 13.2167 42.0061 13.0537 41.3212 13.0684Z" fill="white"/>
<path d="M50.4751 12.7181C51.5295 11.4653 54.5049 11.1575 55.7832 12.4112C56.0532 13.5509 53.4418 14.4618 52.5728 14.2967C51.8815 14.3108 51.1304 14.1038 50.4477 13.8635C50.0105 13.6579 49.9828 12.8686 50.4752 12.7188L50.4751 12.7181Z" fill="white"/>
<path d="M56.2539 15.9863C55.3647 17.4221 52.2924 17.8981 50.9587 16.9334C50.8846 16.9988 50.5789 16.7567 50.5759 16.7343C50.6578 16.6522 50.1967 15.3822 50.6173 15.6947C52.4328 16.1488 54.6546 15.8425 56.1015 14.8297L56.2539 15.9863Z" fill="white"/>
<path d="M35.4023 15.7735C34.2845 16.7515 32.6164 17.3628 31.095 16.9114C30.8231 16.7803 30.1728 16.8132 30.1541 16.5361C29.9219 16.571 29.7416 16.1875 29.7251 15.9864C29.7285 15.9525 29.8329 15.8567 29.7629 15.7319C30.439 14.9689 31.6795 14.3918 32.8932 14.3211C33.778 14.4706 35.7802 14.3922 35.4023 15.7735Z" fill="white"/>
<path d="M30.034 18.3348C31.9269 18.9049 34.0808 18.6675 35.7213 17.657C35.7679 17.8056 35.6965 18.0268 35.8514 18.1034C35.8544 18.1265 35.7919 18.1555 35.7905 18.1827C35.7833 18.372 35.8955 18.4385 35.8975 18.4539C35.7973 18.527 35.8665 18.6463 35.8644 18.7435C35.5393 19.4752 34.5474 19.8334 33.7809 19.9807C32.7405 20.2575 31.1435 20.2989 30.2565 19.4822C30.1735 19.4475 30.0378 18.4556 30.034 18.3348Z" fill="white"/>
<path d="M46.963 17.4599C46.9656 17.6036 46.9935 17.6099 47.1217 17.5816L47.1402 17.7218C47.3757 17.653 47.3621 18.0156 47.5977 17.9468L47.6162 18.087C47.7314 18.0633 47.7801 18.0647 47.7748 18.2087C47.9688 18.1219 47.9176 18.4809 48.1152 18.6274C48.4339 19.6766 48.3757 21.3031 48.8149 22.315C49.04 26.0108 43.2809 26.987 40.6524 25.3157C40.6578 25.1724 40.5959 25.2226 40.4984 25.229C40.2799 24.9076 39.9251 24.6506 39.8645 24.2071C39.4269 23.3969 39.8636 22.0022 39.1963 21.2999C38.6653 17.3063 44.1075 16.3113 46.963 17.4599ZM46.2826 19.3324C46.3562 19.1715 46.3022 19.0538 46.1405 19.0659C44.591 18.1953 42.2882 18.5956 41.1119 19.8709C40.996 19.8897 41.0046 19.8686 41.0206 19.9899C40.7211 20.2768 41.0442 20.6514 41.3112 20.843C42.6601 21.5924 44.3714 21.4169 45.7128 20.6911C45.8931 20.5333 45.9613 20.4017 46.1758 20.4162C46.2082 20.4026 46.4335 20.0934 46.5197 20.05C46.5688 19.7946 46.7563 19.0846 46.2826 19.3324ZM46.9747 21.8799C45.263 22.7607 43.1978 23.2382 41.3318 22.6232C40.8754 23.8415 42.2828 24.3421 43.352 24.4252C44.6483 24.5155 45.7288 24.0722 46.7315 23.5522C47.2585 22.9835 47.0593 22.5491 46.9747 21.8799Z" fill="black"/>
<path d="M46.2826 19.3324C46.9654 19.037 46.452 20.5638 45.9655 20.4439C44.8409 21.4999 41.4327 21.9003 40.8989 20.1485C41.6005 18.9457 43.3907 18.5951 44.7957 18.6012C45.1354 18.6684 46.4213 18.9176 46.2826 19.3324Z" fill="white"/>
<path d="M46.9747 21.8799C47.0589 22.5406 47.2568 22.9923 46.7315 23.5522C45.7302 24.072 44.6476 24.5156 43.352 24.4252C42.2842 24.342 40.8738 23.8403 41.3318 22.6232C43.1978 23.2382 45.263 22.7608 46.9747 21.8799Z" fill="white"/>
<path d="M71.5554 69.3469C64.7937 66.7082 58.101 63.5049 51.2934 60.8908C50.4829 58.8581 50.6783 56.1074 49.9884 53.9669C49.2317 51.823 49.3106 49.4335 48.7568 47.3185C55.6616 49.9505 62.7995 52.1702 69.4937 55.3198C69.7494 60.06 71.005 64.6705 71.5554 69.3469Z" fill="#FFDB33"/>
<path d="M87.9805 41.3673C88.5059 45.8102 90.1895 50.7687 89.8955 55.0928C84.3164 59.591 78.8259 64.4362 73.3594 68.9666C73.0306 65.9555 72.469 63.1163 72.0512 60.1176C71.9455 59.3043 70.9292 54.8811 71.7303 54.7043C77.014 50.1295 82.8755 45.8858 87.9805 41.3673Z" fill="#FFDB33"/>
<path d="M62.5445 35.5895C62.6738 37.0743 62.7799 38.2313 64.3639 38.8442C67.3086 39.8841 72.8659 38.6478 71.6196 34.6436C71.082 33.9136 74.634 35.6015 74.6552 35.4918C74.1038 35.9452 73.4065 36.6069 73.2599 37.3515C73.294 37.7292 73.0725 38.284 73.356 38.6225C73.6959 40.3149 73.3104 42.6614 75.4864 43.1556C78.7982 44.3297 83.8836 42.6507 82.4526 38.387C83.8345 38.8832 85.3686 39.2095 86.7114 39.8585C81.3699 44.4003 75.5604 48.7847 70.1947 53.3376C63.4435 50.383 56.4696 48.1581 49.5721 45.3925C49.9402 45.2306 53.5312 41.7845 53.0711 42.7201C52.9359 47.5674 61.2113 47.3131 62.3448 43.2821C62.2941 42.8652 61.8482 38.9766 61.5343 38.7534C59.3442 36.7071 59.0946 38.2932 62.5438 35.5896L62.5445 35.5895ZM68.004 41.5739C63.1168 42.7868 63.9903 44.6864 64.5655 48.7661C65.9326 50.9644 69.0473 50.7502 71.1911 50.0685C73.3827 49.1871 74.05 47.4854 73.2426 45.341C73.3322 42.1443 70.8156 41.2199 68.004 41.5739Z" fill="#FFDB33"/>
<path d="M77.4039 36.0567C79.293 35.8942 82.4758 36.7329 79.3486 38.3679C76.2361 39.8163 72.1718 37.5311 77.4039 36.0567Z" fill="#FFDB33"/>
<path d="M66.1504 31.8339C67.1599 31.5554 70.7745 31.7746 69.3623 33.4789C67.0842 35.5662 60.4903 33.9416 66.1504 31.8339Z" fill="#FFDB33"/>
<path d="M75.1152 40.0667C77.0465 40.6146 79.2117 40.35 80.9241 39.2302C80.943 39.4167 81.0084 39.9294 81.1189 40.1673C80.989 40.4861 81.1975 40.7966 80.6901 40.9726C79.2247 42.0399 76.953 42.3734 75.3561 41.3543C75.2835 41.361 75.1124 40.1648 75.1152 40.0667Z" fill="#FFDB33"/>
<path d="M70.0211 34.9612C70.8506 37.604 66.8309 38.0287 65.0204 37.3315C64.1642 37.2417 64.415 36.4014 64.1467 35.842C66.2585 36.098 67.8398 36.2241 70.0211 34.9612Z" fill="#FFDB33"/>
<path d="M57.0144 38.8139C58.0886 38.7451 59.6994 38.7918 60.3139 39.7699C59.2754 43.2071 50.0698 41.0558 57.0144 38.8139Z" fill="#FFDB33"/>
<path d="M60.7146 43.3542C59.4244 44.8963 57.0624 44.9934 55.3143 44.3152C54.8173 44.1046 54.9347 43.5607 54.8373 43.13C54.833 43.1134 54.6418 42.929 54.7607 42.8192C56.666 43.4404 58.8084 43.0947 60.4995 41.9919C60.7161 41.947 60.5442 42.0602 60.5484 42.0924L60.7146 43.3542Z" fill="#FFDB33"/>
<path d="M68.004 41.5738C70.8151 41.2213 73.3327 42.1427 73.2426 45.3409C74.049 47.4832 73.3843 49.1882 71.1911 50.0683C69.0489 50.7513 65.9318 50.9636 64.5655 48.766C63.9911 44.6868 63.1161 42.7867 68.004 41.5738ZM68.0061 43.2137C64.1435 44.3009 65.555 46.186 68.9177 45.8036C69.7766 45.4858 71.7576 45.1978 71.4088 43.8709C70.6269 42.9919 69.1373 43.0476 68.0061 43.2137ZM71.8067 46.3502C69.747 47.4808 68.0559 47.4412 65.9322 47.231C66.1481 47.4407 66.0134 47.9555 66.1316 48.2031C66.6525 48.8876 67.7103 49.0078 68.5529 48.9895C69.7123 49.1392 71.1625 48.6116 71.9074 47.6562C71.9356 47.4157 71.8605 46.607 71.8067 46.3502Z" fill="black"/>
<path d="M68.006 43.2139C69.1372 43.0471 70.6269 42.9928 71.4087 43.8711C71.7569 45.1988 69.7763 45.4846 68.9176 45.8038C65.5534 46.1856 64.1447 44.3002 68.006 43.2139Z" fill="#FFDB33"/>
<path d="M71.8067 46.3504C71.8558 46.6149 71.9315 47.4115 71.9074 47.6564C71.1639 48.6116 69.7116 49.1395 68.5529 48.9897C67.7103 49.008 66.6524 48.8871 66.1316 48.2033C66.0125 47.9544 66.1496 47.4414 65.9322 47.2312C68.056 47.4421 69.7503 47.4792 71.8067 46.3504Z" fill="#FFDB33"/>
</svg>
