<svg width="436" height="271" viewBox="0 0 436 271" fill="none" xmlns="http://www.w3.org/2000/svg">
<path d="M158.442 211.636C157.87 192.341 164.12 172.648 177.552 156.377C206.863 120.871 249.466 114.608 294.621 143.5C294.621 143.5 317.195 161.15 362.959 140.795C410.274 119.75 408.572 77.877 403.366 55.4712" stroke="black" stroke-width="2.4327" stroke-miterlimit="10" stroke-linecap="round" stroke-linejoin="round" stroke-dasharray="8.75 8.75"/>
<path d="M166.759 213.974C170.617 217.082 171.151 222.753 167.952 226.64C164.752 230.527 159.032 231.158 155.174 228.05C151.317 224.941 150.783 219.27 153.982 215.384C157.181 211.497 162.902 210.866 166.759 213.974Z" fill="white" stroke="black" stroke-width="2.4327" stroke-miterlimit="10" stroke-linecap="round" stroke-linejoin="round"/>
<path d="M185.992 159.255C188.462 154.864 186.959 149.354 182.633 146.948C178.307 144.543 172.797 146.153 170.326 150.544C167.855 154.935 169.359 160.445 173.685 162.851C178.011 165.256 183.521 163.646 185.992 159.255Z" fill="white" stroke="black" stroke-width="2.4327" stroke-miterlimit="10" stroke-linecap="round" stroke-linejoin="round"/>
<path d="M311.501 158.821C315.183 155.382 315.432 149.66 312.056 146.041C308.681 142.421 302.959 142.274 299.276 145.713C295.594 149.152 295.345 154.874 298.721 158.493C302.097 162.113 307.818 162.26 311.501 158.821Z" fill="white" stroke="black" stroke-width="2.4327" stroke-miterlimit="10" stroke-linecap="round" stroke-linejoin="round"/>
<path d="M412.273 56.8387C416.131 59.9477 416.665 65.6183 413.466 69.5051C410.266 73.392 404.546 74.0237 400.688 70.9147C396.831 67.8063 396.297 62.1352 399.496 58.2484C402.695 54.3616 408.416 53.7303 412.273 56.8387Z" fill="white" stroke="black" stroke-width="2.4327" stroke-miterlimit="10" stroke-linecap="round" stroke-linejoin="round"/>
<path d="M8.46637 79.8666L22.4068 88.6335L64.8773 61.1932L50.3561 54.2879L8.46637 79.8666Z" fill="#FF5C57" stroke="black" stroke-width="2.4327" stroke-miterlimit="10" stroke-linecap="round" stroke-linejoin="round"/>
<path d="M167.372 128.599L167.918 145.894L83.7585 110.811C83.7585 110.811 79.9722 86.0071 98.9025 87.4263C117.833 88.8468 167.372 128.599 167.372 128.599Z" fill="black" stroke="black" stroke-width="2.4327" stroke-miterlimit="10" stroke-linecap="round" stroke-linejoin="round"/>
<path d="M8.54445 79.9856L9.1039 97.7105L22.6102 105.917L65.5305 77.9878L65.0029 61.2811L22.4966 88.7671L8.54445 79.9856Z" fill="#FF5C57" stroke="black" stroke-width="2.4327" stroke-miterlimit="10" stroke-linecap="round" stroke-linejoin="round"/>
<path d="M22.6348 88.6142L22.7492 105.89L9.1495 97.6233L8.58617 79.7681L22.6348 88.6142Z" fill="#FF5C57" stroke="black" stroke-width="2.4327" stroke-miterlimit="10" stroke-linecap="round" stroke-linejoin="round"/>
<path d="M167.369 128.579L167.915 145.882L83.7078 110.783L82.8166 82.5237L114.699 90.4785L167.369 128.579Z" fill="#FF5C57" stroke="black" stroke-width="2.4327" stroke-miterlimit="10" stroke-linecap="round" stroke-linejoin="round"/>
<path d="M28.6965 92.331L29.3034 111.59L63.4354 140.346L161.727 150.871L161.18 133.524L63.7111 121.896L28.6965 92.331Z" fill="#FF5C57" stroke="black" stroke-width="2.4327" stroke-miterlimit="10" stroke-linecap="round" stroke-linejoin="round"/>
<path d="M63.8972 121.46L63.6203 139.974L29.3355 111.119L28.7258 91.7941L63.8972 121.46Z" fill="#FF5C57" stroke="black" stroke-width="2.4327" stroke-miterlimit="10" stroke-linecap="round" stroke-linejoin="round"/>
<path d="M28.5965 92.3063L63.5958 121.857L161.023 133.48L99.6964 104.788C99.6964 104.788 85.998 105.243 90.0629 98.2407C94.1277 91.2382 107.013 95.2805 106.449 101.482L167.287 128.284L131.431 78.3631L71.4425 64.9153L28.5965 92.3063Z" fill="#FF5C57" stroke="black" stroke-width="2.4327" stroke-miterlimit="10" stroke-linecap="round" stroke-linejoin="round"/>
</svg>
