<svg width="231" height="98" viewBox="0 0 231 98" fill="none" xmlns="http://www.w3.org/2000/svg">
<path d="M220.476 8.64617L199.702 17.8264L180.678 -25.2217L201.452 -34.4019C201.452 -34.4019 214.013 -34.1231 221.369 -17.4761C228.594 -1.12949 220.476 8.64617 220.476 8.64617Z" fill="#FFDB33" stroke="black" stroke-width="3.5" stroke-miterlimit="10" stroke-linecap="round" stroke-linejoin="round"/>
<path d="M203.851 15.9932L57.5163 80.6599L38.4929 37.6118L184.827 -27.0549C184.827 -27.0549 197.167 -26.6785 204.524 -10.0315C211.748 6.31544 203.851 15.9932 203.851 15.9932Z" fill="#FFDB33" stroke="black" stroke-width="3.5" stroke-miterlimit="10" stroke-linecap="round" stroke-linejoin="round"/>
<path d="M174.338 -22.4194C174.338 -22.4194 189.466 -23.2752 196.822 -6.62817C204.046 9.71881 193.361 20.6286 193.361 20.6286" stroke="black" stroke-width="3.5" stroke-miterlimit="10" stroke-linecap="round" stroke-linejoin="round"/>
<path d="M56.8799 45.6846L192.159 -14.0964" stroke="black" stroke-width="3.5" stroke-miterlimit="10" stroke-linecap="round" stroke-linejoin="round"/>
<path d="M63.9482 61.6201L199.205 1.8488" stroke="black" stroke-width="3.5" stroke-miterlimit="10" stroke-linecap="round" stroke-linejoin="round"/>
<path d="M38.3538 37.673L9.51255 76.1456L57.3772 80.7211C57.3772 80.7211 68.1121 66.3912 62.1445 52.8871C56.1768 39.3829 38.3538 37.673 38.3538 37.673Z" fill="white" stroke="black" stroke-width="3.5" stroke-miterlimit="10" stroke-linecap="round" stroke-linejoin="round"/>
<path d="M20.1953 61.8958C20.1953 61.8958 28.7137 67.1816 27.2417 77.8412L9.51167 76.1461L20.1953 61.8958Z" fill="black" stroke="black" stroke-width="3.5" stroke-miterlimit="10" stroke-linecap="round" stroke-linejoin="round"/>
</svg>
