<svg width="486" height="319" viewBox="0 0 486 319" fill="none" xmlns="http://www.w3.org/2000/svg">
<path d="M95.0892 108.83H35.1704L5.19702 160.896L35.1704 212.962H95.0892L125.063 160.896L95.0892 108.83Z" fill="white" stroke="#222221" stroke-width="1.394" stroke-miterlimit="10"/>
<path d="M185.051 57.0564H125.118L95.1587 109.122L125.118 161.188H185.051L215.01 109.122L185.051 57.0564Z" fill="white" stroke="#222221" stroke-width="1.394" stroke-miterlimit="10"/>
<path d="M274.999 5.2832H215.066L185.107 57.3492L215.066 109.415H274.999L304.972 57.3492L274.999 5.2832Z" fill="#01ABFF" stroke="black" stroke-width="1.394" stroke-miterlimit="10"/>
<path d="M184.551 161.593H124.632L94.6584 213.659L124.632 265.725H184.551L214.524 213.659L184.551 161.593Z" fill="#01C971" stroke="black" stroke-width="1.394" stroke-miterlimit="10"/>
<path d="M274.512 109.82H214.58L184.62 161.886L214.58 213.952H274.512L304.472 161.886L274.512 109.82Z" fill="white" stroke="#222221" stroke-width="1.394" stroke-miterlimit="10"/>
<path d="M364.46 58.0464H304.541L274.568 110.112L304.541 162.178H364.46L394.434 110.112L364.46 58.0464Z" fill="#01C971" stroke="black" stroke-width="1.394" stroke-miterlimit="10"/>
<path d="M274.512 213.868H214.58L184.62 265.934L214.58 318H274.512L304.472 265.934L274.512 213.868Z" fill="#FF5C57" stroke="black" stroke-width="1.394" stroke-miterlimit="10"/>
<path d="M95.52 4.71167H35.6011L5.62781 56.7777L35.6011 108.844H95.52L125.493 56.7777L95.52 4.71167Z" fill="#FFDB33" stroke="#222221" stroke-width="1.394" stroke-miterlimit="10"/>
<path d="M364.46 162.094H304.541L274.568 214.161L304.541 266.227H364.46L394.434 214.161L364.46 162.094Z" fill="white" stroke="#222221" stroke-width="1.394" stroke-miterlimit="10"/>
<path d="M454.422 110.322H394.489L364.53 162.388L394.489 214.44H454.422L484.381 162.388L454.422 110.322Z" fill="white" stroke="#222221" stroke-width="1.394" stroke-miterlimit="10"/>
<path d="M157.037 127.551C140.695 127.551 127.453 109.931 127.453 109.931C127.453 109.931 140.695 92.3108 157.037 92.3108C173.378 92.3108 186.621 109.931 186.621 109.931C186.621 109.931 173.378 127.551 157.037 127.551Z" fill="#FF5C57" stroke="black" stroke-width="0.697002" stroke-miterlimit="10"/>
<path d="M148.032 97.5524C152.938 90.7078 160.886 90.7078 165.791 97.5524C170.696 104.397 170.696 115.507 165.791 122.366C160.886 129.224 152.938 129.21 148.032 122.366C143.127 115.521 143.127 104.411 148.032 97.5524Z" fill="black"/>
<path d="M219.137 214.621C219.137 217.506 216.803 219.834 213.94 219.834C211.078 219.834 208.743 217.492 208.743 214.621C208.743 211.749 211.078 209.407 213.94 209.407C216.803 209.407 219.137 211.749 219.137 214.621Z" fill="black" stroke="black" stroke-width="0.697002" stroke-miterlimit="10"/>
<path d="M280.849 214.621C280.849 217.506 278.514 219.834 275.652 219.834C272.789 219.834 270.455 217.492 270.455 214.621C270.455 211.749 272.789 209.407 275.652 209.407C278.514 209.407 280.849 211.749 280.849 214.621Z" fill="black" stroke="black" stroke-width="0.697002" stroke-miterlimit="10"/>
<path d="M309.669 161.886C309.669 164.771 307.334 167.099 304.472 167.099C301.609 167.099 299.275 164.757 299.275 161.886C299.275 159.014 301.609 156.672 304.472 156.672C307.334 156.672 309.669 159.014 309.669 161.886Z" fill="#222221"/>
<path d="M369.657 162.178C369.657 165.064 367.323 167.392 364.46 167.392C361.598 167.392 359.263 165.05 359.263 162.178C359.263 159.307 361.598 156.965 364.46 156.965C367.323 156.965 369.657 159.307 369.657 162.178Z" fill="#222221"/>
<path d="M190.331 57.0566C190.331 59.9422 187.997 62.2702 185.134 62.2702C182.272 62.2702 179.937 59.9282 179.937 57.0566C179.937 54.185 182.272 51.843 185.134 51.843C187.997 51.843 190.331 54.185 190.331 57.0566Z" fill="#222221"/>
<path d="M309.669 265.934C309.669 268.82 307.334 271.148 304.472 271.148C301.609 271.148 299.275 268.806 299.275 265.934C299.275 263.062 301.609 260.72 304.472 260.72C307.334 260.72 309.669 263.062 309.669 265.934Z" fill="black" stroke="black" stroke-width="0.697002" stroke-miterlimit="10"/>
<path d="M399.895 111.074C399.895 113.96 397.56 116.288 394.698 116.288C391.835 116.288 389.5 113.946 389.5 111.074C389.5 108.203 391.835 105.861 394.698 105.861C397.56 105.861 399.895 108.203 399.895 111.074Z" fill="#222221"/>
<path d="M219.137 109.917C219.137 112.803 216.803 115.131 213.94 115.131C211.078 115.131 208.743 112.789 208.743 109.917C208.743 107.046 211.078 104.704 213.94 104.704C216.803 104.704 219.137 107.046 219.137 109.917Z" fill="#222221"/>
<path d="M130.927 58.3947C130.927 61.2803 128.592 63.6083 125.73 63.6083C122.867 63.6083 120.533 61.2664 120.533 58.3947C120.533 55.5231 122.867 53.1812 125.73 53.1812C128.592 53.1812 130.927 55.5231 130.927 58.3947Z" fill="#222221"/>
<path d="M280.849 109.917C280.849 112.803 278.514 115.131 275.652 115.131C272.789 115.131 270.455 112.789 270.455 109.917C270.455 107.046 272.789 104.704 275.652 104.704C278.514 104.704 280.849 107.046 280.849 109.917Z" fill="#222221"/>
<path d="M129.676 161.844C129.676 164.729 127.342 167.057 124.479 167.057C121.616 167.057 119.282 164.715 119.282 161.844C119.282 158.972 121.616 156.63 124.479 156.63C127.342 156.63 129.676 158.972 129.676 161.844Z" fill="#222221"/>
<path d="M10.3941 160.896C10.3941 163.782 8.05959 166.11 5.19705 166.11C2.3345 166.11 0 163.768 0 160.896C0 158.024 2.3345 155.682 5.19705 155.682C8.05959 155.682 10.3941 158.024 10.3941 160.896Z" fill="#222221"/>
<path d="M100.939 108.788C100.939 111.674 98.6049 114.002 95.7423 114.002C92.8798 114.002 90.5453 111.66 90.5453 108.788C90.5453 105.916 92.8798 103.574 95.7423 103.574C98.6049 103.574 100.939 105.916 100.939 108.788Z" fill="#222221"/>
<path d="M39.7837 109.778C39.7837 112.663 37.4492 114.991 34.5867 114.991C31.7241 114.991 29.3896 112.649 29.3896 109.778C29.3896 106.906 31.7241 104.564 34.5867 104.564C37.4492 104.564 39.7837 106.906 39.7837 109.778Z" fill="#222221"/>
<path d="M190.248 161.844C190.248 164.729 187.914 167.057 185.051 167.057C182.189 167.057 179.854 164.715 179.854 161.844C179.854 158.972 182.189 156.63 185.051 156.63C187.914 156.63 190.248 158.972 190.248 161.844Z" fill="#222221"/>
<path d="M124.479 270.924C127.349 270.924 129.676 268.59 129.676 265.711C129.676 262.831 127.349 260.497 124.479 260.497C121.609 260.497 119.282 262.831 119.282 265.711C119.282 268.59 121.609 270.924 124.479 270.924Z" fill="#222221"/>
<path d="M190.248 265.711C190.248 268.596 187.914 270.924 185.051 270.924C182.189 270.924 179.854 268.583 179.854 265.711C179.854 262.839 182.189 260.497 185.051 260.497C187.914 260.497 190.248 262.839 190.248 265.711Z" fill="black" stroke="black" stroke-width="0.697002" stroke-miterlimit="10"/>
<g filter="url(#filter0_d_677_2542)">
<path d="M74.783 133.829C76.2293 133.829 77.6594 134.159 78.988 134.972L78.99 134.973C78.9978 134.977 79.002 134.98 79.0134 134.987V134.986C79.018 134.989 79.0226 134.993 79.0281 134.996L79.03 134.998C81.259 136.358 82.481 138.614 83.0417 141.002C83.5924 143.347 83.5795 146.077 83.1589 148.991L83.1101 149.326L83.4226 149.459C88.3883 151.565 92.6618 155.07 92.6619 160.228C92.6617 165.385 88.3882 168.889 83.4226 170.995L83.1101 171.128L83.1589 171.464C83.5797 174.361 83.5919 177.079 83.0417 179.422C82.4777 181.824 81.2507 184.083 79.0261 185.46C77.6868 186.29 76.2431 186.626 74.783 186.626C72.5834 186.626 70.4382 185.771 68.5339 184.619C67.5249 184.009 66.5146 183.272 65.5134 182.434L65.2302 182.196L64.947 182.435C63.9516 183.273 62.9443 184.009 61.9353 184.619C60.0217 185.777 57.8694 186.626 55.658 186.626C54.2116 186.626 52.7815 186.296 51.4529 185.483L51.45 185.481L51.4236 185.465C51.4198 185.463 51.4163 185.461 51.4148 185.46C51.4139 185.459 51.4132 185.459 51.4128 185.459L51.4099 185.457C49.1813 184.097 47.9588 181.84 47.3982 179.452C46.8476 177.107 46.8613 174.377 47.282 171.463L47.3298 171.128L47.0193 170.995C42.1079 168.898 37.7792 165.396 37.7791 160.228C37.7791 155.07 42.0519 151.565 47.0173 149.459L47.3298 149.326L47.281 148.99C46.8603 146.094 46.8481 143.376 47.3982 141.033C47.9441 138.708 49.1122 136.517 51.2029 135.131L51.4197 134.99C52.7575 134.163 54.1998 133.829 55.658 133.829C57.8575 133.829 60.0027 134.683 61.907 135.835C62.9193 136.447 63.9328 137.187 64.9373 138.029L65.2205 138.267L65.5027 138.029C66.5073 137.187 67.5213 136.448 68.5339 135.835C70.4382 134.683 72.5834 133.829 74.783 133.829Z" fill="#FF5C57" stroke="black" stroke-width="0.880222"/>
<path d="M65.2204 164.915C67.6384 164.915 69.5985 162.816 69.5985 160.227C69.5985 157.638 67.6384 155.54 65.2204 155.54C62.8024 155.54 60.8423 157.638 60.8423 160.227C60.8423 162.816 62.8024 164.915 65.2204 164.915Z" fill="white"/>
<path d="M81.8495 152.497C81.0046 152.168 80.1213 151.839 79.1996 151.551C79.43 150.564 79.6221 149.577 79.7757 148.631C80.5822 143.204 79.6989 139.379 77.241 137.899C76.5113 137.447 75.7048 137.241 74.7831 137.241C72.0948 137.241 68.6768 139.379 65.2204 142.957C61.7639 139.379 58.3459 137.241 55.6576 137.241C54.7359 137.241 53.9294 137.447 53.1997 137.899C50.7418 139.421 49.8585 143.245 50.665 148.631C50.8186 149.577 51.0107 150.564 51.2411 151.551C50.3194 151.839 49.4361 152.127 48.5912 152.497C43.7906 154.47 41.1791 157.184 41.1791 160.227C41.1791 163.27 43.829 165.984 48.5912 167.958C49.4361 168.287 50.3194 168.616 51.2411 168.904C51.0107 169.89 50.8186 170.877 50.665 171.823C49.8585 177.251 50.7418 181.075 53.1997 182.555C53.9294 183.008 54.7359 183.213 55.6576 183.213C58.3843 183.213 61.8023 181.075 65.2204 177.498C68.6768 181.075 72.0948 183.213 74.7831 183.213C75.7048 183.213 76.5113 183.008 77.241 182.555C79.6989 181.034 80.5822 177.21 79.7757 171.823C79.6221 170.877 79.43 169.89 79.1996 168.904C80.1213 168.616 81.0046 168.328 81.8495 167.958C86.6501 165.984 89.2616 163.27 89.2616 160.227C89.2616 157.184 86.6501 154.47 81.8495 152.497ZM76.1657 139.955C77.7402 140.942 78.2779 143.985 77.625 148.302C77.5098 149.166 77.3178 150.071 77.0874 151.016C75.0903 150.523 72.9781 150.194 70.7506 149.988C69.4449 148.015 68.1007 146.246 66.7565 144.643C69.5985 141.641 72.4788 139.585 74.8215 139.585C75.3208 139.585 75.7816 139.708 76.1657 139.955ZM71.8643 164.339C71.1731 165.655 70.3666 166.971 69.5217 168.287C68.1007 168.41 66.6797 168.451 65.2204 168.451C63.7226 168.451 62.3016 168.41 60.919 168.287C60.0741 166.971 59.306 165.655 58.6148 164.339C57.8851 162.982 57.1938 161.584 56.5793 160.227C57.1938 158.87 57.8851 157.472 58.6148 156.115C59.306 154.799 60.1125 153.484 60.9574 152.168C62.3784 152.044 63.7994 152.003 65.2588 152.003C66.7565 152.003 68.1775 152.044 69.5601 152.168C70.405 153.484 71.1731 154.799 71.8643 156.115C72.594 157.472 73.2853 158.87 73.8998 160.227C73.2469 161.584 72.594 162.941 71.8643 164.339ZM75.0519 162.982C75.628 164.421 76.0888 165.82 76.5113 167.218C75.2055 167.547 73.823 167.793 72.3636 167.999C72.8245 167.218 73.3237 166.395 73.7462 165.532C74.207 164.668 74.6295 163.805 75.0519 162.982ZM65.2204 174.126C64.2986 173.057 63.4153 171.905 62.5704 170.713C63.4537 170.754 64.337 170.795 65.2204 170.795C66.1037 170.795 66.987 170.754 67.8703 170.713C67.0254 171.905 66.1421 173.057 65.2204 174.126ZM58.0771 167.958C56.6177 167.752 55.2352 167.505 53.9294 167.176C54.3519 165.82 54.8127 164.38 55.3888 162.941C55.8112 163.764 56.2337 164.627 56.6945 165.449C57.1554 166.354 57.6162 167.135 58.0771 167.958ZM55.3888 157.472C54.8127 156.033 54.3519 154.635 53.9294 153.237C55.2352 152.908 56.6177 152.661 58.0771 152.456C57.6162 153.237 57.117 154.059 56.6945 154.923C56.2337 155.786 55.8112 156.65 55.3888 157.472ZM65.2204 146.329C66.1421 147.398 67.0254 148.549 67.8703 149.742C66.987 149.701 66.1037 149.659 65.2204 149.659C64.337 149.659 63.4537 149.701 62.5704 149.742C63.4153 148.549 64.2986 147.398 65.2204 146.329ZM73.7462 154.964L72.3636 152.497C73.823 152.702 75.2055 152.949 76.5113 153.278C76.0888 154.635 75.628 156.074 75.0519 157.513C74.6295 156.65 74.207 155.786 73.7462 154.964ZM52.8157 148.302C52.1628 143.985 52.7005 140.942 54.275 139.955C54.6591 139.708 55.1199 139.585 55.6192 139.585C57.9235 139.585 60.8038 141.6 63.6842 144.643C62.34 146.205 60.9958 148.015 59.6901 149.988C57.4626 150.194 55.3504 150.564 53.3533 151.016C53.1229 150.071 52.9693 149.166 52.8157 148.302ZM43.3297 160.227C43.3297 158.295 45.5188 156.239 49.3593 154.717C50.1273 154.388 50.9722 154.1 51.8171 153.854C52.4316 155.91 53.1997 158.089 54.1214 160.268C53.1997 162.448 52.3932 164.586 51.8171 166.642C46.5173 164.997 43.3297 162.53 43.3297 160.227ZM54.275 180.499C52.7005 179.512 52.1628 176.47 52.8157 172.152C52.9309 171.288 53.1229 170.384 53.3533 169.438C55.3504 169.932 57.4626 170.26 59.6901 170.466C60.9958 172.44 62.34 174.208 63.6842 175.812C60.8422 178.813 57.9619 180.869 55.6192 180.869C55.1199 180.869 54.6591 180.746 54.275 180.499ZM77.625 172.152C78.2779 176.47 77.7402 179.512 76.1657 180.499C75.7816 180.746 75.3208 180.869 74.8215 180.869C72.5172 180.869 69.6369 178.855 66.7565 175.812C68.1007 174.249 69.4449 172.44 70.7506 170.466C72.9781 170.26 75.0903 169.89 77.0874 169.438C77.3178 170.384 77.4714 171.288 77.625 172.152ZM81.0814 165.737C80.3134 166.066 79.4685 166.354 78.6236 166.601C78.0091 164.545 77.241 162.365 76.3193 160.186C77.241 158.007 78.0475 155.869 78.6236 153.813C83.9234 155.457 87.111 157.925 87.111 160.227C87.111 162.16 84.8835 164.216 81.0814 165.737Z" fill="white"/>
</g>
<path d="M269.663 36.732L245.206 52.0381L220.916 36.732L245.206 21.4119L269.663 36.732Z" fill="#01C971" stroke="black" stroke-width="0.697002" stroke-miterlimit="10"/>
<path d="M245.137 81.2704L220.888 65.2254V36.8435L245.206 51.9824L245.137 81.2704Z" fill="#FFDB33" stroke="black" stroke-width="0.697002" stroke-miterlimit="10"/>
<path d="M245.137 81.2704L269.677 65.2254V36.8435L245.206 51.9824L245.137 81.2704Z" fill="#222221" stroke="#222221" stroke-width="0.697002" stroke-miterlimit="10"/>
<mask id="mask0_677_2542" style="mask-type:luminance" maskUnits="userSpaceOnUse" x="220" y="36" width="26" height="46">
<path d="M245.137 81.2704L220.888 65.2254V36.8435L245.206 51.9824L245.137 81.2704Z" fill="white"/>
</mask>
<g mask="url(#mask0_677_2542)">
<path d="M228.489 51.0485C228.378 51.3273 228.267 51.6061 228.128 51.8709C226.863 54.4359 222.736 59.0082 219.721 59.2731C217.317 59.4961 215.733 57.5166 216.622 55.2305C217.734 52.3449 221.986 51.7733 223.834 49.4732C224.64 48.4696 225.293 47.0477 226.572 46.9222C227.628 46.8246 228.559 47.7726 228.753 48.8041C228.892 49.5569 228.753 50.3096 228.489 51.0345V51.0485Z" fill="#222221"/>
<path d="M225.502 65.4206C226.363 63.2738 227.53 60.8622 229.768 60.3325C230.449 60.1652 231.227 60.2349 231.796 60.6531C232.992 61.5453 232.7 63.3853 232.283 64.8212C231.769 66.5776 231.255 68.348 230.74 70.1044C229.99 72.6694 227.767 76.7817 224.432 74.6628C221.291 72.6694 224.529 67.8462 225.516 65.4066L225.502 65.4206Z" fill="#222221"/>
<path d="M231.991 52.54C231.908 52.8885 231.838 53.251 231.963 53.5855C232.255 54.394 233.367 54.5056 234.214 54.3104C237.647 53.5158 240.023 50.3375 241.371 47.0616C241.718 46.1973 242.024 45.2912 242.01 44.3572C241.968 42.8656 240.787 41.3322 239.147 41.6947C237.855 41.9874 237.549 43.6602 236.966 44.636C235.409 47.2707 232.797 49.5011 232.005 52.5261L231.991 52.54Z" fill="#222221"/>
<path d="M238.036 59.9978C238.341 61.9215 244.15 64.5423 245.025 64.9326C248.541 66.5078 254.224 63.7198 249.847 60.8063C247.61 59.3287 244.9 58.8547 242.288 58.4505C241.482 58.325 240.662 58.2274 239.884 58.4365C238.425 58.8129 237.938 59.3705 238.036 59.9978Z" fill="#222221"/>
<path d="M239.856 72.1815C240.259 71.3172 241.371 70.453 242.066 71.1221C242.274 71.3312 242.357 71.61 242.441 71.9027C243.191 74.621 243.413 77.4787 243.108 80.2807C242.885 82.3299 240.204 85.327 238.703 82.4274C237.813 80.7128 239.036 73.924 239.856 72.1815Z" fill="#222221"/>
</g>
<path d="M314.922 98.0681C314.143 95.0571 311.42 92.8267 308.182 92.8267C304.333 92.8267 301.206 95.9632 301.206 99.8246V127.83C301.206 131.691 304.333 134.828 308.182 134.828C311.434 134.828 314.143 132.598 314.922 129.587C315.7 132.598 318.423 134.828 321.661 134.828C324.913 134.828 327.622 132.598 328.4 129.587C329.179 132.598 331.902 134.828 335.14 134.828C338.392 134.828 341.101 132.598 341.879 129.587C342.658 132.598 345.381 134.828 348.619 134.828C351.871 134.828 354.58 132.598 355.358 129.587C356.137 132.598 358.86 134.828 362.098 134.828C365.947 134.828 369.074 131.691 369.074 127.83V99.8246C369.074 95.9632 365.947 92.8267 362.098 92.8267C358.846 92.8267 356.137 95.0571 355.358 98.0681C354.58 95.0571 351.857 92.8267 348.619 92.8267C345.367 92.8267 342.658 95.0571 341.879 98.0681C341.101 95.0571 338.378 92.8267 335.14 92.8267C331.888 92.8267 329.179 95.0571 328.4 98.0681C327.622 95.0571 324.899 92.8267 321.661 92.8267C318.409 92.8267 315.7 95.0571 314.922 98.0681Z" fill="#FFDB33" stroke="black" stroke-width="0.697002" stroke-miterlimit="10"/>
<path d="M335.154 106.098C331.444 106.098 328.359 108.718 327.608 112.217C326.872 108.718 323.773 106.098 320.063 106.098C315.797 106.098 312.351 109.555 312.351 113.834C312.351 118.114 315.797 121.571 320.063 121.571C323.773 121.571 326.858 118.95 327.608 115.451C328.345 118.95 331.444 121.571 335.154 121.571C338.864 121.571 341.949 118.95 342.699 115.451C343.436 118.95 346.535 121.571 350.245 121.571C354.511 121.571 357.957 118.114 357.957 113.834C357.957 109.555 354.511 106.098 350.245 106.098C346.535 106.098 343.45 108.718 342.699 112.217C341.963 108.718 338.864 106.098 335.154 106.098Z" fill="#FF5C57" stroke="black" stroke-width="0.697002" stroke-miterlimit="10"/>
<path d="M362.098 132.64C364.683 132.64 366.781 130.535 366.781 127.942V109.151" fill="#FFDB33"/>
<path d="M362.098 132.64C364.683 132.64 366.781 130.535 366.781 127.942V109.151" stroke="black" stroke-width="0.697002" stroke-miterlimit="10"/>
<path d="M348.577 108.091C350.287 107.645 352.218 108.119 353.524 109.332" stroke="black" stroke-width="0.697002" stroke-miterlimit="10"/>
<path d="M354.983 110.963C355.65 112.022 356.039 113.249 356.109 114.489" stroke="black" stroke-width="0.697002" stroke-miterlimit="10"/>
<path d="M334.334 108.398C336.349 107.812 338.711 108.9 339.601 110.795" stroke="black" stroke-width="0.697002" stroke-miterlimit="10"/>
<path d="M339.99 116.72C340.42 115.34 340.42 113.82 340.017 112.426" stroke="black" stroke-width="0.697002" stroke-miterlimit="10"/>
<path d="M323.773 116.971C324.579 115.005 324.468 112.691 323.468 110.823" stroke="black" stroke-width="0.697002" stroke-miterlimit="10"/>
<path d="M359.625 130.785C360.333 131.259 361.292 131.134 362.029 130.716C362.765 130.297 363.321 129.628 363.849 128.973" stroke="black" stroke-width="0.697002" stroke-miterlimit="10"/>
<path d="M366.948 104.662V102.417" stroke="black" stroke-width="0.697002" stroke-miterlimit="10"/>
<g filter="url(#filter1_d_677_2542)">
<path d="M239.347 131.33C241.599 130.053 244.436 130.005 246.73 131.215L246.949 131.335V131.336L246.95 131.337H246.951L246.966 131.345L246.975 131.35L266.143 142.505H266.144C268.728 144.005 269.837 146.703 269.838 149.186V171.466C269.838 173.942 268.736 176.616 266.19 178.125H266.192L266.148 178.15L247.052 189.295L247.044 189.3L247.041 189.302C245.871 189.979 244.544 190.334 243.193 190.333H243.144C241.814 190.324 240.509 189.97 239.356 189.302H239.357L239.343 189.295H239.344L239.324 189.283L239.32 189.281L232.929 185.488L232.918 185.482L232.62 185.302C232.298 185.097 231.916 184.813 231.572 184.432C231.353 184.19 231.026 183.757 230.797 183.18L230.634 182.772L230.195 182.744L229.857 182.716C229.505 182.68 229.112 182.618 228.681 182.511C227.686 182.267 226.629 181.829 225.322 181.183L225.321 181.182L225.22 181.133L225.129 181.081L225.128 181.08L220.044 178.173H220.045L220.021 178.159L220.016 178.155L219.807 178.03C217.669 176.698 216.083 174.272 216.083 171.466V149.187C216.083 146.32 217.728 143.813 220.004 142.499L239.321 131.344L239.347 131.33Z" fill="white" stroke="black" stroke-width="1.394"/>
<path d="M243.191 142.372L243.158 142.353" stroke="black" stroke-width="1.394"/>
<path d="M264.315 145.645L245.147 134.49C243.939 133.8 242.357 133.8 241.14 134.49L221.821 145.645C220.575 146.364 219.728 147.716 219.728 149.161V171.44C219.728 172.886 220.593 174.238 221.839 174.961L226.933 177.875C229.376 179.082 230.053 179.082 231.165 179.082C234.784 179.082 236.663 176.887 236.663 173.059V151.064C236.664 150.753 236.857 150.291 236.552 150.291H234.111C233.802 150.291 233.19 150.753 233.19 151.063V173.058C233.19 174.755 231.619 176.444 228.759 175.01L223.496 171.955C223.312 171.855 223.202 171.653 223.202 171.44V149.161C223.202 148.951 223.403 148.741 223.589 148.633L242.86 137.498C242.954 137.448 243.06 137.421 243.167 137.421C243.274 137.421 243.38 137.448 243.474 137.498L262.565 148.63C262.748 148.741 262.719 148.945 262.719 149.161V171.44C262.719 171.653 262.759 171.86 262.578 171.962L243.414 183.104C243.25 183.203 243.036 183.203 242.856 183.104L237.942 180.164C237.793 180.077 237.615 180.046 237.473 180.126C236.107 180.903 235.853 181.006 234.572 181.452C234.257 181.562 233.791 181.753 234.749 182.292L241.175 186.106C241.789 186.461 242.485 186.648 243.193 186.648C243.905 186.65 244.604 186.462 245.22 186.106L264.316 174.961C265.563 174.233 266.193 172.886 266.193 171.44V149.161C266.192 147.716 265.562 146.367 264.315 145.645V145.645ZM249.138 167.91C244.046 167.91 242.925 166.501 242.551 163.961C242.506 163.687 242.275 163.36 241.997 163.36H239.509C239.201 163.36 238.953 163.734 238.953 164.042C238.953 167.294 240.716 171.235 249.138 171.235C255.234 171.235 258.73 168.859 258.73 164.653C258.73 160.483 255.921 159.389 250.009 158.604C244.033 157.812 243.426 157.411 243.426 156.007C243.426 154.849 243.94 153.305 248.365 153.305C252.319 153.305 253.776 154.156 254.376 156.829C254.427 157.081 254.656 157.261 254.914 157.261H257.413C257.567 157.261 257.713 157.199 257.821 157.089C257.926 156.97 257.98 156.821 257.967 156.662C257.579 152.058 254.531 149.912 248.365 149.912C242.879 149.912 239.608 152.236 239.608 156.131C239.608 160.356 242.863 161.523 248.129 162.046C254.427 162.665 254.917 163.588 254.917 164.831C254.917 166.99 253.19 167.91 249.138 167.91Z" fill="#0CA95B"/>
</g>
<path d="M447.741 186.87C460.179 174.393 460.179 154.163 447.741 141.685C435.303 129.208 415.137 129.208 402.699 141.685C390.261 154.163 390.261 174.393 402.699 186.87C415.137 199.348 435.303 199.347 447.741 186.87Z" fill="#FF5C57" stroke="black" stroke-width="0.697002" stroke-miterlimit="10"/>
<path d="M425.213 196.234C438.566 196.234 449.392 181.929 449.392 164.283C449.392 146.638 438.566 132.333 425.213 132.333C411.859 132.333 401.034 146.638 401.034 164.283C401.034 181.929 411.859 196.234 425.213 196.234Z" stroke="black" stroke-width="0.697002" stroke-miterlimit="10"/>
<path d="M425.213 132.333C430.132 132.333 434.12 146.635 434.12 164.283C434.12 181.931 430.132 196.234 425.213 196.234C420.294 196.234 416.306 181.931 416.306 164.283C416.306 146.635 420.294 132.333 425.213 132.333Z" stroke="black" stroke-width="0.697002" stroke-miterlimit="10"/>
<mask id="mask1_677_2542" style="mask-type:luminance" maskUnits="userSpaceOnUse" x="393" y="132" width="65" height="65">
<path d="M447.741 186.87C460.179 174.393 460.179 154.163 447.741 141.685C435.303 129.208 415.137 129.208 402.699 141.685C390.261 154.163 390.261 174.393 402.699 186.87C415.137 199.348 435.303 199.347 447.741 186.87Z" fill="white"/>
</mask>
<g mask="url(#mask1_677_2542)">
<path d="M425.213 223.263C442.803 223.263 457.062 213.271 457.062 200.945C457.062 188.62 442.803 178.627 425.213 178.627C407.623 178.627 393.364 188.62 393.364 200.945C393.364 213.271 407.623 223.263 425.213 223.263Z" stroke="black" stroke-width="0.697002" stroke-miterlimit="10"/>
<path d="M425.213 150.733C442.803 150.733 457.062 140.741 457.062 128.415C457.062 116.09 442.803 106.097 425.213 106.097C407.623 106.097 393.364 116.09 393.364 128.415C393.364 140.741 407.623 150.733 425.213 150.733Z" stroke="black" stroke-width="0.697002" stroke-miterlimit="10"/>
<path d="M388.653 166.109H460.3" stroke="black" stroke-width="0.697002" stroke-miterlimit="10"/>
</g>
<path d="M454.088 169.539C453.797 171.825 453.171 174.055 452.268 176.174" stroke="black" stroke-width="0.697002" stroke-miterlimit="10"/>
<path d="M453.574 155.626C454.269 158.387 454.519 161.258 454.325 164.102" stroke="black" stroke-width="0.697002" stroke-miterlimit="10"/>
<path d="M334.14 194.073C356.22 194.073 374.118 202.395 374.118 212.669C374.118 218.747 368.226 222.929 363.376 225.354C359.666 227.208 355.664 228.477 351.621 229.397C346.201 230.624 340.518 231.335 334.82 231.432C334.334 237.399 331.944 243.226 328.011 247.728C326.525 249.429 324.69 251.032 322.453 251.353C326.149 245.372 327.859 238.235 327.497 231.209C320.271 230.652 313.171 229.049 306.654 226.163C301.262 223.779 294.175 219.416 294.175 212.669C294.175 202.395 312.073 194.073 334.153 194.073H334.14Z" fill="#01ABFF" stroke="black" stroke-width="0.697002" stroke-miterlimit="10"/>
<path d="M361.82 211.206C361.445 214.523 358.457 217.283 355.275 217.242C352.093 217.2 349.161 214.37 348.855 211.038C348.744 209.784 349.105 208.32 350.203 207.818C351.301 207.316 352.649 208.139 353.107 209.296C353.566 210.453 353.33 211.791 352.857 212.948C351.412 216.447 347.66 218.733 344.047 218.315C340.434 217.897 337.238 214.816 336.557 211.066C336.321 209.784 336.46 208.236 337.488 207.511C338.767 206.605 340.671 207.679 341.115 209.226C341.56 210.773 340.907 212.46 339.976 213.743C338.03 216.419 334.751 217.799 331.583 217.646C330.165 217.576 328.303 217.242 327.122 216.377C325.385 215.123 323.648 211.066 325.024 209.031C325.288 208.627 325.733 208.32 326.191 208.334C326.511 208.334 326.803 208.515 327.053 208.738C327.678 209.296 327.956 210.188 327.984 211.052C328.039 212.823 327.039 214.802 325.927 216.099C323.857 218.51 320.258 219.235 317.395 217.98C314.533 216.726 312.545 213.659 312.254 210.425C312.142 209.212 312.643 207.595 313.81 207.651C314.671 207.693 315.172 208.682 315.366 209.547C315.908 212.07 315.144 214.872 313.393 216.712C311.642 218.552 308.988 219.36 306.57 218.803" stroke="black" stroke-width="0.697002" stroke-miterlimit="10"/>
<path d="M369.102 216.809C367.392 220.74 363.168 222.957 359.055 224.156" stroke="black" stroke-width="0.697002" stroke-miterlimit="10"/>
<path d="M309.474 201.461C306.264 202.521 303.221 204.124 300.512 206.159" stroke="black" stroke-width="0.697002" stroke-miterlimit="10"/>
<path d="M219.137 5.21357C219.137 8.09916 216.803 10.4271 213.94 10.4271C211.078 10.4271 208.743 8.08522 208.743 5.21357C208.743 2.34193 211.078 0 213.94 0C216.803 0 219.137 2.34193 219.137 5.21357Z" fill="#222221"/>
<path d="M280.849 5.21357C280.849 8.09916 278.514 10.4271 275.652 10.4271C272.789 10.4271 270.455 8.08522 270.455 5.21357C270.455 2.34193 272.789 0 275.652 0C278.514 0 280.849 2.34193 280.849 5.21357Z" fill="#222221"/>
<g filter="url(#filter2_d_677_2542)">
<path d="M36.7148 58.8801C36.7148 43.5311 49.1576 31 64.5065 31C79.8555 31 92.2982 43.5311 92.2982 58.8801C92.2982 74.229 79.8555 86.7601 64.5065 86.7601C49.1576 86.7601 36.7148 74.229 36.7148 58.8801Z" fill="black"/>
</g>
<path d="M74.6285 43.4182C75.2263 43.3626 75.7228 43.637 75.9551 44.2066C76.085 44.5183 76.0805 44.8701 75.9428 45.1784C75.6735 45.7928 73.5699 47.7225 72.9753 48.3276L63.157 58.1837L54.503 66.8662C53.5125 67.8485 52.5356 68.8415 51.5595 69.8386C51.2722 70.132 50.9344 70.3063 50.5581 70.4542C49.9685 70.496 49.4182 70.2638 49.1975 69.6883C48.7302 68.4703 50.6143 67.1199 51.4084 66.3306L54.7618 62.9583L65.9777 51.7089L71.368 46.3053C72.1124 45.5587 72.8459 44.7967 73.5859 44.0457C73.8973 43.7297 74.2257 43.5738 74.6285 43.4182Z" fill="#FEFEFE"/>
<path d="M77.0016 57.6895C78.1831 57.5602 79.2691 58.434 78.4671 59.5186C77.826 60.3857 76.749 61.3219 75.9694 62.1141L70.268 67.8317L67.0995 71.0187C66.5362 71.5842 65.535 72.6451 64.9304 73.0464C63.7078 73.3843 62.9632 72.2787 63.4116 71.1938C63.6167 70.6976 64.6839 69.819 65.1039 69.3937L70.8049 63.6732L74.9247 59.544C75.5763 58.8946 76.1594 58.0599 77.0016 57.6895Z" fill="#FEFEFE"/>
<g filter="url(#filter3_d_677_2542)">
<path d="M153.486 185.902C168.889 185.902 181.41 198.461 181.41 213.917C181.41 223.772 176.34 232.397 168.715 237.38C168.454 237.55 168.177 237.679 167.893 237.769L167.775 237.807L167.688 237.895C167.463 238.121 167.207 238.317 166.925 238.473C162.955 240.661 158.371 241.931 153.486 241.931C138.084 241.931 125.563 229.372 125.563 213.917C125.563 198.462 138.084 185.902 153.486 185.902Z" fill="white" stroke="black" stroke-width="1.00051"/>
<path d="M153.487 189.506C166.907 189.506 177.82 200.452 177.82 213.917C177.82 222.409 173.499 229.853 166.96 234.221L147.703 205.224L147.628 205.112H144.632V224.918H147.745V211.344L164.948 235.447C161.546 237.271 157.644 238.328 153.487 238.328C140.067 238.328 129.154 227.382 129.154 213.917C129.154 200.452 140.067 189.506 153.487 189.506ZM158.844 217.576L158.886 217.638L161.767 221.993L162.226 222.686V205.112H158.844V217.576Z" fill="black" stroke="white" stroke-width="0.500254"/>
</g>
<g filter="url(#filter4_d_677_2542)">
<g clip-path="url(#clip0_677_2542)">
<mask id="path-76-inside-1_677_2542" fill="white">
<path d="M216.775 266.255C216.775 250.906 229.218 238.375 244.567 238.375V238.375C259.916 238.375 272.359 250.906 272.359 266.255V266.255C272.359 281.604 259.916 294.135 244.567 294.135V294.135C229.218 294.135 216.775 281.604 216.775 266.255V266.255Z"/>
</mask>
<path d="M216.775 238.375H272.359V294.135H216.775V238.375Z" fill="white"/>
<path d="M233.874 252.407C234.517 252.43 235.068 252.48 235.702 252.607C238.267 253.125 240.497 254.748 241.934 256.921C242.836 258.282 243.441 259.818 243.712 261.429C243.902 262.582 243.888 263.451 243.888 264.61L243.888 267.056L243.888 275.728L243.888 278.877C243.888 279.025 243.899 279.963 243.881 280.054L243.856 280.065C241.237 280.039 238.906 278.985 237.074 277.117C235.648 275.637 234.652 273.794 234.193 271.788C234.043 271.142 233.944 270.485 233.898 269.824C233.844 269.003 233.872 267.95 233.872 267.106L233.873 263.324L233.874 252.407Z" fill="black"/>
<path d="M245.628 259.98C245.664 259.978 245.701 259.977 245.737 259.977C246.071 259.981 246.684 260.075 247.011 260.137C249.061 260.526 250.937 261.548 252.378 263.061C254.192 264.967 255.19 267.51 255.156 270.145C255.096 272.967 254.001 275.416 251.975 277.364C250.08 279.16 247.715 280.026 245.131 280.069C245.115 278.673 245.13 277.245 245.13 275.848L245.13 267.852V262.93L245.13 261.359C245.129 261.104 245.125 260.848 245.128 260.594C245.129 260.389 245.224 260.196 245.393 260.082C245.476 260.025 245.534 260.007 245.628 259.98Z" fill="black"/>
<path d="M251.334 278.828L251.353 278.842C251.38 278.906 251.389 279.023 251.39 279.093L251.357 279.065C251.335 278.986 251.337 278.91 251.334 278.828Z" fill="#CECDD5"/>
</g>
<path d="M216.775 266.255M272.359 266.255M272.359 266.255M216.775 266.255M244.567 238.375M272.359 266.255M244.567 294.135M216.775 266.255M244.567 294.135V292.741C229.994 292.741 218.169 280.839 218.169 266.255H216.775H215.381C215.381 282.368 228.442 295.529 244.567 295.529V294.135ZM272.359 266.255H270.965C270.965 280.839 259.14 292.741 244.567 292.741V294.135V295.529C260.691 295.529 273.753 282.368 273.753 266.255H272.359ZM244.567 238.375V239.769C259.14 239.769 270.965 251.67 270.965 266.255H272.359H273.753C273.753 250.142 260.691 236.981 244.567 236.981V238.375ZM244.567 238.375V236.981C228.442 236.981 215.381 250.142 215.381 266.255H216.775H218.169C218.169 251.67 229.994 239.769 244.567 239.769V238.375Z" fill="black" mask="url(#path-76-inside-1_677_2542)"/>
</g>
<defs>
<filter id="filter0_d_677_2542" x="37.3386" y="133.389" width="58.7637" height="56.6775" filterUnits="userSpaceOnUse" color-interpolation-filters="sRGB">
<feFlood flood-opacity="0" result="BackgroundImageFix"/>
<feColorMatrix in="SourceAlpha" type="matrix" values="0 0 0 0 0 0 0 0 0 0 0 0 0 0 0 0 0 0 127 0" result="hardAlpha"/>
<feOffset dx="3" dy="3"/>
<feColorMatrix type="matrix" values="0 0 0 0 0 0 0 0 0 0 0 0 0 0 0 0 0 0 1 0"/>
<feBlend mode="normal" in2="BackgroundImageFix" result="effect1_dropShadow_677_2542"/>
<feBlend mode="normal" in="SourceGraphic" in2="effect1_dropShadow_677_2542" result="shape"/>
</filter>
<filter id="filter1_d_677_2542" x="215.386" y="129.642" width="59.6634" height="65.4682" filterUnits="userSpaceOnUse" color-interpolation-filters="sRGB">
<feFlood flood-opacity="0" result="BackgroundImageFix"/>
<feColorMatrix in="SourceAlpha" type="matrix" values="0 0 0 0 0 0 0 0 0 0 0 0 0 0 0 0 0 0 127 0" result="hardAlpha"/>
<feOffset dx="4.08001" dy="4.08001"/>
<feComposite in2="hardAlpha" operator="out"/>
<feColorMatrix type="matrix" values="0 0 0 0 0.0470588 0 0 0 0 0.662745 0 0 0 0 0.356863 0 0 0 1 0"/>
<feBlend mode="normal" in2="BackgroundImageFix" result="effect1_dropShadow_677_2542"/>
<feBlend mode="normal" in="SourceGraphic" in2="effect1_dropShadow_677_2542" result="shape"/>
</filter>
<filter id="filter2_d_677_2542" x="36.7148" y="31" width="58.3715" height="58.5483" filterUnits="userSpaceOnUse" color-interpolation-filters="sRGB">
<feFlood flood-opacity="0" result="BackgroundImageFix"/>
<feColorMatrix in="SourceAlpha" type="matrix" values="0 0 0 0 0 0 0 0 0 0 0 0 0 0 0 0 0 0 127 0" result="hardAlpha"/>
<feOffset dx="2.78801" dy="2.78801"/>
<feColorMatrix type="matrix" values="0 0 0 0 1 0 0 0 0 1 0 0 0 0 1 0 0 0 1 0"/>
<feBlend mode="normal" in2="BackgroundImageFix" result="effect1_dropShadow_677_2542"/>
<feBlend mode="normal" in="SourceGraphic" in2="effect1_dropShadow_677_2542" result="shape"/>
</filter>
<filter id="filter3_d_677_2542" x="125.062" y="185.402" width="59.8481" height="60.0288" filterUnits="userSpaceOnUse" color-interpolation-filters="sRGB">
<feFlood flood-opacity="0" result="BackgroundImageFix"/>
<feColorMatrix in="SourceAlpha" type="matrix" values="0 0 0 0 0 0 0 0 0 0 0 0 0 0 0 0 0 0 127 0" result="hardAlpha"/>
<feOffset dx="3" dy="3"/>
<feColorMatrix type="matrix" values="0 0 0 0 0 0 0 0 0 0 0 0 0 0 0 0 0 0 1 0"/>
<feBlend mode="normal" in2="BackgroundImageFix" result="effect1_dropShadow_677_2542"/>
<feBlend mode="normal" in="SourceGraphic" in2="effect1_dropShadow_677_2542" result="shape"/>
</filter>
<filter id="filter4_d_677_2542" x="216.775" y="238.375" width="58.3714" height="58.5483" filterUnits="userSpaceOnUse" color-interpolation-filters="sRGB">
<feFlood flood-opacity="0" result="BackgroundImageFix"/>
<feColorMatrix in="SourceAlpha" type="matrix" values="0 0 0 0 0 0 0 0 0 0 0 0 0 0 0 0 0 0 127 0" result="hardAlpha"/>
<feOffset dx="2.78801" dy="2.78801"/>
<feColorMatrix type="matrix" values="0 0 0 0 0 0 0 0 0 0 0 0 0 0 0 0 0 0 1 0"/>
<feBlend mode="normal" in2="BackgroundImageFix" result="effect1_dropShadow_677_2542"/>
<feBlend mode="normal" in="SourceGraphic" in2="effect1_dropShadow_677_2542" result="shape"/>
</filter>
<clipPath id="clip0_677_2542">
<path d="M216.775 266.255C216.775 250.906 229.218 238.375 244.567 238.375V238.375C259.916 238.375 272.359 250.906 272.359 266.255V266.255C272.359 281.604 259.916 294.135 244.567 294.135V294.135C229.218 294.135 216.775 281.604 216.775 266.255V266.255Z" fill="white"/>
</clipPath>
</defs>
</svg>
