<svg width="329" height="253" viewBox="0 0 329 253" fill="none" xmlns="http://www.w3.org/2000/svg">
<path d="M216.519 171.628L207.391 169.59L211.955 134.863C234.293 137.92 251.536 139.456 263.718 139.456C276.911 139.456 283.516 134.863 283.516 125.659C283.516 122.424 282.038 119.869 279.081 117.992C276.124 116.116 271.769 114.078 266.016 111.862C262.287 110.504 259.587 109.404 257.9 108.547C238.776 102.077 225.213 94.6686 217.178 86.3225C209.142 77.9764 205.125 67.5115 205.125 54.9115C205.125 37.0385 210.54 23.5003 221.372 14.297C232.203 5.10977 246.908 0.5 265.517 0.5C273.135 0.5 280.366 1.01761 287.212 2.03661C294.058 3.05561 306.626 5.27151 324.898 8.68436L321.346 43.9289C299.346 41.3733 282.44 40.0955 270.596 40.0955C256.727 40.0955 249.784 43.9289 249.784 51.5956C249.784 54.1512 251.472 56.3186 254.863 58.114C258.238 59.9094 263.573 62.1577 270.853 64.875C278.293 67.6085 283.115 69.4686 285.316 70.4876C296.485 75.0812 305.115 79.5616 311.206 83.8964C317.296 88.2312 321.7 93.4718 324.399 99.6019C327.099 105.732 328.465 113.48 328.465 122.845C328.465 134.766 325.717 144.939 320.221 153.366C314.725 161.793 307.284 168.182 297.883 172.517C288.498 176.852 277.972 179.035 266.289 179.035C251.745 179.035 235.16 176.561 216.551 171.628H216.519Z" fill="black"/>
<path d="M143.671 244.947L134.543 242.909L139.107 208.182C161.445 211.239 178.689 212.776 190.87 212.776C204.064 212.776 210.669 208.182 210.669 198.979C210.669 195.744 209.191 193.188 206.234 191.312C203.277 189.436 198.922 187.398 193.168 185.182C189.44 183.823 186.74 182.723 185.053 181.866C165.929 175.396 152.365 167.988 144.33 159.642C136.295 151.296 132.277 140.831 132.277 128.231C132.277 110.358 137.693 96.8199 148.525 87.6165C159.356 78.4293 174.061 73.8196 192.67 73.8196C200.288 73.8196 207.519 74.3371 214.365 75.3561C221.211 76.3751 233.778 78.5911 252.05 82.0039L248.499 117.248C226.498 114.693 209.592 113.415 197.748 113.415C183.88 113.415 176.937 117.248 176.937 124.915C176.937 127.471 178.625 129.638 182.015 131.434C185.39 133.229 190.726 135.477 198.006 138.195C205.446 140.928 210.267 142.788 212.469 143.807C223.638 148.401 232.268 152.881 238.358 157.216C244.449 161.551 248.852 166.791 251.552 172.921C254.252 179.052 255.618 186.799 255.618 196.164C255.618 208.085 252.87 218.259 247.374 226.686C241.878 235.113 234.437 241.502 225.036 245.837C215.651 250.171 205.125 252.355 193.441 252.355C178.898 252.355 162.313 249.88 143.704 244.947H143.671Z" fill="#01ABFF"/>
<path d="M143.671 244.947L134.543 242.909L139.107 208.182C161.445 211.239 178.689 212.776 190.87 212.776C204.064 212.776 210.669 208.182 210.669 198.979C210.669 195.744 209.191 193.188 206.234 191.312C203.277 189.436 198.922 187.398 193.168 185.182C189.44 183.823 186.74 182.723 185.053 181.866C165.929 175.396 152.365 167.988 144.33 159.642C136.295 151.296 132.277 140.831 132.277 128.231C132.277 110.358 137.693 96.8199 148.525 87.6165C159.356 78.4293 174.061 73.8196 192.67 73.8196C200.288 73.8196 207.519 74.3371 214.365 75.3561C221.211 76.3751 233.778 78.5911 252.05 82.0039L248.499 117.248C226.498 114.693 209.592 113.415 197.748 113.415C183.88 113.415 176.937 117.248 176.937 124.915C176.937 127.471 178.625 129.638 182.015 131.434C185.39 133.229 190.726 135.477 198.006 138.195C205.446 140.928 210.267 142.788 212.469 143.807C223.638 148.401 232.268 152.881 238.358 157.216C244.449 161.551 248.852 166.791 251.552 172.921C254.252 179.052 255.618 186.799 255.618 196.164C255.618 208.085 252.87 218.259 247.374 226.686C241.878 235.113 234.437 241.502 225.036 245.837C215.651 250.171 205.125 252.355 193.441 252.355C178.898 252.355 162.313 249.88 143.704 244.947H143.671Z" stroke="#231F20" stroke-miterlimit="10"/>
<path d="M154.39 234.159L145.262 232.121L149.826 197.394C172.164 200.451 189.408 201.987 201.589 201.987C214.783 201.987 221.388 197.394 221.388 188.191C221.388 184.956 219.909 182.4 216.952 180.524C213.995 178.647 209.64 176.609 203.887 174.394C200.159 173.035 197.459 171.935 195.772 171.078C176.648 164.608 163.084 157.2 155.049 148.854C147.014 140.508 142.996 130.043 142.996 117.443C142.996 99.5697 148.412 86.0316 159.244 76.8282C170.075 67.641 184.779 63.0312 203.389 63.0312C211.006 63.0312 218.238 63.5489 225.084 64.5679C231.93 65.5869 244.497 67.8028 262.769 71.2156L259.218 106.46C237.217 103.905 220.311 102.627 208.467 102.627C194.598 102.627 187.656 106.46 187.656 114.127C187.656 116.682 189.343 118.85 192.734 120.645C196.109 122.441 201.444 124.689 208.724 127.406C216.165 130.14 220.986 132 223.188 133.019C234.357 137.612 242.986 142.093 249.077 146.428C255.168 150.762 259.571 156.003 262.271 162.133C264.971 168.263 266.337 176.011 266.337 185.376C266.337 197.297 263.589 207.471 258.093 215.898C252.597 224.325 245.156 230.714 235.755 235.048C226.37 239.383 215.844 241.567 204.16 241.567C189.617 241.567 173.032 239.092 154.422 234.159H154.39Z" fill="#01ABFF"/>
<path d="M154.39 234.159L145.262 232.121L149.826 197.394C172.164 200.451 189.408 201.987 201.589 201.987C214.783 201.987 221.388 197.394 221.388 188.191C221.388 184.956 219.909 182.4 216.952 180.524C213.995 178.647 209.64 176.609 203.887 174.394C200.159 173.035 197.459 171.935 195.772 171.078C176.648 164.608 163.084 157.2 155.049 148.854C147.014 140.508 142.996 130.043 142.996 117.443C142.996 99.5697 148.412 86.0316 159.244 76.8282C170.075 67.641 184.779 63.0312 203.389 63.0312C211.006 63.0312 218.238 63.5489 225.084 64.5679C231.93 65.5869 244.497 67.8028 262.769 71.2156L259.218 106.46C237.217 103.905 220.311 102.627 208.467 102.627C194.598 102.627 187.656 106.46 187.656 114.127C187.656 116.682 189.343 118.85 192.734 120.645C196.109 122.441 201.444 124.689 208.724 127.406C216.165 130.14 220.986 132 223.188 133.019C234.357 137.612 242.986 142.093 249.077 146.428C255.168 150.762 259.571 156.003 262.271 162.133C264.971 168.263 266.337 176.011 266.337 185.376C266.337 197.297 263.589 207.471 258.093 215.898C252.597 224.325 245.156 230.714 235.755 235.048C226.37 239.383 215.844 241.567 204.16 241.567C189.617 241.567 173.032 239.092 154.422 234.159H154.39Z" stroke="#231F20" stroke-miterlimit="10"/>
<path d="M165.093 223.386L155.965 221.348L160.529 186.621C182.867 189.678 200.111 191.215 212.292 191.215C225.486 191.215 232.091 186.621 232.091 177.418C232.091 174.183 230.613 171.628 227.656 169.751C224.699 167.875 220.344 165.837 214.59 163.621C210.862 162.262 208.162 161.163 206.475 160.305C187.351 153.835 173.787 146.427 165.752 138.081C157.717 129.735 153.699 119.27 153.699 106.67C153.699 88.7973 159.115 75.2591 169.947 66.0557C180.778 56.8686 195.483 52.2588 214.092 52.2588C221.71 52.2588 228.941 52.7764 235.787 53.7954C242.633 54.8144 255.2 57.0303 273.472 60.4431L269.921 95.6877C247.92 93.1321 231.014 91.8543 219.17 91.8543C205.302 91.8543 198.359 95.6876 198.359 103.354C198.359 105.91 200.047 108.077 203.437 109.873C206.812 111.668 212.148 113.916 219.428 116.634C226.868 119.367 231.689 121.227 233.891 122.246C245.06 126.84 253.69 131.32 259.78 135.655C265.871 139.99 270.274 145.231 272.974 151.361C275.674 157.491 277.04 165.239 277.04 174.604C277.04 186.524 274.292 196.698 268.796 205.125C263.3 213.552 255.859 219.941 246.458 224.276C237.073 228.611 226.547 230.794 214.863 230.794C200.32 230.794 183.735 228.32 165.126 223.386H165.093Z" fill="#01ABFF"/>
<path d="M165.093 223.386L155.965 221.348L160.529 186.621C182.867 189.678 200.111 191.215 212.292 191.215C225.486 191.215 232.091 186.621 232.091 177.418C232.091 174.183 230.613 171.628 227.656 169.751C224.699 167.875 220.344 165.837 214.59 163.621C210.862 162.262 208.162 161.163 206.475 160.305C187.351 153.835 173.787 146.427 165.752 138.081C157.717 129.735 153.699 119.27 153.699 106.67C153.699 88.7973 159.115 75.2591 169.947 66.0557C180.778 56.8686 195.483 52.2588 214.092 52.2588C221.71 52.2588 228.941 52.7764 235.787 53.7954C242.633 54.8144 255.2 57.0303 273.472 60.4431L269.921 95.6877C247.92 93.1321 231.014 91.8543 219.17 91.8543C205.302 91.8543 198.359 95.6876 198.359 103.354C198.359 105.91 200.047 108.077 203.437 109.873C206.812 111.668 212.148 113.916 219.428 116.634C226.868 119.367 231.689 121.227 233.891 122.246C245.06 126.84 253.69 131.32 259.78 135.655C265.871 139.99 270.274 145.231 272.974 151.361C275.674 157.491 277.04 165.239 277.04 174.604C277.04 186.524 274.292 196.698 268.796 205.125C263.3 213.552 255.859 219.941 246.458 224.276C237.073 228.611 226.547 230.794 214.863 230.794C200.32 230.794 183.735 228.32 165.126 223.386H165.093Z" stroke="#231F20" stroke-miterlimit="10"/>
<path d="M175.812 212.598L166.684 210.56L171.248 175.833C193.586 178.89 210.83 180.426 223.011 180.426C236.205 180.426 242.81 175.833 242.81 166.629C242.81 163.395 241.331 160.839 238.374 158.963C235.417 157.086 231.062 155.048 225.309 152.833C221.581 151.474 218.881 150.374 217.194 149.517C198.07 143.047 184.506 135.639 176.471 127.293C168.436 118.947 164.418 108.482 164.418 95.8816C164.418 78.0087 169.834 64.4705 180.666 55.2672C191.497 46.08 206.201 41.4702 224.811 41.4702C232.428 41.4702 239.66 41.9878 246.506 43.0068C253.352 44.0258 265.919 46.2417 284.191 49.6546L280.64 84.8991C258.639 82.3435 241.733 81.0657 229.889 81.0657C216.021 81.0657 209.078 84.8991 209.078 92.5658C209.078 95.1214 210.765 97.2888 214.156 99.0842C217.531 100.88 222.866 103.128 230.146 105.845C237.587 108.579 242.408 110.439 244.61 111.458C255.779 116.051 264.408 120.532 270.499 124.867C276.59 129.201 280.993 134.442 283.693 140.572C286.393 146.702 287.759 154.45 287.759 163.815C287.759 175.736 285.011 185.91 279.515 194.337C274.019 202.764 266.578 209.152 257.177 213.487C247.792 217.822 237.266 220.006 225.582 220.006C211.039 220.006 194.454 217.531 175.844 212.598H175.812Z" fill="#01ABFF"/>
<path d="M175.812 212.598L166.684 210.56L171.248 175.833C193.586 178.89 210.83 180.426 223.011 180.426C236.205 180.426 242.81 175.833 242.81 166.629C242.81 163.395 241.331 160.839 238.374 158.963C235.417 157.086 231.062 155.048 225.309 152.833C221.581 151.474 218.881 150.374 217.194 149.517C198.07 143.047 184.506 135.639 176.471 127.293C168.436 118.947 164.418 108.482 164.418 95.8816C164.418 78.0087 169.834 64.4705 180.666 55.2672C191.497 46.08 206.201 41.4702 224.811 41.4702C232.428 41.4702 239.66 41.9878 246.506 43.0068C253.352 44.0258 265.919 46.2417 284.191 49.6546L280.64 84.8991C258.639 82.3435 241.733 81.0657 229.889 81.0657C216.021 81.0657 209.078 84.8991 209.078 92.5658C209.078 95.1214 210.765 97.2888 214.156 99.0842C217.531 100.88 222.866 103.128 230.146 105.845C237.587 108.579 242.408 110.439 244.61 111.458C255.779 116.051 264.408 120.532 270.499 124.867C276.59 129.201 280.993 134.442 283.693 140.572C286.393 146.702 287.759 154.45 287.759 163.815C287.759 175.736 285.011 185.91 279.515 194.337C274.019 202.764 266.578 209.152 257.177 213.487C247.792 217.822 237.266 220.006 225.582 220.006C211.039 220.006 194.454 217.531 175.844 212.598H175.812Z" stroke="#231F20" stroke-miterlimit="10"/>
<path d="M186.531 201.809L177.403 199.771L181.967 165.044C204.305 168.101 221.548 169.638 233.73 169.638C246.924 169.638 253.529 165.044 253.529 155.841C253.529 152.606 252.05 150.051 249.093 148.174C246.136 146.298 241.781 144.26 236.028 142.044C232.299 140.686 229.6 139.586 227.912 138.728C208.788 132.259 195.225 124.851 187.19 116.504C179.155 108.158 175.137 97.6934 175.137 85.0933C175.137 67.2204 180.553 53.6822 191.384 44.4788C202.216 35.2917 216.92 30.6819 235.53 30.6819C243.147 30.6819 250.379 31.1995 257.225 32.2185C264.071 33.2375 276.638 35.4534 294.91 38.8662L291.358 74.1108C269.358 71.5552 252.452 70.2774 240.608 70.2774C226.739 70.2774 219.797 74.1107 219.797 81.7775C219.797 84.3331 221.484 86.5005 224.875 88.2959C228.25 90.0913 233.585 92.3396 240.865 95.0569C248.306 97.7904 253.127 99.6505 255.328 100.67C266.497 105.263 275.127 109.743 281.218 114.078C287.309 118.413 291.712 123.654 294.412 129.784C297.112 135.914 298.478 143.662 298.478 153.027C298.478 164.947 295.729 175.121 290.233 183.548C284.737 191.975 277.297 198.364 267.895 202.699C258.51 207.034 247.984 209.217 236.301 209.217C221.757 209.217 205.173 206.743 186.563 201.809H186.531Z" fill="#01ABFF"/>
<path d="M186.531 201.809L177.403 199.771L181.967 165.044C204.305 168.101 221.548 169.638 233.73 169.638C246.924 169.638 253.529 165.044 253.529 155.841C253.529 152.606 252.05 150.051 249.093 148.174C246.136 146.298 241.781 144.26 236.028 142.044C232.299 140.686 229.6 139.586 227.912 138.728C208.788 132.259 195.225 124.851 187.19 116.504C179.155 108.158 175.137 97.6934 175.137 85.0933C175.137 67.2204 180.553 53.6822 191.384 44.4788C202.216 35.2917 216.92 30.6819 235.53 30.6819C243.147 30.6819 250.379 31.1995 257.225 32.2185C264.071 33.2375 276.638 35.4534 294.91 38.8662L291.358 74.1108C269.358 71.5552 252.452 70.2774 240.608 70.2774C226.739 70.2774 219.797 74.1107 219.797 81.7775C219.797 84.3331 221.484 86.5005 224.875 88.2959C228.25 90.0913 233.585 92.3396 240.865 95.0569C248.306 97.7904 253.127 99.6505 255.328 100.67C266.497 105.263 275.127 109.743 281.218 114.078C287.309 118.413 291.712 123.654 294.412 129.784C297.112 135.914 298.478 143.662 298.478 153.027C298.478 164.947 295.729 175.121 290.233 183.548C284.737 191.975 277.297 198.364 267.895 202.699C258.51 207.034 247.984 209.217 236.301 209.217C221.757 209.217 205.173 206.743 186.563 201.809H186.531Z" stroke="#231F20" stroke-miterlimit="10"/>
<path d="M197.234 191.037L188.106 188.999L192.67 154.272C215.008 157.329 232.252 158.866 244.433 158.866C257.627 158.866 264.232 154.272 264.232 145.069C264.232 141.834 262.753 139.278 259.796 137.402C256.839 135.526 252.484 133.488 246.731 131.272C243.003 129.913 240.303 128.813 238.616 127.956C219.492 121.486 205.928 114.078 197.893 105.732C189.858 97.3861 185.84 86.9212 185.84 74.3211C185.84 56.4482 191.256 42.91 202.088 33.7066C212.919 24.5194 227.623 19.9097 246.233 19.9097C253.85 19.9097 261.082 20.4273 267.928 21.4463C274.774 22.4653 287.341 24.6812 305.613 28.094L302.062 63.3385C280.061 60.7829 263.155 59.5052 251.311 59.5052C237.442 59.5052 230.5 63.3385 230.5 71.0053C230.5 73.5609 232.187 75.7283 235.578 77.5237C238.953 79.319 244.288 81.5674 251.568 84.2847C259.009 87.0182 263.83 88.8783 266.032 89.8973C277.201 94.4909 285.83 98.9712 291.921 103.306C298.012 107.641 302.415 112.881 305.115 119.012C307.815 125.142 309.181 132.889 309.181 142.255C309.181 154.175 306.433 164.349 300.937 172.776C295.441 181.203 288 187.592 278.599 191.927C269.214 196.262 258.688 198.445 247.004 198.445C232.461 198.445 215.876 195.97 197.266 191.037H197.234Z" fill="#01ABFF"/>
<path d="M197.234 191.037L188.106 188.999L192.67 154.272C215.008 157.329 232.252 158.866 244.433 158.866C257.627 158.866 264.232 154.272 264.232 145.069C264.232 141.834 262.753 139.278 259.796 137.402C256.839 135.526 252.484 133.488 246.731 131.272C243.003 129.913 240.303 128.813 238.616 127.956C219.492 121.486 205.928 114.078 197.893 105.732C189.858 97.3861 185.84 86.9212 185.84 74.3211C185.84 56.4482 191.256 42.91 202.088 33.7066C212.919 24.5194 227.623 19.9097 246.233 19.9097C253.85 19.9097 261.082 20.4273 267.928 21.4463C274.774 22.4653 287.341 24.6812 305.613 28.094L302.062 63.3385C280.061 60.7829 263.155 59.5052 251.311 59.5052C237.442 59.5052 230.5 63.3385 230.5 71.0053C230.5 73.5609 232.187 75.7283 235.578 77.5237C238.953 79.319 244.288 81.5674 251.568 84.2847C259.009 87.0182 263.83 88.8783 266.032 89.8973C277.201 94.4909 285.83 98.9712 291.921 103.306C298.012 107.641 302.415 112.881 305.115 119.012C307.815 125.142 309.181 132.889 309.181 142.255C309.181 154.175 306.433 164.349 300.937 172.776C295.441 181.203 288 187.592 278.599 191.927C269.214 196.262 258.688 198.445 247.004 198.445C232.461 198.445 215.876 195.97 197.266 191.037H197.234Z" stroke="#231F20" stroke-miterlimit="10"/>
<path d="M207.953 180.249L198.825 178.211L203.389 143.484C225.727 146.541 242.97 148.077 255.152 148.077C268.346 148.077 274.951 143.484 274.951 134.28C274.951 131.045 273.472 128.49 270.515 126.614C267.558 124.737 263.203 122.699 257.45 120.483C253.722 119.125 251.022 118.025 249.334 117.168C230.211 110.698 216.647 103.29 208.612 94.9436C200.577 86.5975 196.559 76.1325 196.559 63.5325C196.559 45.6595 201.975 32.1214 212.806 22.918C223.638 13.7309 238.342 9.12109 256.952 9.12109C264.569 9.12109 271.801 9.63865 278.647 10.6577C285.493 11.6767 298.06 13.8926 316.332 17.3054L312.78 52.55C290.78 49.9944 273.874 48.7165 262.03 48.7165C248.161 48.7165 241.219 52.55 241.219 60.2167C241.219 62.7723 242.906 64.9397 246.297 66.7351C249.672 68.5305 255.007 70.7787 262.287 73.4961C269.728 76.2296 274.549 78.0897 276.751 79.1087C287.919 83.7023 296.549 88.1826 302.64 92.5174C308.731 96.8522 313.134 102.093 315.834 108.223C318.534 114.353 319.9 122.101 319.9 131.466C319.9 143.387 317.151 153.56 311.655 161.987C306.159 170.414 298.719 176.803 289.318 181.138C279.932 185.473 269.406 187.657 257.723 187.657C243.179 187.657 226.595 185.182 207.985 180.249H207.953Z" fill="#01ABFF"/>
<path d="M207.953 180.249L198.825 178.211L203.389 143.484C225.727 146.541 242.97 148.077 255.152 148.077C268.346 148.077 274.951 143.484 274.951 134.28C274.951 131.045 273.472 128.49 270.515 126.614C267.558 124.737 263.203 122.699 257.45 120.483C253.722 119.125 251.022 118.025 249.334 117.168C230.211 110.698 216.647 103.29 208.612 94.9436C200.577 86.5975 196.559 76.1325 196.559 63.5325C196.559 45.6595 201.975 32.1214 212.806 22.918C223.638 13.7309 238.342 9.12109 256.952 9.12109C264.569 9.12109 271.801 9.63865 278.647 10.6577C285.493 11.6767 298.06 13.8926 316.332 17.3054L312.78 52.55C290.78 49.9944 273.874 48.7165 262.03 48.7165C248.161 48.7165 241.219 52.55 241.219 60.2167C241.219 62.7723 242.906 64.9397 246.297 66.7351C249.672 68.5305 255.007 70.7787 262.287 73.4961C269.728 76.2296 274.549 78.0897 276.751 79.1087C287.919 83.7023 296.549 88.1826 302.64 92.5174C308.731 96.8522 313.134 102.093 315.834 108.223C318.534 114.353 319.9 122.101 319.9 131.466C319.9 143.387 317.151 153.56 311.655 161.987C306.159 170.414 298.719 176.803 289.318 181.138C279.932 185.473 269.406 187.657 257.723 187.657C243.179 187.657 226.595 185.182 207.985 180.249H207.953Z" stroke="#231F20" stroke-miterlimit="10"/>
<path d="M216.519 171.628L207.391 169.59L211.955 134.863C234.293 137.92 251.536 139.456 263.718 139.456C276.911 139.456 283.516 134.863 283.516 125.659C283.516 122.424 282.038 119.869 279.081 117.992C276.124 116.116 271.769 114.078 266.016 111.862C262.287 110.504 259.587 109.404 257.9 108.547C238.776 102.077 225.213 94.6686 217.178 86.3225C209.142 77.9764 205.125 67.5115 205.125 54.9115C205.125 37.0385 210.54 23.5003 221.372 14.297C232.203 5.10977 246.908 0.5 265.517 0.5C273.135 0.5 280.366 1.01761 287.212 2.03661C294.058 3.05561 306.626 5.27151 324.898 8.68436L321.346 43.9289C299.346 41.3733 282.44 40.0955 270.596 40.0955C256.727 40.0955 249.784 43.9289 249.784 51.5956C249.784 54.1512 251.472 56.3186 254.863 58.114C258.238 59.9094 263.573 62.1577 270.853 64.875C278.293 67.6085 283.115 69.4686 285.316 70.4876C296.485 75.0812 305.115 79.5616 311.206 83.8964C317.296 88.2312 321.7 93.4718 324.399 99.6019C327.099 105.732 328.465 113.48 328.465 122.845C328.465 134.766 325.717 144.939 320.221 153.366C314.725 161.793 307.284 168.182 297.883 172.517C288.498 176.852 277.972 179.035 266.289 179.035C251.745 179.035 235.16 176.561 216.551 171.628H216.519Z" fill="#FFDB33"/>
<path d="M216.519 171.628L207.391 169.59L211.955 134.863C234.293 137.92 251.536 139.456 263.718 139.456C276.911 139.456 283.516 134.863 283.516 125.659C283.516 122.424 282.038 119.869 279.081 117.992C276.124 116.116 271.769 114.078 266.016 111.862C262.287 110.504 259.587 109.404 257.9 108.547C238.776 102.077 225.213 94.6686 217.178 86.3225C209.142 77.9764 205.125 67.5115 205.125 54.9115C205.125 37.0385 210.54 23.5003 221.372 14.297C232.203 5.10977 246.908 0.5 265.517 0.5C273.135 0.5 280.366 1.01761 287.212 2.03661C294.058 3.05561 306.626 5.27151 324.898 8.68436L321.346 43.9289C299.346 41.3733 282.44 40.0955 270.596 40.0955C256.727 40.0955 249.784 43.9289 249.784 51.5956C249.784 54.1512 251.472 56.3186 254.863 58.114C258.238 59.9094 263.573 62.1577 270.853 64.875C278.293 67.6085 283.115 69.4686 285.316 70.4876C296.485 75.0812 305.115 79.5616 311.206 83.8964C317.296 88.2312 321.7 93.4718 324.399 99.6019C327.099 105.732 328.465 113.48 328.465 122.845C328.465 134.766 325.717 144.939 320.221 153.366C314.725 161.793 307.284 168.182 297.883 172.517C288.498 176.852 277.972 179.035 266.289 179.035C251.745 179.035 235.16 176.561 216.551 171.628H216.519Z" stroke="#231F20" stroke-miterlimit="10"/>
<path d="M114.198 40.5969H73.3473V0.5H200.223V40.5969H159.87V172.129H114.198V40.5969Z" fill="black"/>
<path d="M41.3509 113.916H0.5V73.8193H127.376V113.916H87.0231V245.448H41.3509V113.916Z" fill="#01ABFF"/>
<path d="M41.3509 113.916H0.5V73.8193H127.376V113.916H87.0231V245.448H41.3509V113.916Z" stroke="#231F20" stroke-miterlimit="10"/>
<path d="M52.0537 103.128H11.2028V63.031H138.079V103.128H97.7259V234.66H52.0537V103.128Z" fill="#01ABFF"/>
<path d="M52.0537 103.128H11.2028V63.031H138.079V103.128H97.7259V234.66H52.0537V103.128Z" stroke="#231F20" stroke-miterlimit="10"/>
<path d="M62.7731 92.3557H21.922V52.2588H148.798V92.3557H108.445V223.888H62.7731V92.3557Z" fill="#01ABFF"/>
<path d="M62.7731 92.3557H21.922V52.2588H148.798V92.3557H108.445V223.888H62.7731V92.3557Z" stroke="#231F20" stroke-miterlimit="10"/>
<path d="M73.4917 81.5669H32.6409V41.47H159.517V81.5669H119.164V213.099H73.4917V81.5669Z" fill="#01ABFF"/>
<path d="M73.4917 81.5669H32.6409V41.47H159.517V81.5669H119.164V213.099H73.4917V81.5669Z" stroke="#231F20" stroke-miterlimit="10"/>
<path d="M84.1946 70.7949H43.3438V30.698H170.22V70.7949H129.867V202.327H84.1946V70.7949Z" fill="#01ABFF"/>
<path d="M84.1946 70.7949H43.3438V30.698H170.22V70.7949H129.867V202.327H84.1946V70.7949Z" stroke="#231F20" stroke-miterlimit="10"/>
<path d="M94.9139 60.0066H54.0629V19.9097H180.939V60.0066H140.586V191.539H94.9139V60.0066Z" fill="#01ABFF"/>
<path d="M94.9139 60.0066H54.0629V19.9097H180.939V60.0066H140.586V191.539H94.9139V60.0066Z" stroke="#231F20" stroke-miterlimit="10"/>
<path d="M105.617 49.2178H64.7656V9.12085H191.641V49.2178H151.289V180.75H105.617V49.2178Z" fill="#01ABFF"/>
<path d="M105.617 49.2178H64.7656V9.12085H191.641V49.2178H151.289V180.75H105.617V49.2178Z" stroke="#231F20" stroke-miterlimit="10"/>
<path d="M114.198 40.5969H73.3473V0.5H200.223V40.5969H159.87V172.129H114.198V40.5969Z" fill="#FFDB33"/>
<path d="M114.198 40.5969H73.3473V0.5H200.223V40.5969H159.87V172.129H114.198V40.5969Z" stroke="#231F20" stroke-miterlimit="10"/>
</svg>
