<svg width="207" height="386" viewBox="0 0 207 386" fill="none" xmlns="http://www.w3.org/2000/svg">
<path d="M99.3482 297.002L99.2727 302.305L93.9692 302.23" stroke="black" stroke-width="3.30113" stroke-linecap="round" stroke-linejoin="round"/>
<path d="M84.3007 302.091L11.788 301.054" stroke="black" stroke-width="3.30113" stroke-linecap="round" stroke-linejoin="round" stroke-dasharray="9.67 9.67"/>
<path d="M6.95308 300.984L1.65051 300.908L1.72598 295.605" stroke="black" stroke-width="3.30113" stroke-linecap="round" stroke-linejoin="round"/>
<path d="M1.86475 285.937L2.90228 213.423" stroke="black" stroke-width="3.30113" stroke-linecap="round" stroke-linejoin="round" stroke-dasharray="9.67 9.67"/>
<path d="M2.97119 208.59L3.04666 203.286L8.35015 203.363" stroke="black" stroke-width="3.30113" stroke-linecap="round" stroke-linejoin="round"/>
<path d="M18.0186 203.5L90.5312 204.538" stroke="black" stroke-width="3.30113" stroke-linecap="round" stroke-linejoin="round" stroke-dasharray="9.67 9.67"/>
<path d="M95.366 204.607L100.669 204.684L100.593 209.986" stroke="black" stroke-width="3.30113" stroke-linecap="round" stroke-linejoin="round"/>
<path d="M100.455 219.655L99.4178 292.168" stroke="black" stroke-width="3.30113" stroke-linecap="round" stroke-linejoin="round" stroke-dasharray="9.67 9.67"/>
<path d="M100.64 1.65039H25.4348V276.445H100.64V1.65039Z" fill="white" stroke="black" stroke-width="3.30113" stroke-miterlimit="10" stroke-linecap="round" stroke-linejoin="round"/>
<path d="M52.4287 22.4922L55.6883 49.952L60.8636 41.6501L68.3024 51.0649L75.181 45.2445L68.3024 36.7795L77.8267 34.6621L52.4287 22.4922Z" stroke="black" stroke-width="3.30113" stroke-miterlimit="10" stroke-linecap="round" stroke-linejoin="round"/>
<path d="M76.2806 70.647H51.1599V95.7676H76.2806V70.647Z" stroke="black" stroke-width="3.30113" stroke-miterlimit="10" stroke-linecap="round" stroke-linejoin="round"/>
<path d="M53.4235 112.142V141.792H80.0541" stroke="black" stroke-width="3.30113" stroke-miterlimit="10" stroke-linecap="round" stroke-linejoin="round"/>
<path d="M73.2614 150.525V120.876H46.6307" stroke="black" stroke-width="3.30113" stroke-miterlimit="10" stroke-linecap="round" stroke-linejoin="round"/>
<path d="M63.6326 171.912L50.081 180.288L44.6823 202.574L46.5233 204.318L69.7039 199.371L77.2814 182.912" stroke="black" stroke-width="3.30113" stroke-miterlimit="10" stroke-linecap="round" stroke-linejoin="round"/>
<path d="M68.0863 162.499L61.2397 169.399L80.0543 185.247L86.4151 177.701L68.0863 162.499Z" stroke="black" stroke-width="3.30113" stroke-miterlimit="10" stroke-linecap="round" stroke-linejoin="round"/>
<path d="M46.3414 202.823L58.383 191.069" stroke="black" stroke-width="3.30113" stroke-miterlimit="10" stroke-linecap="round" stroke-linejoin="round"/>
<path d="M64.4739 188.375C64.4739 190.339 62.8808 191.932 60.9162 191.932C58.9515 191.932 57.3585 190.339 57.3585 188.375C57.3585 186.41 58.9515 184.817 60.9162 184.817C62.8818 184.816 64.4739 186.409 64.4739 188.375Z" stroke="black" stroke-width="3.30113" stroke-miterlimit="10" stroke-linecap="round" stroke-linejoin="round"/>
<path d="M76.388 236.149H54.178V258.359H76.388V236.149Z" stroke="black" stroke-width="3.30113" stroke-miterlimit="10" stroke-linecap="round" stroke-linejoin="round"/>
<path d="M68.6258 222.457H46.5233V244.559H68.6258V222.457Z" fill="black" stroke="black" stroke-width="3.30113" stroke-miterlimit="10" stroke-linecap="round" stroke-linejoin="round"/>
<path d="M71.8175 258.997L69.5859 272.186C69.0926 275.722 68.9361 276.945 69.5689 279.222C69.95 280.592 70.5574 281.905 71.3808 283.104L93.0221 314.6L66.431 310.031L60.97 327.814C60.3295 329.901 60.4031 332.072 61.0869 334.027C61.7717 335.983 63.0676 337.724 64.8728 338.95C67.5175 340.747 71.1884 342.634 76.0995 343.961C88.5391 347.323 116.555 355.391 128.322 363.46C135.518 368.394 142.168 375.507 146.25 380.289C147.45 381.694 149.013 382.651 150.705 383.104C152.624 383.619 154.711 383.486 156.622 382.626L194.753 365.476L204.864 346.649L157.899 339.029L117.003 300.926L71.8175 258.997Z" fill="black" stroke="black" stroke-width="3.30113" stroke-miterlimit="10" stroke-linecap="round" stroke-linejoin="round"/>
<path d="M106.47 280.083L91.4525 261.704C91.4525 261.704 86.2971 254.308 77.5557 254.98C68.8143 255.653 70.7101 264.504 77.0162 271.711C80.7408 275.969 115.658 319.083 115.658 319.083C115.658 319.083 88.5381 308.1 81.1417 306.307C73.7452 304.514 65.4528 307.203 65.6763 313.031C65.9008 318.858 68.3663 322.669 83.3826 327.151C98.3999 331.634 121.261 338.806 131.347 343.737C141.434 348.668 157.898 365.479 157.898 365.479L204.863 346.651C204.863 346.651 193.881 338.134 190.743 330.289C187.605 322.445 186.933 319.98 183.57 311.238C180.208 302.497 164.047 285.911 164.047 285.911C164.047 285.911 156.45 277.17 149.95 278.066C143.45 278.962 144.571 283.669 144.571 283.669C144.571 283.669 139.865 276.721 130.451 276.945C121.037 277.17 126.641 283.893 126.641 283.893C126.641 283.893 120.61 274.362 111.848 275.152C103.087 275.942 106.47 280.083 106.47 280.083Z" fill="white" stroke="black" stroke-width="3.30113" stroke-miterlimit="10" stroke-linecap="round" stroke-linejoin="round"/>
<path d="M106.47 280.083L116.06 292.514" stroke="black" stroke-width="3.30113" stroke-miterlimit="10" stroke-linecap="round" stroke-linejoin="round"/>
<path d="M126.643 283.893L132.697 291.158" stroke="black" stroke-width="3.30113" stroke-miterlimit="10" stroke-linecap="round" stroke-linejoin="round"/>
<path d="M144.573 283.669L151.463 291.544" stroke="black" stroke-width="3.30113" stroke-miterlimit="10" stroke-linecap="round" stroke-linejoin="round"/>
</svg>
